<svg xmlns="http://www.w3.org/2000/svg" width="65" height="65" viewBox="0 0 65 65">
  <g id="Group_3371" data-name="Group 3371" transform="translate(6970 -10713)">
    <rect id="Rectangle_1051" data-name="Rectangle 1051" width="65" height="65" rx="32.5" transform="translate(-6970 10713)" fill="#f7eceb"/>
    <g id="outline" transform="translate(-6958 10721.686)">
      <path id="Path_3630" data-name="Path 3630" d="M37.613,27.281a2.591,2.591,0,0,0-2.116.235l-1.49.551V13.309A4.314,4.314,0,0,0,29.7,9a.616.616,0,0,0-.616.616V23.157h-.658A4.932,4.932,0,0,0,25.6,19.3l.387-1.539a.616.616,0,0,0-.162-.585l-1.847-1.847a.616.616,0,0,0-.87,0L21.262,17.18a.616.616,0,0,0-.162.585l.387,1.539a4.932,4.932,0,0,0-2.825,3.853H16.773a.616.616,0,0,0-.616.616V28.7H14.926V27.466a.616.616,0,0,0-.616-.616H2.616A.616.616,0,0,0,2,27.466V36.7a.616.616,0,0,0,.616.616h11.7a.616.616,0,0,0,.616-.616v-1.12l10.362,1.727a.628.628,0,0,0,.1.009.616.616,0,0,0,.278-.066l12.188-6.155a2.143,2.143,0,0,0-.243-3.813ZM13.7,36.083H3.231v-8H13.7ZM30.314,10.293a3.083,3.083,0,0,1,2.462,3.016v9.849H30.314Zm-6.771,6.349,1.165,1.165-.283,1.126a4.682,4.682,0,0,0-1.763,0l-.283-1.126Zm0,3.438a3.7,3.7,0,0,1,3.642,3.078H25.928a2.462,2.462,0,0,0-4.769,0H19.9a3.7,3.7,0,0,1,3.642-3.078Zm1.06,3.078h-2.12a1.221,1.221,0,0,1,2.12,0Zm-7.215,1.231H32.777v4.134L29.5,29.732A1.847,1.847,0,0,0,27.852,28.7H17.388ZM37.3,29.994,25.292,36.059,14.926,34.331v-4.4H27.852a.616.616,0,1,1,0,1.231H21.7V32.39h6.155a1.847,1.847,0,0,0,1.785-1.4S36,28.642,36.019,28.632a1.535,1.535,0,0,1,1.157-.2.92.92,0,0,1,.123,1.562Z" fill="#f8a49c"/>
      <path id="Path_3631" data-name="Path 3631" d="M29,36h1.231v1.231H29Z" transform="translate(-10.381 -10.381)" fill="#f8a49c"/>
      <path id="Path_3632" data-name="Path 3632" d="M17,42h1.231v1.231H17Z" transform="translate(-5.767 -12.687)" fill="#f8a49c"/>
      <path id="Path_3633" data-name="Path 3633" d="M13,42h1.231v1.231H13Z" transform="translate(-4.229 -12.687)" fill="#f8a49c"/>
      <path id="Path_3634" data-name="Path 3634" d="M28.693,11.616a.616.616,0,1,0-1.231,0,1.847,1.847,0,0,1-1.847,1.847.616.616,0,1,0,0,1.231,1.847,1.847,0,0,1,1.847,1.847.616.616,0,0,0,1.231,0,1.847,1.847,0,0,1,1.847-1.847.616.616,0,1,0,0-1.231A1.847,1.847,0,0,1,28.693,11.616Zm-.616,3.078a3.1,3.1,0,0,0-.616-.616,3.1,3.1,0,0,0,.616-.616,3.1,3.1,0,0,0,.616.616A3.1,3.1,0,0,0,28.078,14.693Z" transform="translate(-8.843 -0.769)" fill="#f8a49c"/>
    </g>
  </g>
</svg>
