<svg xmlns="http://www.w3.org/2000/svg" width="48.419" height="41.776" viewBox="0 0 48.419 41.776">
  <path id="gift_4_" data-name="gift (4)" d="M7.462,47.823H3.337L0,55.3V76.885H48.419V55.3l-3.337-7.475H40.957V35.109H7.462Zm38.119,9.2v2.838H2.838V57.02ZM10.3,50.529A7.8,7.8,0,0,0,16.525,44.3H31.894a7.8,7.8,0,0,0,6.225,6.225v3.653H30.367a6.16,6.16,0,0,0-12.313,0H10.3V50.529Zm27.819-2.915a4.958,4.958,0,0,1-3.31-3.31h3.31ZM14.883,41.466a7.748,7.748,0,0,0,1.642-3.519H31.894a7.749,7.749,0,0,0,1.642,3.519ZM10.3,44.3h3.31a4.958,4.958,0,0,1-3.31,3.31Zm10.594,9.878a3.323,3.323,0,0,1,6.633,0Zm22.347-3.521,1.571,3.521H40.957V50.661Zm-5.122-9.4a4.958,4.958,0,0,1-3.31-3.31h3.31ZM13.61,37.947a4.958,4.958,0,0,1-3.31,3.31v-3.31ZM7.462,50.661v3.521H3.606l1.571-3.521ZM2.838,74.048V62.7H45.581V74.047H2.838Z" transform="translate(0 -35.109)" fill="#888"/>
</svg>
