<svg xmlns="http://www.w3.org/2000/svg" width="35.851" height="33.538" viewBox="0 0 35.851 33.538"><defs><style>.a{fill:#aaa;}</style></defs><g transform="translate(-8 -24)"><path class="a" d="M92.048,416H88.578a.578.578,0,1,0,0,1.156h3.469a.578.578,0,1,0,0-1.156Z" transform="translate(-74.218 -363.667)"/><path class="a" d="M161.084,416h-.506a.578.578,0,1,0,0,1.156h.506a.578.578,0,0,0,0-1.156Z" transform="translate(-141.014 -363.667)"/><path class="a" d="M43.272,56.381h-.678a1.734,1.734,0,0,0-1.635-2.313H39.8V45.873a1.735,1.735,0,0,0-.578-3.37H37.49V34.308a1.735,1.735,0,0,0-.578-3.37H33.442v-.731A3.092,3.092,0,0,0,34.6,27.469a4.176,4.176,0,0,0-1.349-2.744.578.578,0,0,0-.772,0,4.176,4.176,0,0,0-1.349,2.744,3.092,3.092,0,0,0,1.156,2.738v.731H26.5v-1.31a3.092,3.092,0,0,0,1.156-2.738,4.176,4.176,0,0,0-1.349-2.744.578.578,0,0,0-.772,0,4.176,4.176,0,0,0-1.349,2.744,3.092,3.092,0,0,0,1.156,2.738v1.31H19.565v-.731a3.092,3.092,0,0,0,1.156-2.738,4.176,4.176,0,0,0-1.349-2.744.578.578,0,0,0-.772,0,4.176,4.176,0,0,0-1.349,2.744,3.092,3.092,0,0,0,1.156,2.738v.731H14.939a1.735,1.735,0,0,0-.578,3.37V42.5H12.626a1.735,1.735,0,0,0-.578,3.37v8.195H10.891a1.734,1.734,0,0,0-1.635,2.313H8.578a.578.578,0,0,0,0,1.156H43.272a.578.578,0,0,0,0-1.156ZM32.864,26.021a2.518,2.518,0,0,1,.578,1.448c0,1.119-.434,1.735-.578,1.735s-.578-.615-.578-1.735A2.518,2.518,0,0,1,32.864,26.021Zm-6.939-.578a2.518,2.518,0,0,1,.578,1.448c0,1.119-.434,1.735-.578,1.735s-.578-.615-.578-1.735A2.518,2.518,0,0,1,25.925,25.443Zm-6.939.578a2.518,2.518,0,0,1,.578,1.448c0,1.119-.434,1.735-.578,1.735s-.578-.615-.578-1.735A2.518,2.518,0,0,1,18.986,26.021ZM13.2,45.973H38.646v2.313a4.73,4.73,0,0,1-2.305-.526,6.463,6.463,0,0,0-5.567,0,5.31,5.31,0,0,1-4.61,0,5.9,5.9,0,0,0-2.784-.63,5.9,5.9,0,0,0-2.783.63,4.729,4.729,0,0,1-2.3.526,4.728,4.728,0,0,1-2.3-.526,5.9,5.9,0,0,0-2.784-.63Zm23.129-9.287a3.618,3.618,0,0,1-1.35-.477,5.041,5.041,0,0,0-4.933,0,3.888,3.888,0,0,1-3.856,0,5.04,5.04,0,0,0-4.933,0,3.888,3.888,0,0,1-3.856,0,4.662,4.662,0,0,0-1.888-.617V34.408H36.334ZM14.939,32.095H36.912a.578.578,0,0,1,0,1.156H14.939a.578.578,0,0,1,0-1.156Zm.578,4.661a3.618,3.618,0,0,1,1.35.477,4.659,4.659,0,0,0,2.467.645,4.657,4.657,0,0,0,2.467-.645,3.888,3.888,0,0,1,3.856,0,5.04,5.04,0,0,0,4.933,0,3.889,3.889,0,0,1,3.856,0,4.663,4.663,0,0,0,1.888.617V42.5H15.517Zm-2.891,6.9h26.6a.578.578,0,0,1,0,1.156h-26.6a.578.578,0,1,1,0-1.156Zm.578,4.626a4.728,4.728,0,0,1,2.3.526,5.9,5.9,0,0,0,2.784.63,5.9,5.9,0,0,0,2.783-.63,4.729,4.729,0,0,1,2.3-.526,4.729,4.729,0,0,1,2.3.526,6.464,6.464,0,0,0,5.567,0,5.31,5.31,0,0,1,4.61,0,5.9,5.9,0,0,0,2.783.63v4.626H13.2Zm-2.313,8.1a.578.578,0,1,1,0-1.156H40.959a.578.578,0,1,1,0,1.156Z"/></g></svg>