<svg xmlns="http://www.w3.org/2000/svg" width="50.594" height="42.161" viewBox="0 0 50.594 42.161">
  <path id="gift-box" d="M48.064,0H2.53A2.53,2.53,0,0,0,0,2.53v37.1a2.53,2.53,0,0,0,2.53,2.53H48.064a2.53,2.53,0,0,0,2.53-2.53V2.53A2.53,2.53,0,0,0,48.064,0Zm.843,2.53V17.708H32.085a7.531,7.531,0,0,0,.8-3.373.843.843,0,0,0-.843-.843,7.531,7.531,0,0,0-3.373.8V1.686H48.064A.843.843,0,0,1,48.907,2.53Zm0,20.237H34.042a7.6,7.6,0,0,0,1.391-1.09.843.843,0,0,0,0-1.192,7.6,7.6,0,0,0-1.391-1.09H48.907ZM1.686,19.394H16.552a7.6,7.6,0,0,0-1.391,1.09.843.843,0,0,0,0,1.192,7.6,7.6,0,0,0,1.391,1.09H1.686ZM30.373,22.2a7.564,7.564,0,0,0-1.619-1.122,7.558,7.558,0,0,0,1.616-1.122,5.888,5.888,0,0,1,3.174,1.122A5.883,5.883,0,0,1,30.373,22.2Zm-10.153,0a5.883,5.883,0,0,1-3.171-1.122,5.883,5.883,0,0,1,3.171-1.122,7.564,7.564,0,0,0,1.619,1.122A7.564,7.564,0,0,0,20.221,22.2Zm5.987-2.036a5.915,5.915,0,0,1,4.918-4.918,5.915,5.915,0,0,1-4.914,4.918ZM25.3,17.623a7.558,7.558,0,0,0-1.122-1.616A5.888,5.888,0,0,1,25.3,12.833,5.883,5.883,0,0,1,26.418,16,7.564,7.564,0,0,0,25.3,17.623Zm-.914,2.547a5.915,5.915,0,0,1-4.918-4.918,5.915,5.915,0,0,1,4.918,4.914Zm0,1.828a5.915,5.915,0,0,1-4.918,4.918,5.915,5.915,0,0,1,4.918-4.921Zm.914,2.54a7.558,7.558,0,0,0,1.122,1.616A5.888,5.888,0,0,1,25.3,29.328a5.883,5.883,0,0,1-1.122-3.171A7.564,7.564,0,0,0,25.3,24.538Zm.914-2.547a5.915,5.915,0,0,1,4.918,4.918,5.915,5.915,0,0,1-4.918-4.914Zm.772-20.305V12.336a7.6,7.6,0,0,0-1.09-1.391.843.843,0,0,0-1.192,0,7.6,7.6,0,0,0-1.09,1.391V1.686Zm-24.454,0H21.924V14.293a7.531,7.531,0,0,0-3.373-.8.843.843,0,0,0-.843.843,7.531,7.531,0,0,0,.8,3.373H1.686V2.53A.843.843,0,0,1,2.53,1.686ZM1.686,39.632V24.454H18.509a7.531,7.531,0,0,0-.8,3.373.843.843,0,0,0,.843.843,7.531,7.531,0,0,0,3.373-.8V40.475H2.53A.843.843,0,0,1,1.686,39.632Zm21.924.843V29.826a7.6,7.6,0,0,0,1.09,1.391.843.843,0,0,0,1.192,0,7.6,7.6,0,0,0,1.09-1.391V40.475Zm24.454,0H28.67V27.869a7.531,7.531,0,0,0,3.373.8.843.843,0,0,0,.843-.843,7.531,7.531,0,0,0-.8-3.373H48.907V39.632A.843.843,0,0,1,48.064,40.475Zm0,0" fill="#888"/>
</svg>
