<svg xmlns="http://www.w3.org/2000/svg" width="65" height="65" viewBox="0 0 65 65">
  <g id="Group_3369" data-name="Group 3369" transform="translate(7095 -10726)">
    <rect id="Rectangle_1049" data-name="Rectangle 1049" width="65" height="65" rx="32.5" transform="translate(-7095 10726)" fill="#f7eceb"/>
    <g id="gift_2_" data-name="gift (2)" transform="translate(-7088.314 10701.251)">
      <g id="Group_3354" data-name="Group 3354" transform="translate(29.929 34.249)">
        <g id="Group_3353" data-name="Group 3353">
          <path id="Path_3619" data-name="Path 3619" d="M335.418,35.541a.677.677,0,0,0-.854-.432l-.24.079v-.263a.676.676,0,1,0-1.353,0v.263l-.24-.079a.676.676,0,1,0-.421,1.286l.249.082-.157.218a.677.677,0,0,0,.548,1.072c.394,0,.548-.279.7-.487l.148.205a.676.676,0,1,0,1.1-.79l-.157-.218.249-.082A.677.677,0,0,0,335.418,35.541Z" transform="translate(-331.843 -34.249)" fill="#f8a49c"/>
        </g>
      </g>
      <g id="Group_3356" data-name="Group 3356" transform="translate(36.618 41.51)">
        <g id="Group_3355" data-name="Group 3355">
          <path id="Path_3620" data-name="Path 3620" d="M409.581,116.046a.677.677,0,0,0-.854-.432l-.24.079v-.263a.676.676,0,1,0-1.353,0v.263l-.24-.079a.676.676,0,1,0-.421,1.285l.249.082-.157.218a.676.676,0,0,0,1.1.79l.148-.205c.142.2.3.487.7.487a.677.677,0,0,0,.548-1.072l-.157-.218.249-.082A.676.676,0,0,0,409.581,116.046Z" transform="translate(-406.007 -114.754)" fill="#f8a49c"/>
        </g>
      </g>
      <g id="Group_3358" data-name="Group 3358" transform="translate(30.467 40.455)">
        <g id="Group_3357" data-name="Group 3357" transform="translate(0 0)">
          <ellipse id="Ellipse_263" data-name="Ellipse 263" cx="1" cy="0.5" rx="1" ry="0.5" transform="translate(-0.152 0.294)" fill="#f8a49c"/>
        </g>
      </g>
      <g id="Group_3360" data-name="Group 3360" transform="translate(41.307 51.513)">
        <g id="Group_3359" data-name="Group 3359" transform="translate(0 0)">
          <circle id="Ellipse_264" data-name="Ellipse 264" cx="0.676" cy="0.676" r="0.676" fill="#f8a49c"/>
        </g>
      </g>
      <g id="Group_3362" data-name="Group 3362" transform="translate(34.319 46.408)">
        <g id="Group_3361" data-name="Group 3361" transform="translate(0 0)">
          <circle id="Ellipse_265" data-name="Ellipse 265" cx="0.5" cy="0.5" r="0.5" transform="translate(-0.004 0.341)" fill="#f8a49c"/>
        </g>
      </g>
      <g id="Group_3364" data-name="Group 3364" transform="translate(41.673 37.653)">
        <g id="Group_3363" data-name="Group 3363" transform="translate(0 0)">
          <ellipse id="Ellipse_266" data-name="Ellipse 266" cx="1" cy="0.5" rx="1" ry="0.5" transform="translate(-0.359 0.095)" fill="#f8a49c"/>
        </g>
      </g>
      <g id="Group_3366" data-name="Group 3366" transform="translate(21.511 40.222)">
        <g id="Group_3365" data-name="Group 3365" transform="translate(0 0)">
          <path id="Path_3621" data-name="Path 3621" d="M246.758,103.092a1.345,1.345,0,0,0-.851-.48.677.677,0,0,0-.195,1.339l-1.207,1.176a.676.676,0,0,0-.195.6l.285,1.661h0c-1.987-1.046-1.638-1.039-3.61,0h0l.285-1.661a.678.678,0,0,0-.194-.6l-1.208-1.176,1.669-.243a.677.677,0,0,0,.509-.37l.747-1.512.294.6a.677.677,0,1,0,1.214-.6l-.295-.6a1.354,1.354,0,0,0-2.427,0l-.588,1.192c-1.342.195-1.762.168-2.168.671a1.354,1.354,0,0,0-.307.863c-.005.7.4.96,1.361,1.893l-.225,1.311a1.347,1.347,0,0,0,.39,1.2,1.354,1.354,0,0,0,.945.385c.422,0,.571-.127,1.8-.776h0l1.177.619a1.354,1.354,0,0,0,1.982-1.193,1.33,1.33,0,0,0-.02-.233l-.225-1.311.952-.928A1.351,1.351,0,0,0,246.758,103.092Z" transform="translate(-238.511 -100.475)" fill="#f8a49c"/>
        </g>
      </g>
      <g id="Group_3368" data-name="Group 3368" transform="translate(0 48.97)">
        <g id="Group_3367" data-name="Group 3367" transform="translate(0)">
          <path id="Path_3622" data-name="Path 3622" d="M45.5,203.354h-9l.321-.313a1.524,1.524,0,0,0-.844-2.6l-1.737-.253-.777-1.574a1.524,1.524,0,0,0-2.732,0l-.777,1.574-1.737.253a1.524,1.524,0,0,0-.844,2.6l.321.313H25.27a1.351,1.351,0,0,0-.388-1.094l-3.826-3.826a1.354,1.354,0,0,0-1.913,0l-2.354,2.354-2.593-2.593a2.48,2.48,0,0,0-4.149,1.112l-1.356,5.061A3.36,3.36,0,0,0,6.9,206.156L1.84,207.512a2.48,2.48,0,0,0-1.112,4.15l2.593,2.593L.967,216.609a1.352,1.352,0,0,0,0,1.913l3.826,3.827a1.354,1.354,0,0,0,1.913,0l17.641-17.642H44.825v16.009a.68.68,0,0,1-.676.676H21.33a.68.68,0,0,1-.676-.676v-8.627a.676.676,0,0,0-1.353,0v8.629a2.029,2.029,0,0,0,2.029,2.029H44.148a2.029,2.029,0,0,0,2.029-2.029V204.03A.678.678,0,0,0,45.5,203.354Zm-34.149-3.7a1.127,1.127,0,0,1,1.886-.505l2.593,2.593L12.7,204.871l.816-3.046a.676.676,0,1,0-1.307-.35l-.786,2.932a3.358,3.358,0,0,0-1.266-.308Zm-1.911,5.876a2.02,2.02,0,0,1,2.047.555l-2.867,2.867A2.029,2.029,0,0,1,9.441,205.532ZM1.684,210.7a1.127,1.127,0,0,1,.505-1.886l4.443-1.19a3.361,3.361,0,0,0,.307,1.267l-2.932.786a.676.676,0,0,0,.35,1.307l3.046-.816L4.277,213.3ZM5.75,221.392l-3.826-3.826,2.833-2.833h0l12.51-12.51h0L20.1,199.39l3.827,3.826Zm30.125-19.32-1.315,1.282H29.628c-1.414-1.378-1.4-1.318-1.358-1.457s-.021-.093,2.227-.42a.676.676,0,0,0,.509-.37c1.009-2.044.941-1.988,1.087-1.988s.079-.055,1.087,1.988a.676.676,0,0,0,.509.37l2.089.3A.17.17,0,0,1,35.875,202.072Z" transform="translate(0 -197.466)" fill="#f8a49c"/>
        </g>
      </g>
    </g>
  </g>
</svg>
