<svg xmlns="http://www.w3.org/2000/svg" width="62.572" height="57.671" viewBox="0 0 62.572 57.671"><defs><style>.a{fill:#b3e59f;}.b{fill:#78c2a4;}.c{fill:#d62d2d;}.d{fill:#9e1219;}.e{fill:#ffd039;}.f{fill:#f4b70c;}.g{fill:#ffdf65;}.h{fill:#ffcd2c;}</style></defs><path class="a" d="M70.513,30.388c-.363-.46-8.974-11.254-15.772-10.316-2.41.333-4.267,2.027-5.517,5.035-1.725,4.15-1.869,7.524-.426,10.026A8,8,0,0,0,54.3,38.772a.915.915,0,0,0,.12.008H69.792a.918.918,0,0,0,.918-.918V30.957A.918.918,0,0,0,70.513,30.388Z" transform="translate(-41.959 -20.014)"/><path class="a" d="M297.7,25.107c-1.251-3.008-3.107-4.7-5.517-5.035-6.8-.938-15.409,9.856-15.772,10.316a.919.919,0,0,0-.2.569v6.9a.918.918,0,0,0,.918.918H292.5a.917.917,0,0,0,.12-.008,8,8,0,0,0,5.506-3.639C299.572,32.63,299.429,29.257,297.7,25.107Z" transform="translate(-242.397 -20.014)"/><path class="b" d="M69.8,98.654H54.43a.919.919,0,0,1-.12-.008A8,8,0,0,1,48.8,95.007a7.142,7.142,0,0,1-.764-1.952,8.824,8.824,0,0,0,.764,6.176,8,8,0,0,0,5.506,3.639.92.92,0,0,0,.12.008H69.8a.918.918,0,0,0,.918-.918V97.735A.918.918,0,0,1,69.8,98.654Z" transform="translate(-41.966 -84.112)"/><path class="b" d="M298.13,95.007a8,8,0,0,1-5.506,3.639.916.916,0,0,1-.12.008H277.135a.918.918,0,0,1-.918-.918v4.224a.918.918,0,0,0,.918.918H292.5a.915.915,0,0,0,.12-.008,8,8,0,0,0,5.506-3.639,8.824,8.824,0,0,0,.764-6.176A7.139,7.139,0,0,1,298.13,95.007Z" transform="translate(-242.397 -84.112)"/><path class="c" d="M227.645,101.886h-6.9a.918.918,0,0,0-.918.918v6.905a.918.918,0,0,0,.918.918h6.9a.918.918,0,0,0,.918-.918V102.8A.918.918,0,0,0,227.645,101.886Z" transform="translate(-192.907 -91.862)"/><path class="d" d="M219.823,138.781v3.306a.918.918,0,0,0,.918.918h6.9a.918.918,0,0,0,.918-.918v-3.306Z" transform="translate(-192.908 -124.239)"/><path class="e" d="M90.265,232.366H38.808a.918.918,0,0,0-.918.918v26.761a4,4,0,0,0,3.991,3.991H87.192a4,4,0,0,0,3.991-3.991V233.284A.918.918,0,0,0,90.265,232.366Z" transform="translate(-33.251 -206.366)"/><path class="f" d="M90.265,232.366H38.808a.918.918,0,0,0-.918.918v3.945H91.183v-3.945A.918.918,0,0,0,90.265,232.366Z" transform="translate(-33.251 -206.366)"/><path class="g" d="M61.653,158.281H.918A.918.918,0,0,0,0,159.2v9.071a.918.918,0,0,0,.918.918H61.653a.918.918,0,0,0,.918-.918V159.2A.918.918,0,0,0,61.653,158.281Z" transform="translate(0 -141.352)"/><path class="h" d="M0,212.865v3.306a.918.918,0,0,0,.918.918H61.653a.918.918,0,0,0,.918-.918v-3.306Z" transform="translate(0 -189.252)"/><path class="b" d="M220.935,158.281h-9.081a.918.918,0,0,0-.918.918v38.9a.918.918,0,0,0,.918.918h9.081a.918.918,0,0,0,.918-.918V159.2A.918.918,0,0,0,220.935,158.281Z" transform="translate(-185.109 -141.352)"/><path class="a" d="M268.909,158.281H265.6v40.741h3.306a.918.918,0,0,0,.918-.918V159.2A.918.918,0,0,0,268.909,158.281Z" transform="translate(-233.083 -141.352)"/></svg>