<svg xmlns="http://www.w3.org/2000/svg" xmlns:xlink="http://www.w3.org/1999/xlink" width="799.243" height="238.397" viewBox="0 0 799.243 238.397">
  <defs>
    <linearGradient id="linear-gradient" x1="0.563" y1="0.352" x2="1.135" y2="0.356" gradientUnits="objectBoundingBox">
      <stop offset="0" stop-color="#f9df89"/>
      <stop offset="1" stop-color="#f6cd51"/>
    </linearGradient>
    <linearGradient id="linear-gradient-2" x1="0.286" y1="0.333" x2="1.135" y2="0.356" xlink:href="#linear-gradient"/>
    <clipPath id="clip-path">
      <rect id="Rectangle_995" data-name="Rectangle 995" width="799" height="237" rx="30" transform="translate(0 0.236)" fill="url(#linear-gradient)"/>
    </clipPath>
    <clipPath id="clip-path-2">
      <rect id="Background" width="554.271" height="416.049" stroke-width="2" fill="#01002d" stroke="#89f98d" stroke-miterlimit="10" transform="translate(0 0)"/>
    </clipPath>
    <clipPath id="clip-path-3">
      <rect id="Rectangle_1013" data-name="Rectangle 1013" width="799" height="238" rx="25" fill="url(#linear-gradient-2)"/>
    </clipPath>
    <clipPath id="clip-path-4">
      <path id="Shape" d="M0,0H126.474V117.693a31.642,31.642,0,0,1-31.619,31.666,31.642,31.642,0,0,0-31.619,31.666v38.228A63.285,63.285,0,0,1,0,282.585Z" fill="#218e3e"/>
    </clipPath>
    <clipPath id="clip-path-5">
      <ellipse id="Shape-2" data-name="Shape" cx="60.218" cy="60.199" rx="60.218" ry="60.199" fill="#75cbb3"/>
    </clipPath>
  </defs>
  <g id="Group_3351" data-name="Group 3351" transform="translate(-198 -263)">
    <path id="Path_2308" data-name="Path 2308" d="M19.1,0H780.14a19.1,19.1,0,0,1,19.1,19.1V218.531a19.1,19.1,0,0,1-19.1,19.1H19.1A19.1,19.1,0,0,1,0,218.531V19.1A19.1,19.1,0,0,1,19.1,0Z" transform="translate(198 263.764)" fill="#58b852"/>
    <path id="Path_1664" data-name="Path 1664" d="M751.865,0" transform="translate(152.055 344.27)" fill="none" stroke="#e4ecf0" stroke-width="1" stroke-dasharray="5"/>
    <g id="Mask_Group_20" data-name="Mask Group 20" transform="translate(198 263.764)" opacity="0.692" clip-path="url(#clip-path)">
      <g id="Mask_Group_16" data-name="Mask Group 16" transform="translate(259.028 -158.55)" clip-path="url(#clip-path-2)">
        <g id="Whangaehu" transform="translate(-50.577 -138.568)">
          <path id="Shape-3" data-name="Shape" d="M415.413,298.582c.037,9.784,14.959,20.786,21.333,26.458,12.6,11.219,25.711,21.579,38.7,32.1s26.008,21.023,38.391,32.578c8.041,7.5,17.488,15.95,22.941,26.661,11.617,22.826-25.01,19.436-34.5,19.936-24.135,1.275-51.819.693-74.442,12.58-13.505,7.1-18.89,19-15.99,36.342.935,5.641,3.7,12.132,1.358,17.627-2.5,5.869-8.263,9.256-13.042,11.527-17.434,8.274-37.479,9.233-55.926,10.272-19.891,1.141-39.969.807-59.719.9-8.375.037-17.121,3.709-25.1,6.694-10.455,3.912-20.786,8.306-31.155,12.554-22.81,9.324-46.315,19.145-70.448,21.513-15.113,1.484-31.631-.522-43.372-13.427-5.895-6.48-8.98-16.112-12.388-24.669-4.125-10.337-8.087-20.774-12.479-30.949-14.148-32.769-34.347-64.791-67.133-66.4-4.96-.243-9.831.548-14.767.7-3.144.091-5.942-.836-7.11-4.85-2.938-10.069,6.3-25.964,10.083-33.953,8.291-17.487,17.64-34.19,26.4-51.327,5.794-11.333,15.824-26.82,15.929-40.59.093-12.269-13.276-21.137-20.555-27.18C25.6,268.015,13.246,260.1,12.5,248.587c-.362-5.581,2.653-10.206,5.8-13.8,5.518-6.277,11.876-10.705,16.841-17.867,8.141-11.75,14.943-27.916,13.837-43.749-.767-10.971-5.895-18.155-12.418-25.023-2.742-2.887-4.967-4.93-5.112-9.618-.234-7.444,2.155-15.322,4.123-22.224,7.04-24.7,17.039-48.585,28.163-70.886C69.291,34.282,75.3,23.171,82.665,13.664,87.492,7.421,94-.009,101.364,0c8.524,0,17.544,3.755,25.83,6.562C142.67,11.81,157.958,17.875,173.186,24.1q52.824,21.6,104.655,46.69c24.339,11.8,49.194,23.625,72.077,39.317a82.793,82.793,0,0,1,12.58,10.731c4.172,4.26,9.349,6.166,14.6,7.587,32.583,8.819,68.279,2.049,101-2.2,8.3-1.076,16.609-2.157,24.937-2.91,7.159-.648,15.73-2.505,22.689.285,13.711,5.492,1.725,25.736-3.342,33.985-17.841,29.043-40.859,53.615-62.195,78.7-10.144,11.946-20.365,23.862-29.958,36.484C425.23,279.334,415.38,290,415.413,298.582Z" transform="translate(655.771 566.742) rotate(180)" fill="none" stroke="#89f98d" stroke-miterlimit="10" stroke-width="5"/>
          <path id="Shape-4" data-name="Shape" d="M391.251,282.564c5.469,10.353,15.063,18,23.027,25.206C425.739,318.136,437.56,327.927,449.2,338c11.009,9.526,22.042,19.159,32.238,29.977,6.217,6.6,14.017,14.485,16.962,24.242,6.388,21.147-27.976,17.939-36.46,18.492-21.09,1.369-45,1.683-64.513,12.817-12.184,6.953-17.189,18.484-14.59,34.492.9,5.539,2.517,10.267.468,15.777-2.369,6.377-7.819,10.353-12.815,13.159-15.65,8.793-34.149,10.661-51.113,12.215-17.526,1.606-35.786,2.738-52.748,1.563-6.783-.468-14.59,2.187-21.3,4.224-10.329,3.137-20.552,6.756-30.83,10.122-20.887,6.845-42.316,13.438-64.045,14.189-15.687.542-32.044-2.4-45.1-13.749-13.227-11.513-19.1-29.361-26.43-46.327-12.668-29.333-29.777-65-59.084-71.194-4.444-.941-8.715-.431-13.154-.662-2.283-.117-4.881-.488-6.039-3.234-3.006-7.13,5.23-20.166,8-25.628,7.658-15.093,16.267-29.447,24.292-44.248,6.374-11.753,14.452-24.812,16.918-38.744,2.992-16.906-16.555-28.936-23.429-40.84C14.515,224,37.093,212.237,48.224,202.395,61.007,191.1,71.558,170.481,60.1,153c-4.383-6.685-9.777-10.669-11.735-19.393C45.3,119.962,47.619,104.37,50.1,90.883A267.77,267.77,0,0,1,67.818,32.229C73.586,19.11,83.154-1.461,97.167.082,106.6,1.112,116.19,4.873,125.375,8.2c13.753,4.977,27.333,10.649,40.841,16.541C197.4,38.3,228.233,53.26,258.464,69.71c20.627,11.228,78.166,57.113,82.5,58.751,12.909,4.877,27.586,4.018,40.894,3.263,17.7-1,35.318-3.6,52.919-6.015,8.378-1.141,16.8-2.535,25.221-3.1,5.995-.4,13.868-.742,19.119,3.511,10.249,8.3-1.169,27.279-5.892,35.31-14.466,24.621-32.766,45.942-49.925,67.743-8.42,10.7-16.969,21.39-24.613,32.952C395.6,266.8,387.871,276.17,391.251,282.564Z" transform="translate(637.758 549.074) rotate(180)" fill="none" stroke="#89f98d" stroke-miterlimit="10" stroke-width="5"/>
          <path id="Shape-5" data-name="Shape" d="M367.058,257.735c14.934,20.717,35.547,36.125,53.337,53.427,8.929,8.687,17.914,17.61,25.615,27.957,4.006,5.38,9.008,12.184,9.78,19.684,2.063,20.063-28.91,17.35-38.18,18.112-17.923,1.478-38.171,2.6-54.431,12.837-9.934,6.259-14.827,16.532-12.97,30.034.823,5.991,2.1,11.08,0,16.963-2.133,5.959-6.576,10.164-11.076,13.317-12.93,9.066-29,11.965-43.557,14.124a288.7,288.7,0,0,1-51.48,2.938c-15.061-.482-30.049,4.941-44.754,8.515-19.481,4.733-39.314,8.866-59.249,8.242-15.744-.5-31.611-4.4-45.07-14.76-13.676-10.555-21.9-26.354-29.312-43.4-11.207-25.772-25.173-60.307-49.759-70.1-3.576-1.426-6.908-1.583-10.6-1.831-1.791-.12-4.1-.157-4.993-2.436-2.137-5.489,5.765-16.13,7.97-19.838,7.039-11.839,14.67-23.145,21.885-34.827,6.735-10.906,14.071-22.272,18.255-35.052,6.658-20.354-14.628-32.256-14.032-51.652.372-12.042,9.822-20.677,17.306-26.651,9.214-7.346,22.481-12.176,27.093-25.581,3.435-9.985-1.955-15.8-6.106-23.373-7.035-12.837-7.514-30.239-6.782-45.1A208.594,208.594,0,0,1,77.36,30.372C80.334,22,83.978,13.3,89.343,6.8,94.368.712,99.125-.849,105.842.4c20.561,3.823,41.321,14.478,61.038,23.995a755.55,755.55,0,0,1,72.906,40.016c16.162,10.13,32.689,20.848,46.875,34.844,3.7,3.649,7.484,7.614,10.187,12.427,2.044,3.617,2.912,6.6,6.356,8.67,10.21,6.119,24.413,4.519,35.353,3.883,17.493-1.013,34.9-3.709,52.287-6.136,10.145-1.426,29.256-5.914,37.357,4.85,6.992,9.294-1.445,25.141-5.755,33.329-10.9,20.705-24.927,38.877-37.939,57.589-5.963,8.575-12.161,17.216-17.086,26.75-1.258,2.431-3.274,5.651-3.62,8.6C363.412,252.6,365.224,255.181,367.058,257.735Z" transform="translate(621.13 518.936) rotate(180)" fill="none" stroke="#89f98d" stroke-miterlimit="10" stroke-width="5"/>
          <path id="Shape-6" data-name="Shape" d="M342.91,227.97c13.8,18.317,30.425,33.366,45.24,50.507,6.643,7.686,13.351,15.748,18.412,25.124,2.723,5.042,5.614,11.388,4.863,17.655-2.154,17.986-27.628,16.362-37.919,17.415-15.292,1.547-32.86,3.106-46.382,12.8-8.858,6.352-12.179,15.734-10.525,27.833,1.775,12.979-2.194,22.4-11.227,29.64-11.325,9.07-25.621,12.767-38.771,15.394a219.384,219.384,0,0,1-47.935,4.171c-15.608-.365-30.729,2.826-46.234,4.9-20.557,2.749-41.774,4.105-62.1-1.53-17.7-4.908-33.681-15.722-45.664-32.447-12.516-17.455-18.712-39.447-28.874-58.758C29.456,328.636,20.617,312.7,8.773,308.02c-3.951-1.562-11.15.545-7.995-7.137,1.8-4.394,5.178-8.248,7.845-11.84,4.308-5.8,8.759-11.448,13.14-17.173C31.1,259.668,41.1,247.206,48.1,232.758c8.818-18.192-4.29-32.193-2.692-50.638.858-9.927,6.514-17.849,12.5-24.073a102.51,102.51,0,0,1,12.432-10.78c4.517-3.4,9.861-6,13.8-10.395,5.614-6.261,3.176-13.672,2.124-21.766a213.228,213.228,0,0,1-1.212-43.019c1.282-17.584,4.287-35.67,10.619-51.649,2.463-6.221,5.583-12.816,10.217-16.987S115.308-.436,120.617.82c15.748,3.711,31.464,12.348,46.4,20.533a467.085,467.085,0,0,1,54.533,34.725c12.083,8.993,24.206,18.709,34.315,30.9a69.6,69.6,0,0,1,8,11.591c1.553,2.909,2.386,6.663,4.636,8.85,7.04,6.826,21.175,4.788,29.431,4.391,16.478-.791,32.7-4.551,49.153-5.464,8.982-.5,23.048-1.756,29.644,7.577,6.2,8.773.585,22.591-3.122,31.045-7.286,16.622-17.074,31.43-25.848,46.881-3.607,6.358-7.56,13.01-9.9,20.27C335.788,218.591,339.374,223.273,342.91,227.97Z" transform="translate(598.266 493.994) rotate(180)" fill="none" stroke="#89f98d" stroke-miterlimit="10" stroke-width="5"/>
          <path id="Shape-7" data-name="Shape" d="M319.424,196.146c10.984,16.119,24.226,30.427,35.29,46.808,6.476,9.593,17.629,25.721,12.62,39.245-5.495,14.862-24.647,15.266-35.718,16.464-13.176,1.425-28.65,3.373-39.927,12.652a22.542,22.542,0,0,0-7.892,11.931c-1.379,5.474.129,10.263.325,15.743.411,11.495-5.212,20.723-12.653,27.06-10.517,8.96-23.668,13.2-36.089,16.15a181.4,181.4,0,0,1-42.715,4.9c-13.7-.057-27.255.314-40.969.741-17.935.57-36.122-.351-53.519-6.164a94.521,94.521,0,0,1-44.958-32.266c-11.94-15.415-20-34.256-27.052-53.448-4-10.893-10.767-27.172-20.316-32.674-4.246-2.449-8.413-2.281-3.9-8.65,5.686-8.02,13.349-14.454,19.935-21.313,9.5-9.9,19.239-19.99,27.213-31.759a38.241,38.241,0,0,0,7.011-24.537c-.271-7.412-1.5-14.748-.879-22.188,1.456-17.464,12.728-29.441,22.693-40.594,6.411-7.173,12.265-12.644,15.565-22.847,3.9-12.059,5.541-25.179,8.149-37.7,2.865-13.75,6.175-28.053,12.429-40.163C119.636,2.76,126.407-2.075,136.54.83c15.806,4.527,31.385,15.68,45.416,26,14.282,10.5,28.318,22.3,40.153,36.728,6.39,7.791,10.751,16.94,16.425,25.31,7.137,10.508,23.284,6.528,32.88,5.639,15.93-1.477,66.053-12.527,61.428,23.263-1.93,14.939-9.533,28.725-15.093,41.908-2.3,5.471-5.639,12.036-6.161,18.305C311.022,184.808,316.121,191.294,319.424,196.146Z" transform="translate(578.174 462.47) rotate(180)" fill="none" stroke="#89f98d" stroke-miterlimit="10" stroke-width="5"/>
          <path id="Shape-8" data-name="Shape" d="M297.342,167.757c8.394,14.607,18.44,28.407,25.642,44.183,4.672,10.217,9.261,23.869,3.233,34.679-6.8,12.2-21.8,15.043-32.826,16.6-11.356,1.6-24.913,2.947-34.195,12.2a19.213,19.213,0,0,0-5.84,11.678c-.437,4.564.8,9.128.388,13.774a39.24,39.24,0,0,1-12.784,25.266c-19.771,18.446-49.2,22.548-73.053,23.03-11.94.24-24.229-1.018-36.246-1.92-15.594-1.169-31.212-3.68-46.084-9.729-31.62-12.858-52.814-41.376-67.616-76.862-4.658-11.17-8.223-23.255-15.524-32.232-3.764-4.635-2.941-7.964.906-12.191,6.016-6.606,13.354-11.655,20.031-17.168,9.5-7.841,19.2-15.8,27.6-25.192,5.789-6.475,9.9-12.713,11.146-22.422.89-6.923.682-13.977,1.217-20.942,1.019-13.232,4.507-26.364,10.681-37.34A181.44,181.44,0,0,1,90.8,69.017a181.976,181.976,0,0,0,20.444-31.436c7.9-15.42,19-43.864,37.613-36.336C169.38,9.551,188.618,30.655,201.787,51.1c4.422,6.866,8.053,15.286,14.017,20.349,8.929,7.567,17.989,7.3,28.609,7.271,15.9-.043,50.5-4.256,50.873,24.816.147,11.518-3.936,22.408-5.892,33.487C287.189,149.433,291.609,157.8,297.342,167.757Z" transform="translate(561.892 435.449) rotate(180)" fill="none" stroke="#89f98d" stroke-miterlimit="10" stroke-width="5"/>
          <path id="Shape-9" data-name="Shape" d="M277.926,145.669c8.3,19.038,26.921,50.32,12.76,71.49-7.48,11.188-20.71,15.392-31.809,17.9-8.932,2.027-19.7,2.788-26.451,11.379-4.96,6.316-2.758,15.509-4.659,23.416A47.048,47.048,0,0,1,213.344,293.7c-18.59,16.849-44.438,22.019-66.8,23.119-23.225,1.14-48.816-4.193-70.672-14.451-27.25-12.8-47.666-37.023-61.943-67.7C11.294,229,8.9,223.19,6.371,217.458c-1.7-3.845-4.219-7.565-5.559-11.61-2.23-6.744.4-12.257,4.61-16.652,6.059-6.328,13.5-10.831,20.409-15.58,9.446-6.5,19.1-12.881,27.889-20.505,5.9-5.131,12.085-10.658,14.2-19.559a79,79,0,0,0,1.69-18.79c-.112-13.482.467-24.385,5.624-36.733,8.485-20.272,21.533-38.5,35.317-53.667,10.818-11.9,27.935-30.393,43.7-22.435C168.387,9.054,176.66,26.111,185.977,39.9a78.243,78.243,0,0,0,15.6,17.6c7.538,6.011,14.635,8.534,23.567,9.517,15.032,1.656,37.7,2.086,42.346,24.091,1.716,8.121.736,16.532,1.636,24.758C270.3,126.74,273.738,136.066,277.926,145.669Z" transform="translate(548.728 414.664) rotate(180)" fill="none" stroke="#89f98d" stroke-miterlimit="10" stroke-width="5"/>
          <path id="Shape-10" data-name="Shape" d="M257.168,130.068c5.912,20.831,13.679,47.083-.6,65.6-6.917,8.969-16.646,13.982-26.062,17.729-6.744,2.685-17.452,3.476-21.587,11.731-3.037,6.075-3.457,14.456-6.2,20.965a59.682,59.682,0,0,1-16.2,22.089c-17.478,15.035-40.242,20.845-61,22.509-45.107,3.61-91-25.14-115.142-72.44-7.2-14.1-16.487-29.106-4.856-43.511,12.7-15.714,31.827-23.077,46.983-34.242,5.791-4.263,13.17-9.388,16.4-17.107,1.944-4.64,2.077-10.461,2.165-15.569C71.3,94.81,72.181,83.11,76.468,70.971a163.734,163.734,0,0,1,29.139-50.242C116.039,8.368,130.917-6.16,146.068,2.752c11.617,6.848,18.984,21.384,28.011,32.1a73.764,73.764,0,0,0,36.109,23.9c13.271,3.812,27.826,6.383,34.82,22.58a81.332,81.332,0,0,1,5.8,18.9,224.113,224.113,0,0,0,6.356,29.834Z" transform="translate(536.603 399.768) rotate(180)" fill="none" stroke="#89f98d" stroke-miterlimit="10" stroke-width="5"/>
          <path id="Shape-11" data-name="Shape" d="M236.457,108.1c2.735,21.035,3.039,42.968-9.669,59.546-5.931,7.734-13.428,13.229-21.01,18.207-5.578,3.663-11.338,6.753-15.5,12.758-3.86,5.56-6.794,12.017-10.52,17.722a81.508,81.508,0,0,1-17.419,19.386c-16.6,13.206-36.79,19.383-56.107,21.525-9.351,1.041-19.495,1.583-28.783-1.255a115.356,115.356,0,0,1-26.087-12.119A124.788,124.788,0,0,1,7.613,197.582C.06,183.962-4.024,170.719,5.757,156.9c11.027-15.574,28.318-24.167,42.569-34.275C58.1,115.694,69.055,108.9,70.881,94.166c1.454-11.723,2.635-22.849,6.4-33.93A136.752,136.752,0,0,1,101.482,16.7c9.489-11.286,21.494-20.863,35.067-14.835,10.754,4.784,19.1,15.5,28.493,23.166,10.471,8.559,21.975,13.278,34.09,17.072,10.887,3.424,21.138,8.684,28.175,19.854a55.745,55.745,0,0,1,4.063,7.321c1.417,3.258,1.307,6.488,1.585,10.139C233.679,89.051,235.22,98.577,236.457,108.1Z" transform="translate(525.518 377.943) rotate(180)" fill="none" stroke="#89f98d" stroke-miterlimit="10" stroke-width="5"/>
          <path id="Shape-12" data-name="Shape" d="M215.1,83.488c-.234,19.98-4.171,38.862-14.955,54.433-4.61,6.661-10.116,12.147-15.188,18.251a110.414,110.414,0,0,1-12.642,13.548c-11.141,9.6-20.2,22.026-32.036,30.575-15.805,11.43-33.91,17.748-51.875,20.274a90.918,90.918,0,0,1-26.708.271c-7.622-1.2-14.922-5.4-21.694-9.7-13.272-8.424-26.159-20.4-34.777-35.545-19-33.4,18.46-57.676,37.686-71.9,8.842-6.541,22.353-14.116,25.975-27.072,2.589-9.256,4.166-18.668,7.5-27.638C85.347,24.9,103.529-3.432,127.758.34c10.368,1.612,19.818,8.158,29.5,12.553,9.966,4.526,20.252,7.05,30.611,9.818,9.681,2.586,17.4,6.267,23.65,16.134,2.989,4.712,2.725,10.353,2.991,16.134C214.94,64.474,215.209,74.024,215.1,83.488Z" transform="translate(514.779 351.615) rotate(180)" fill="none" stroke="#89f98d" stroke-miterlimit="10" stroke-width="5"/>
          <path id="Shape-13" data-name="Shape" d="M194.007,61.452c-3.893,30.158-18.349,63.081-39.607,80.6-25,20.6-52.094,37.951-81.969,42.938-13.851,2.313-29.024,3.45-42.093-4.112-9.947-5.752-21.5-14.349-26.974-26.439-13.392-29.573,16.4-53.115,33.368-66.8,9.137-7.365,20.768-14.543,27.655-25.3,4-6.236,6.035-14.486,9.261-21.335C83.424,20.247,99.516,3.506,119.561.512c9.268-1.383,18.6.328,27.8,1.688,9.416,1.392,18.948,2.147,28.305,4.089,7.469,1.551,16.272,4.177,19.023,13.933C198.161,32.514,195.6,49.136,194.007,61.452Z" transform="translate(503.347 327.02) rotate(180)" fill="none" stroke="#89f98d" stroke-miterlimit="10" stroke-width="5"/>
          <path id="Shape-14" data-name="Shape" d="M173.79,50.707c-5.677,28.353-17.7,56.01-37.908,72.937-10.717,8.975-23.158,15.171-35.1,21.293C87.241,151.875,73.1,157.26,58.647,159.931c-17.989,3.328-47.124,6.327-56.522-18.687C-7.2,116.415,16.369,94.44,30.309,81.917c8.937-8.022,18.5-15.385,27.041-24.155,4.63-4.755,8.2-10.248,12.115-15.825,10.829-15.451,26.268-27.683,42-34.212C126.72,1.4,145.588-1.407,161.687.685c6.946.9,11.911,3.933,14.012,12.557C178.61,25.231,176.137,39,173.79,50.707Z" transform="translate(492.608 311.431) rotate(180)" fill="none" stroke="#89f98d" stroke-miterlimit="10" stroke-width="5"/>
          <path id="Shape-15" data-name="Shape" d="M151.9,45.526c-5.64,24.964-17.8,47.765-35.547,62.748-19.889,16.8-45.5,26.129-69.04,30.875-12.512,2.521-39.627,9.356-46-10.206S13.369,90.106,23.98,79.494c12.879-12.86,26.765-25.277,40.634-36.815,12.05-10.032,24.908-20.289,37.96-28.036A124.262,124.262,0,0,1,125.487,3.92C131.325,1.908,138.749-1.094,144.87.4,160.308,4.187,154.6,33.59,151.9,45.526Z" transform="translate(480.137 298.613) rotate(180)" fill="none" stroke="#89f98d" stroke-miterlimit="10" stroke-width="5"/>
          <path id="Shape-16" data-name="Shape" d="M128.5,39.492C116.124,86.7,76.919,109.92,39.171,118.013,30.4,119.892,5.81,126.665.907,112.244-3.844,98.261,11.267,81.679,18.341,73.822c21.921-24.345,49-42.4,74.667-60.277,8.01-5.582,22.458-17.694,32.394-12.107C136.191,7.516,131.062,29.7,128.5,39.492Z" transform="translate(468.359 285.103) rotate(180)" fill="none" stroke="#89f98d" stroke-miterlimit="10" stroke-width="5"/>
          <path id="Shape-17" data-name="Shape" d="M102.313,31.257C91.552,66.024,60.252,85.964,31.475,92.537c-7.048,1.608-24.949,6.616-30.288-3.086-4.94-8.975,6.849-21.979,11.26-27.147C22.267,50.8,33.9,41.319,45.4,32.207c10.63-8.43,21.375-17.071,32.56-24.2C83.852,4.253,94.9-3.755,101.6,2.04,108.8,8.274,104.7,23.537,102.313,31.257Z" transform="translate(454.848 267.782) rotate(180)" fill="none" stroke="#89f98d" stroke-miterlimit="10" stroke-width="5"/>
          <path id="Shape-18" data-name="Shape" d="M71.718,21.669c-8.2,22.7-30.169,37.447-49.547,42.346C16.957,65.331,5.688,68.743,1.289,62.68-2.76,57.1,3.766,48.91,6.662,45.129,19.5,28.371,38.3,13.4,55.522,4.209,59.853,1.9,67.638-2.639,72.093,2.027,76.662,6.817,73.6,16.456,71.718,21.669Z" transform="translate(438.22 248.036) rotate(180)" fill="none" stroke="#89f98d" stroke-miterlimit="10" stroke-width="5"/>
          <path id="Shape-19" data-name="Shape" d="M38.194,10.767c-4.622,11.274-16.7,19.78-26.707,22.487-7.042,1.9-15.507.259-9.369-9.554,6.1-9.739,17.409-18.633,27-22.577C36.429-1.883,42.163,1.083,38.194,10.767Z" transform="translate(419.514 227.597) rotate(180)" fill="none" stroke="#89f98d" stroke-miterlimit="10" stroke-width="5"/>
          <path id="Shape-20" data-name="Shape" d="M223.491,142.266c.3,22.273,9.994,45.421,5.2,68.116-3.933,18.639-23.732,20.2-35.61,28.64-9.439,6.709-14.8,18.594-19.9,30-4.586,10.237-8.706,20.783-13.537,30.852-3.128,6.51-8.5,19.292-15.281,19.523-6.493.222-12.447-9.739-16.219-15.627-4.918-7.675-9.278-15.858-14.053-23.656-8.048-13.153-17.7-22.889-28.76-32.1q-18.873-15.727-38.369-30.379c-9.57-7.214-19.2-14.373-28.4-22.3-5.77-4.973-18.5-14.3-18.563-23.473-.028-4.375,3.368-9.22,5.658-12.717a178.215,178.215,0,0,1,12.72-16.627c8.251-9.864,16.852-19.281,25.359-28.811,11.042-12.369,21.59-24.536,31.3-38.578,10.036-14.535,19.625-29.549,29.409-44.358,6.626-10.032,13.246-21.3,22.8-27.455,11.971-7.7,21.8.419,33.9.513,10.414.083,9.647,29.541,10.97,37.732,1.328,8.291,4.255,16.009,5.389,24.32,1.414,10.374,1.433,20.988,1.781,31.473.422,12.825.59,25.035,11.82,29.926,6.391,2.779,13.3,3.363,19.919,5.028C215.315,133.383,223.4,135.23,223.491,142.266Z" transform="translate(230.022 437.181) rotate(180)" fill="none" stroke="#89f98d" stroke-miterlimit="10" stroke-width="5"/>
          <path id="Shape-21" data-name="Shape" d="M206.939,124.751c1.092,18.67,7.541,42.567,1.442,61.84-5.21,16.47-21.506,18.6-32.478,27.256-9.058,7.136-13.09,18.813-17.618,30.285-3.633,9.2-7.155,18.494-11.279,27.4-3.039,6.565-7.679,17.649-14,19.007-5.68,1.222-11.772-8.563-14.96-13.541-4.652-7.267-8.63-15.16-12.74-22.886-7.221-13.573-14.614-25.778-25.183-35.748-10.615-10.013-22.228-17.5-33.965-25.293-9.182-6.1-18.317-12.371-27.041-19.41C12.622,168.422,3.278,161.715.3,152.369c-2.354-7.393,9.584-19.661,13.1-23.991,7.246-8.9,14.925-17.26,22.618-25.567C45.406,92.69,55.084,83.839,63.366,72.293,78.179,51.65,90.561,25.944,109.621,10.6c11.5-9.254,24.29-11.62,37.076-10.236,5.063.548,6.279,9.274,6.917,14.363,1.061,8.455,1.195,17.055,2.01,25.544.764,7.947,2.461,15.5,3.829,23.289,1.384,7.9,1.772,15.984,2.791,23.934.631,4.935,1.255,10.678,4.016,14.646,2.857,4.107,7.569,5.829,11.688,7.136C185.684,111.709,206.168,111.575,206.939,124.751Z" transform="translate(218.59 415.703) rotate(180)" fill="none" stroke="#89f98d" stroke-miterlimit="10" stroke-width="5"/>
          <path id="Shape-22" data-name="Shape" d="M183.029,102.081c1.836,17.138,4.406,38.484-3.073,54.273-6.113,12.911-19.152,15.7-28.465,24.108-7.746,7-10.672,18.122-14.517,28.461-3.155,8.481-6.326,17-10.15,25.069-2.9,6.12-6.637,14.419-12.4,16.554-4.923,1.824-10.485-6.348-13.214-10.416-4.647-6.933-8.436-14.7-12.2-22.366C82.86,205.221,77.2,191.823,68.435,181.62c-8.513-9.9-18.626-15.744-28.928-22.315A253.3,253.3,0,0,1,16.34,143.039C10.631,138.433,3.556,132.974.581,125.308c-2.573-6.611,4.032-14.436,7.332-19.1,5.449-7.7,11.5-14.758,17.461-21.847,6.436-7.648,13.565-14.7,19.793-22.54,13.1-16.491,23.56-34.749,39.7-47.383C95.324,6.254,109.391-1.18,121.749.157c8.887.964,8.3,24.972,9.156,32.643a160.216,160.216,0,0,0,8.419,37.275c3.7,9.9,12.484,12.953,20.567,15.174,5.063,1.394,10.37,2.147,15.267,4.3C180.828,92.047,182.259,94.9,183.029,102.081Z" transform="translate(201.27 385.218) rotate(180)" fill="none" stroke="#89f98d" stroke-miterlimit="10" stroke-width="5"/>
          <path id="Shape-23" data-name="Shape" d="M155.75,77.9c1.093,14.489.847,31.623-6.233,44.157-6.205,10.979-17.253,13.869-25.111,22.517-6.133,6.747-8.541,17.749-11.839,26.672-4.031,10.91-9.679,31.06-19.847,35.166-9.459,3.817-19.351-20.565-22.775-27.835-5.421-11.507-9.955-24.127-16.53-34.754-5.662-9.149-13.248-14.206-21.3-19.641C21.847,117.237,6.26,109.006.771,95.478-3.32,85.4,9.984,70.41,14.528,63.425c4.752-7.3,8.331-15.945,13.234-22.983C35.5,29.335,48.04,20.392,58.393,13.567,68.458,6.929,81.528-.419,92.946.019c7.5.286,8.932,14.432,10.533,21.342,2.294,9.824,5.344,18.626,11.9,25.308,6.669,6.8,14.529,10.006,22.792,12.811,4.241,1.429,9.08,2.545,12.874,5.432C155.233,68.054,155.329,72.328,155.75,77.9Z" transform="translate(180.138 353.001) rotate(180)" fill="none" stroke="#89f98d" stroke-miterlimit="10" stroke-width="5"/>
          <path id="Shape-24" data-name="Shape" d="M127.822,57.5c-.061,12.518-2.405,25.866-9.358,35.522-5.791,8.043-14.855,10.731-20.4,18.953-4.391,6.509-6.626,15.647-9.566,23.206-3.6,9.263-8.679,25.445-17.62,28.66-8.726,3.129-16.444-14.694-19.79-21.747-4.9-10.341-8.866-21.3-13.81-31.616-3.873-8.091-8.609-13.306-14.916-18.521C14.962,85.829,4.633,79.044.678,68.91c-2.851-7.337,4.05-19.061,6.556-25.525A72.952,72.952,0,0,0,11.3,29.929c.658-3.664.723-7.055,2.629-10.2,4.8-7.915,15.322-8.947,22.461-11.556C45.869,4.708,55.929.774,65.852.023c6.1-.469,9.211,6.39,12.692,11.215,4.113,5.7,9.937,9.807,15.023,14.111,6.712,5.69,14.017,9.229,21.574,12.853,3.409,1.636,7.412,3.24,10.053,6.492C127.953,48.065,127.843,52.979,127.822,57.5Z" transform="translate(159.699 324.248) rotate(180)" fill="none" stroke="#89f98d" stroke-miterlimit="10" stroke-width="5"/>
          <path id="Shape-25" data-name="Shape" d="M104.021,47.953c-1.205,10.513-4.961,20.561-11.3,27.993-4.863,5.706-11.32,8.918-15.223,15.774-3.636,6.391-6.17,13.657-9.174,20.49-3.179,7.224-7.9,19.3-15.232,21.263-7.9,2.117-13.987-10.062-17.358-16.813-4.258-8.53-7.492-17.708-11.3-26.533A75.518,75.518,0,0,0,13.579,72.283C9.041,66.746,2.887,61.442.591,53.827c-2.03-6.744,1.768-14.9,2.438-21.743.717-7.306-.54-14.981,3.436-21.255C14.662-2.108,35.236.291,47,.015,58.6-.271,67.933,7.646,77.324,15.178c6.2,4.973,12.663,9.184,19.023,13.817C102.83,33.723,105.082,38.7,104.021,47.953Z" transform="translate(143.764 307.274) rotate(180)" fill="none" stroke="#89f98d" stroke-miterlimit="10" stroke-width="5"/>
          <path id="Shape-26" data-name="Shape" d="M87.013,46.349C83.449,61.58,72.319,69.675,64.361,81.185,57.851,90.608,52.969,110.121,42,112.7c-12.449,2.93-19.9-22.926-24.229-32.9C12.972,68.736,4.419,59.735.863,48.023c-1.87-6.148-.264-11.884.731-18.029,1.091-6.747,1.912-13.646,5.679-19.077C14.688.229,29.17.3,39.6.009,50.4-.3,59.947,7.028,68.549,14.338,77.673,22.079,90.664,30.73,87.013,46.349Z" transform="translate(134.064 299.653) rotate(180)" fill="none" stroke="#89f98d" stroke-miterlimit="10" stroke-width="5"/>
          <path id="Shape-27" data-name="Shape" d="M72.73,43.551c-4.016,10.851-12.454,19.673-19.3,28C47.713,78.495,41.565,92.471,32.85,93.468,22.609,94.643,16.4,79.718,12.372,70.567,8.405,61.575,2.69,52.08.494,42.211-1.8,31.93,4.3,18.084,10.119,10.81,16.606,2.7,27.22-.3,36.327.023c9.536.329,18.285,7.034,25.507,13.988C69.555,21.445,77.4,30.954,72.73,43.551Z" transform="translate(125.75 292.724) rotate(180)" fill="none" stroke="#89f98d" stroke-miterlimit="10" stroke-width="5"/>
          <path id="Shape-28" data-name="Shape" d="M58.531,39.358C54.7,48.384,48.046,56.019,41.915,62.829c-4.731,5.258-11.713,14.2-18.539,14.417C15.868,77.487,9.5,69.983,6.518,62.292,3.575,54.7.475,45.193.034,36.87-.923,18.745,18.554-1.558,33.178.095,47.045,1.661,66.179,21.376,58.531,39.358Z" transform="translate(117.09 286.489) rotate(180)" fill="none" stroke="#89f98d" stroke-miterlimit="10" stroke-width="5"/>
          <path id="Shape-29" data-name="Shape" d="M45.788,34.118C40.5,45.877,27.642,62.642,15.742,63.04,2.083,63.5-1.346,44.839.434,31.32,2.243,17.521,17.991-2.451,30.548.247,42.8,2.881,52.059,20.172,45.788,34.118Z" transform="translate(109.468 280.253) rotate(180)" fill="none" stroke="#89f98d" stroke-miterlimit="10" stroke-width="5"/>
          <path id="Shape-30" data-name="Shape" d="M34.49,27.705c-4.48,9.846-14.041,22.144-24.013,22.516C-1.4,50.662-1.18,34.911,1.514,25.108,4.316,14.93,16.655-2.455,27.059.29,37.175,2.97,38.784,18.269,34.49,27.705Z" transform="translate(103.579 271.939) rotate(180)" fill="none" stroke="#89f98d" stroke-miterlimit="10" stroke-width="5"/>
          <path id="Shape-31" data-name="Shape" d="M23.891,19.832C20.933,26.857,13.532,35.737,6.5,36.021c-8.6.342-6.929-12.151-4.707-18.181C4.43,10.665,13.283-1.8,20.713.219,28.028,2.207,26.33,14.043,23.891,19.832Z" transform="translate(97.69 262.932) rotate(180)" fill="none" stroke="#89f98d" stroke-miterlimit="10" stroke-width="5"/>
          <path id="Shape-32" data-name="Shape" d="M102.91,97.515c19.036-14.1,40.556-25.731,60.85-37.557,29.656-17.28,59.749-34.1,90.91-46.968,16.707-6.9,38.355-16.847,56.282-11.441,6.554,1.976,12.531,7.952,18.408,11.835,8.1,5.354,16.326,10.443,24.534,15.544,16.466,10.224,32.984,20.345,49.167,31.225,7.793,5.24,15.354,11.84,23.467,16.311,4.741,2.614,10.414,1.391,15.48,1.226,11.734-.385,23.462-1.115,35.189-1.736,14.344-.758,28.722-1.565,43.082-1.266,6.477.137,22.34-1.266,25.906,5.542,1.918,3.666-2.6,10.278-4.7,13.337a173.1,173.1,0,0,1-12.636,15.7c-10.094,11.6-20.814,22.643-29.787,35.6-4.61,6.66-10.65,14.8-7.641,23.889,3.038,9.183,8.3,17.135,11.51,26.287,3.7,10.532,5.229,21.491,6.975,32.659,1.292,8.254,4.3,15.567,7.131,23.176,3.126,8.411,6.365,16.892,8.536,25.762,1.435,5.859,3.75,16.4-1.269,20.108-7.131,5.274-20.5,1-28.633-.55-11.234-2.144-22.387-4.875-33.591-7.227-8.134-1.711-16.3-3.587-24.565-3.786-13.33-.322-26.705.793-40,1.83-24.618,1.922-49.061,4.527-73.762,4.527-21.641,0-71.652-30.555-83.358-35.935-23.366-10.74-47.354-20.921-69.465-35.21-5.982-3.869-15.188-9.024-18.335-16.987-1.942-4.907-1.049-7.743-5.629-10.905-6.248-4.314-14.253-6.007-21.17-7.937-11.139-3.108-22.364-5.739-33.554-8.553-22.632-5.676-45.111-12.1-67.649-18.275-6.814-1.867-15.057-2.281-21.553-5.571-4.187-2.113-3.753-4.773-.512-7.983,5.685-5.634,13.653-8.761,20.368-11.974,9.839-4.707,19.84-8.907,29.845-13.046s20.062-8.151,30.072-12.3C89.428,104.135,96.968,101.914,102.91,97.515Z" transform="translate(581.291 742.03) rotate(180)" fill="none" stroke="#89f98d" stroke-miterlimit="10" stroke-width="5"/>
          <path id="Shape-33" data-name="Shape" d="M74.927,79.83c20.137-14.124,42.489-25.376,64.037-36.354,27.578-14.059,55.78-27.235,84.837-36.023C240.862,2.3,260.991-3.4,278.424,2.516c6.219,2.11,10.865,6.852,16.2,11.038,6.076,4.777,12.387,9.154,18.7,13.462q19.484,13.3,39.38,25.7c7.025,4.394,14.759,10.278,22.7,11.8,6.31,1.213,13.478-.542,19.816-1.054,11.414-.919,22.827-1.867,34.246-2.672,13.177-.928,26.391-1.784,39.6-1.636,7.36.083,19.994-1.285,25.2,4.52,4.541,5.065-11.992,23.383-14.9,26.864-9.08,10.867-18.629,21.214-27.08,32.834-4.994,6.852-11.076,15.186-13.181,24.269-1.793,7.74,1.666,16.56,3.709,23.715,2.554,8.962,4.616,18.253,7.584,27.027,2.643,7.817,6.85,14.781,10.545,21.887,4.064,7.817,8.18,15.763,11.2,24.291,1.849,5.248,4.908,14.036,1.234,19.038-4.244,5.767-17.327,2-22.7,1.176-10.91-1.69-21.735-4.2-32.57-6.453-18-3.735-35.152-7-53.478-6.218-23.864,1.022-47.705,3.426-71.565,4.757-8.811.5-17.762,1.5-26.58.956-5.055-.311-8.9-2.2-11.844-6.447-4.015-5.8-13.263-9.014-19.695-12.343-10.029-5.188-20.183-10.013-30.31-14.9-22.231-10.735-44.889-21.082-65.972-34.967-6.67-4.391-14.308-9.288-19.241-16.543-2.753-4.046-2.059-7.943-3.739-12.243-2.225-5.656-9.54-8.208-13.913-10.059-8.439-3.575-17.225-5.97-25.942-8.214a464.274,464.274,0,0,0-59.543-10.872c-4.7-.571-23.2-2.55-13.48-12.086C13.515,108.6,29.014,103.439,41.651,97.5,53.035,92.161,64.428,87.193,74.927,79.83Z" transform="translate(537.643 721.245) rotate(180)" fill="none" stroke="#89f98d" stroke-miterlimit="10" stroke-width="5"/>
          <path id="Shape-34" data-name="Shape" d="M52.871,59.925c18.928-12.426,39.9-21.7,60.28-30.565C137.888,18.6,163.245,9.006,189.189,3.633c16.3-3.372,34.266-5.964,50.454-.359C250.7,7.1,259.249,17.442,268.959,24.557a256.114,256.114,0,0,0,30.216,19.362c6.457,3.455,13.4,6.936,20.589,6.48,17.47-1.106,34.919-3.743,52.408-5.023,11.569-.855,23.162-1.559,34.767-1.348,7,.125,16.611-.388,22.807,4.1,6.848,4.969-29.615,47.392-33.061,52.167-8.64,11.973-19.1,27.862-17.433,44.889,1.6,16.277,8.523,28.43,16.356,41.183,4.445,7.255,18.7,26.636,13.418,36.072-3.018,5.393-12.966,3.526-17.692,3.159-9.314-.724-18.577-2.281-27.842-3.632-13.509-1.958-27.39-4.983-40.957-5.869-9.447-.616-18.951.208-28.415.225-13.57.023-27.14-.1-40.709-.251-11.394-.125-22.884,0-34.238-1.334-7.059-.821-12.416-2.665-17.479-7.876-4.406-4.533-11.052-7.186-16.667-10.069-9.274-4.758-18.67-9.168-28.036-13.649-19.608-9.384-39.441-18.572-58.21-30.3C90.211,147.5,75.806,140.005,73.8,127.032c-.725-4.678-1.259-6.7-5-9.359-5.313-3.774-11.677-5.476-17.638-6.956-13.9-3.449-28.2-2.933-42.071-6.343-5.65-1.405-13.027-4.438-6.577-11.383,7.527-8.121,18.483-12.586,27.5-17.6a136.642,136.642,0,0,0,13.413-7.9C46.7,65.133,49.513,62.114,52.871,59.925Z" transform="translate(487.758 698.727) rotate(180)" fill="none" stroke="#89f98d" stroke-miterlimit="10" stroke-width="5"/>
          <path id="Shape-35" data-name="Shape" d="M36.757,41.287c17.487-10.093,36.478-17.43,55.128-24.045C112.6,9.9,133.815,3.826,155.31,1.24,170.153-.552,185.967-1.08,200.373,4.4c9.11,3.469,15.286,10.764,23.126,16.882,11.831,9.247,24.632,16.573,38.847,14.79q23.9-2.992,47.964-4.489a275.784,275.784,0,0,1,29.075-.634c6.125.263,14.016.706,19.344,4.092,7.129,4.535-19.65,39.041-22.988,44.071a121.713,121.713,0,0,0-17.893,41.013c-2.892,12.61,3.016,22.522,9.11,31.955,3.789,5.858,16.031,20.591,12.2,28.2-2.1,4.195-9.031,3.978-12.752,4.192-7.092.406-14.214-.017-21.306-.2-10.472-.286-21.619,1.677-32,.1-23.011-3.5-45.964-6.526-69.118-8.924-12.764-1.32-25.6-2.52-38.253-5.066-4.541-.914-9.232-1.883-13.534-3.952-2.768-1.329-4.277-3.592-6.613-5.449-11.138-8.841-25.677-13.39-38.22-19.056-16.676-7.532-33.441-14.947-49.674-23.845-8.538-4.681-20.463-10.058-26.338-19.611-1.775-2.886-1.018-5.195-2.135-7.969-1.285-3.2-5.188-4.155-7.709-5.046C15.781,83.42-8.165,80.357,2.87,68.473c5.265-5.661,11.974-9.292,17.91-13.742a33.4,33.4,0,0,0,6.036-5.406A33.066,33.066,0,0,1,36.757,41.287Z" transform="translate(435.795 676.21) rotate(180)" fill="none" stroke="#89f98d" stroke-miterlimit="10" stroke-width="5"/>
          <path id="Shape-36" data-name="Shape" d="M35.116,25.564C69.638,9.236,110.095-1.888,147.732.267c12.516.719,25.982,3.12,36.831,11.336,6.4,4.853,11.509,10.331,19.194,12.084,5.548,1.265,11.521-.171,17.1-.691,8.083-.754,16.17-1.427,24.264-1.973,10.035-.665,20.1-1.179,30.156-.9,7.184.2,17.1-.026,23.344,4.684,7.451,5.618-11.514,31.972-14.183,36.668-6.467,11.381-11,22.409-12.64,36.125-.482,4-2.107,8.093-1.9,12.121.22,4.114,2.3,7.776,4.213,11.01,2.507,4.239,11.205,14.293,8.715,19.463-1.376,2.855-6.542,3.214-9.22,3.819-5.023,1.142-10.119,1.756-15.173,2.663-8.574,1.547-17.087,6.586-25.692,6.443-23.138-.377-46.611-9.135-69.286-13.945-13.48-2.869-27.052-5.472-40.368-9.357a68.2,68.2,0,0,1-12.558-4.59c-2.795-1.456-4.59-4.051-7.179-5.681-9.927-6.26-21.343-10.06-32-14.273-13.838-5.481-27.724-10.8-41.466-16.631C21.273,84.98,10.2,81.763,2.774,74.981c-5.421-4.953-1.716-6.434,1.145-11.047,1.461-2.352,1.124-4.67,1.758-7.334.906-3.8,3.467-6.54,5.868-9,3.312-3.4,7.724-6.2,10.433-10.368.955-1.467.911-3.289,1.683-4.567C25.908,28.939,31.87,27.1,35.116,25.564Z" transform="translate(395.957 656.118) rotate(180)" fill="none" stroke="#89f98d" stroke-miterlimit="10" stroke-width="5"/>
          <path id="Shape-37" data-name="Shape" d="M49.649,14.061C77.667,3.8,108.841-2.05,138.457.662c10.3.945,20.672,3.141,30.27,7.964,4.367,2.187,7.645,4.626,12.431,4.757,11.1.3,22.242-.757,33.343-1.011a197.338,197.338,0,0,1,23.854.531c5.3.52,12.466,1.142,16.807,5.109,6.309,5.777-5.08,25.415-7.4,30.84-3.841,9-7.652,19-6.129,29.412.467,3.184,1.294,6,1.4,9.244.1,2.79-.185,5.366.626,8.033,1,3.307,5.461,8.438,3.928,11.482-1.044,2.079-4.143,2.176-6.2,2.841a55.546,55.546,0,0,0-9.758,4.232c-3.318,1.839-6.143,4.68-9.58,6.2-5.58,2.461-11.825,2.693-17.69,2.681-23.4-.046-47.1-5.68-69.906-11.571-11.877-3.067-23.819-6.337-35.362-10.988-3.5-1.414-7.477-2.833-10.559-5.443-1.923-1.625-3.227-3.661-5.411-4.883C64.46,79.659,42.884,75.784,23.073,68.248c-5.157-1.962-33.735-11.874-18.793-21.2,9.078-5.665,18.669-8.241,26.952-15.991,2.523-2.356,4.206-4.306,5.192-7.9.65-2.393-.914-1.179,1.269-3.681C40.34,16.471,46.385,15.257,49.649,14.061Z" transform="translate(373.786 638.797) rotate(180)" fill="none" stroke="#89f98d" stroke-miterlimit="10" stroke-width="5"/>
          <path id="Shape-38" data-name="Shape" d="M51.414,6.621a217.441,217.441,0,0,1,100.861-1.35c8.4,1.871,17.142,1.424,25.645,1.9,8.262.456,22.95-.493,28.951,7.26,4.351,5.62-.37,17.564-2,23.851-2.081,8.009-3.9,16.283-.483,24.062,2,4.556,4.742,8.892,6.889,13.4,1.026,2.155,3.14,5.458,2.259,7.5-1.457,3.368-8.276,4.786-11.584,6.375-10.574,5.077-21.771,6.372-33.077,6.335-20.881-.065-41.87-3.55-62.353-8.277-9.424-2.175-18.979-4.5-28.067-8.277-5.143-2.138-8.936-6.264-13.847-8.71C48.79,62.813,31.8,58.6,15.715,51.4,11.06,49.309-6.33,42.362,2.43,34.17c8.482-7.929,20.853-6.987,29.672-14.447a9.447,9.447,0,0,0,2.812-3.257c.342-.826-.26-2.4,0-2.867C37.623,8.494,47.25,7.683,51.414,6.621Z" transform="translate(346.419 625.287) rotate(180)" fill="none" stroke="#89f98d" stroke-miterlimit="10" stroke-width="5"/>
          <path id="Shape-39" data-name="Shape" d="M41.142,3.845C57.97,1.028,75.169.329,92.281.152c9.354-.1,19.63-.824,28.782,2.067a148.825,148.825,0,0,0,16.847,4.46c6.236,1.208,16.276,2.087,20.073,8.634,2.837,4.892.892,14.949.789,20.9-.11,6.524.986,11.362,4.76,16.031,2.373,2.94,13.259,13.612,12,16.689-1.2,2.931-8.782,3.381-12.062,4.142A130.6,130.6,0,0,1,132.059,76.2a244.466,244.466,0,0,1-48.794-5.725c-6.646-1.451-13.514-2.954-19.862-5.854-4.275-1.955-7.84-5.422-12.087-7.443-12.162-5.8-25.023-9.733-37.227-15.636C10.172,39.643-2.59,34.59.469,26.8,3.02,20.3,11.7,18.324,15.96,13.967,23.212,6.536,31.894,5.39,41.142,3.845Z" transform="translate(314.895 616.972) rotate(180)" fill="none" stroke="#89f98d" stroke-miterlimit="10" stroke-width="5"/>
          <path id="Shape-40" data-name="Shape" d="M25.762,2.731A300.618,300.618,0,0,1,66.317.011C75.058-.015,84.281-.16,92.859,2.238c4.309,1.2,8.054,4.018,12.132,6.025,4.2,2.064,9.995,4.368,11.81,9.1,1.705,4.448,1.069,10.938,2.566,16.3,1.332,4.759,4.12,7.7,7.123,10.915,1.913,2.056,11.737,10.955,10.6,12.92-1.218,2.1-7.118,1.933-10.188,2.224a194.191,194.191,0,0,1-25.43.778,176.051,176.051,0,0,1-34.617-4.38c-8.07-1.939-14.157-6.558-21.681-9.946-9.747-4.4-19.845-7.879-29.5-12.692C10.866,31.089,3.745,28,1.282,21.813.335,19.441-.585,13.407.47,11.034c1.267-2.851,5.982-4.06,8.208-4.793A98.3,98.3,0,0,1,25.762,2.731Z" transform="translate(288.914 612.123) rotate(180)" fill="none" stroke="#89f98d" stroke-miterlimit="10" stroke-width="5"/>
          <path id="Shape-41" data-name="Shape" d="M21.294,2.434C37.981.142,56.836-1.8,73.575,2.809a24.839,24.839,0,0,1,16.259,14.9c1.429,3.888,1.736,8.514,3.871,12.282a51.075,51.075,0,0,0,5.575,7.643c1.117,1.324,8.275,8.575,6.895,9.87-1.457,1.367-5.033.92-7.474.954a164.8,164.8,0,0,1-17.554-.733c-6.7-.625-13.566-1.432-20.067-3.621-5.244-1.776-10.023-5.515-15.13-7.735C32.523,30.484,18.375,25.877,5.77,17.171c-2.682-1.851-7.984-4.621-4.763-8.8C5.016,3.156,16.138,3.139,21.294,2.434Z" transform="translate(271.939 607.273) rotate(180)" fill="none" stroke="#89f98d" stroke-miterlimit="10" stroke-width="5"/>
          <path id="Shape-42" data-name="Shape" d="M15.055,1.368C26.938-.236,40.12-.99,52.05,2.316c6.041,1.673,11.431,5.158,14.062,11.9,1.883,4.808,2.391,10.174,4.964,14.794.911,1.63,4.257,6.205,2.608,7.2-3.53,2.148-11.41-.324-16.308-1.451C50,33.06,43.85,28.28,36.841,25.447,26.091,21.1,12.468,18.78,2.671,11.375-6.772,4.214,11.588,1.838,15.055,1.368Z" transform="translate(251.154 602.076) rotate(180)" fill="none" stroke="#89f98d" stroke-miterlimit="10" stroke-width="5"/>
          <path id="Shape-43" data-name="Shape" d="M8.55.789C18.632-.654,36.563-1.367,42.315,10.245c1.067,2.157,4.014,14.062,1.166,15.124-2.347.872-6.031-.568-8.682-1.915-4.933-2.492-9.561-5.208-14.658-7.265-4.34-1.75-8.784-3.364-13.067-5.4C5.256,9.938,1.84,8.9.7,6.96-2.371,1.732,5.48,1.227,8.55.789Z" transform="translate(231.062 597.573) rotate(180)" fill="#01002d" stroke="#89f98d" stroke-miterlimit="10" stroke-width="2"/>
        </g>
      </g>
    </g>
    <g id="Mask_Group_25" data-name="Mask Group 25" transform="translate(198 263)" clip-path="url(#clip-path-3)">
      <g id="Group_3318" data-name="Group 3318" transform="translate(-0.112 237.335) rotate(-90)" style="isolation: isolate">
        <g id="Oreti" transform="translate(0 0)">
          <path id="Shape-44" data-name="Shape" d="M31.7,0a31.688,31.688,0,0,1,31.7,31.671V184.748a31.688,31.688,0,0,1-31.7,31.671H0V31.671A31.688,31.688,0,0,1,31.7,0Z" transform="translate(0 215.024)" fill="#218e3e"/>
          <path id="Shape-45" data-name="Shape" d="M94.856,391.829H31.618a31.736,31.736,0,0,1-6.7-.714,31.383,31.383,0,0,1-6.21-2.043h89.064a31.383,31.383,0,0,1-6.21,2.043A31.736,31.736,0,0,1,94.856,391.829ZM118.822,380.8H7.652a31.944,31.944,0,0,1-2.235-2.929H121.057a31.954,31.954,0,0,1-2.234,2.929Zm5.871-10.166H1.782a31.66,31.66,0,0,1-1.068-3.791H125.761a31.673,31.673,0,0,1-1.068,3.79Zm1.781-10.338H0v-4.308H126.474v4.124c0,.061,0,.122,0,.183Zm0-9.822H0v-6.031H126.474v6.031Zm0-10.511H0v-6.2H126.474v6.2Zm0-9.994H0v-7.409H126.474v7.409Zm0-10.166H0v-8.443H126.474V319.8Zm0-10.166H0v-9.3H126.474v9.3Zm0-10.338H0V1.815H51.644V0h74.831V299.3Z" transform="translate(0.266 0.089)" fill="#3d2b42"/>
          <g id="Shape-46" data-name="Shape" transform="translate(0.266 0)">
            <path id="Shape-47" data-name="Shape" d="M0,0H126.474V117.693a31.642,31.642,0,0,1-31.619,31.666,31.642,31.642,0,0,0-31.619,31.666v38.228A63.285,63.285,0,0,1,0,282.585Z" transform="translate(0 0)" fill="#218e3e"/>
          </g>
          <g id="Shape-49" data-name="Shape" transform="translate(54.621 131.547)">
            <ellipse id="Shape-50" data-name="Shape" cx="60.218" cy="60.199" rx="60.218" ry="60.199" transform="translate(0 0)" fill="#f5f9e4"/>
            <g id="Shape-51" data-name="Shape" transform="translate(0 0)" clip-path="url(#clip-path-5)">
              <path id="Shape-52" data-name="Shape" d="M126.775,0V356.973a34.462,34.462,0,0,1-34.462,34.462H34.462A34.462,34.462,0,0,1,0,356.973V0Z" transform="translate(60.218 -4.225)" fill="#f2f2f2"/>
              <rect id="Shape-53" data-name="Shape" width="60.218" height="102.445" transform="translate(60.218 59.671)" fill="#218e3e"/>
            </g>
          </g>
          <path id="Shape-54" data-name="Shape" d="M52.9,121.994a1.541,1.541,0,1,1,1.55-1.541A1.547,1.547,0,0,1,52.9,121.994Zm-10.181,0a1.541,1.541,0,1,1,1.549-1.541A1.547,1.547,0,0,1,42.719,121.994Zm-10.182,0a1.541,1.541,0,1,1,1.55-1.541A1.547,1.547,0,0,1,32.537,121.994Zm-10.624,0a1.541,1.541,0,1,1,1.55-1.541A1.547,1.547,0,0,1,21.912,121.994Zm-10.181,0a1.541,1.541,0,1,1,1.549-1.541A1.547,1.547,0,0,1,11.731,121.994Zm-10.182,0a1.541,1.541,0,1,1,1.55-1.541A1.547,1.547,0,0,1,1.549,121.994ZM52.9,111.2a1.541,1.541,0,1,1,1.55-1.541A1.547,1.547,0,0,1,52.9,111.2Zm-10.181,0a1.541,1.541,0,1,1,1.549-1.541A1.547,1.547,0,0,1,42.719,111.2Zm-10.182,0a1.541,1.541,0,1,1,1.55-1.541A1.547,1.547,0,0,1,32.537,111.2Zm-10.624,0a1.541,1.541,0,1,1,1.55-1.541A1.547,1.547,0,0,1,21.912,111.2Zm-10.181,0a1.541,1.541,0,1,1,1.549-1.541A1.547,1.547,0,0,1,11.731,111.2Zm-10.182,0a1.541,1.541,0,1,1,1.55-1.541A1.547,1.547,0,0,1,1.549,111.2ZM52.9,100.413a1.542,1.542,0,1,1,1.55-1.541A1.547,1.547,0,0,1,52.9,100.413Zm-10.181,0a1.542,1.542,0,1,1,1.549-1.541A1.547,1.547,0,0,1,42.719,100.413Zm-10.182,0a1.542,1.542,0,1,1,1.55-1.541A1.547,1.547,0,0,1,32.537,100.413Zm-10.624,0a1.542,1.542,0,1,1,1.55-1.541A1.547,1.547,0,0,1,21.912,100.413Zm-10.181,0a1.542,1.542,0,1,1,1.549-1.541A1.547,1.547,0,0,1,11.731,100.413Zm-10.182,0A1.542,1.542,0,1,1,3.1,98.871,1.547,1.547,0,0,1,1.549,100.413ZM52.9,89.622a1.542,1.542,0,1,1,1.55-1.542A1.547,1.547,0,0,1,52.9,89.622Zm-10.181,0a1.542,1.542,0,1,1,1.549-1.542A1.547,1.547,0,0,1,42.719,89.622Zm-10.182,0a1.542,1.542,0,1,1,1.55-1.542A1.547,1.547,0,0,1,32.537,89.622Zm-10.624,0a1.542,1.542,0,1,1,1.55-1.542A1.547,1.547,0,0,1,21.912,89.622Zm-10.181,0a1.542,1.542,0,1,1,1.549-1.542A1.547,1.547,0,0,1,11.731,89.622Zm-10.182,0A1.542,1.542,0,1,1,3.1,88.081,1.547,1.547,0,0,1,1.549,89.622ZM52.9,78.831a1.541,1.541,0,1,1,1.55-1.541A1.547,1.547,0,0,1,52.9,78.831Zm-10.181,0a1.541,1.541,0,1,1,1.549-1.541A1.547,1.547,0,0,1,42.719,78.831Zm-10.182,0a1.541,1.541,0,1,1,1.55-1.541A1.547,1.547,0,0,1,32.537,78.831Zm-10.624,0a1.541,1.541,0,1,1,1.55-1.541A1.547,1.547,0,0,1,21.912,78.831Zm-10.181,0A1.541,1.541,0,1,1,13.28,77.29,1.547,1.547,0,0,1,11.731,78.831Zm-10.182,0A1.541,1.541,0,1,1,3.1,77.29,1.547,1.547,0,0,1,1.549,78.831ZM52.9,68.041A1.541,1.541,0,1,1,54.45,66.5,1.547,1.547,0,0,1,52.9,68.041Zm-10.181,0A1.541,1.541,0,1,1,44.268,66.5,1.547,1.547,0,0,1,42.719,68.041Zm-10.182,0a1.541,1.541,0,1,1,1.55-1.541A1.547,1.547,0,0,1,32.537,68.041Zm-10.624,0a1.541,1.541,0,1,1,1.55-1.541A1.547,1.547,0,0,1,21.912,68.041Zm-10.181,0A1.541,1.541,0,1,1,13.28,66.5,1.547,1.547,0,0,1,11.731,68.041Zm-10.182,0A1.541,1.541,0,1,1,3.1,66.5,1.547,1.547,0,0,1,1.549,68.041Zm51.351-11a1.541,1.541,0,1,1,1.55-1.541A1.547,1.547,0,0,1,52.9,57.036Zm-10.181,0a1.541,1.541,0,1,1,1.549-1.541A1.547,1.547,0,0,1,42.719,57.036Zm-10.182,0a1.541,1.541,0,1,1,1.55-1.541A1.547,1.547,0,0,1,32.537,57.036Zm-10.624,0a1.541,1.541,0,1,1,1.55-1.541A1.547,1.547,0,0,1,21.912,57.036Zm-10.181,0a1.541,1.541,0,1,1,1.549-1.541A1.547,1.547,0,0,1,11.731,57.036Zm-10.182,0A1.541,1.541,0,1,1,3.1,55.495,1.547,1.547,0,0,1,1.549,57.036ZM52.9,46.246A1.541,1.541,0,1,1,54.45,44.7,1.547,1.547,0,0,1,52.9,46.246Zm-10.181,0A1.541,1.541,0,1,1,44.268,44.7,1.547,1.547,0,0,1,42.719,46.246Zm-10.182,0a1.541,1.541,0,1,1,1.55-1.541A1.547,1.547,0,0,1,32.537,46.246Zm-10.624,0a1.541,1.541,0,1,1,1.55-1.541A1.547,1.547,0,0,1,21.912,46.246Zm-10.181,0A1.541,1.541,0,1,1,13.28,44.7,1.547,1.547,0,0,1,11.731,46.246Zm-10.182,0A1.541,1.541,0,1,1,3.1,44.7,1.547,1.547,0,0,1,1.549,46.246ZM52.9,35.455a1.542,1.542,0,1,1,1.55-1.541A1.547,1.547,0,0,1,52.9,35.455Zm-10.181,0a1.542,1.542,0,1,1,1.549-1.541A1.547,1.547,0,0,1,42.719,35.455Zm-10.182,0a1.542,1.542,0,1,1,1.55-1.541A1.547,1.547,0,0,1,32.537,35.455Zm-10.624,0a1.542,1.542,0,1,1,1.55-1.541A1.547,1.547,0,0,1,21.912,35.455Zm-10.181,0a1.542,1.542,0,1,1,1.549-1.541A1.547,1.547,0,0,1,11.731,35.455Zm-10.182,0A1.542,1.542,0,1,1,3.1,33.914,1.547,1.547,0,0,1,1.549,35.455ZM52.9,24.664a1.542,1.542,0,1,1,1.55-1.542A1.547,1.547,0,0,1,52.9,24.664Zm-10.181,0a1.542,1.542,0,1,1,1.549-1.542A1.547,1.547,0,0,1,42.719,24.664Zm-10.182,0a1.542,1.542,0,1,1,1.55-1.542A1.547,1.547,0,0,1,32.537,24.664Zm-10.624,0a1.542,1.542,0,1,1,1.55-1.542A1.547,1.547,0,0,1,21.912,24.664Zm-10.181,0a1.542,1.542,0,1,1,1.549-1.542A1.547,1.547,0,0,1,11.731,24.664Zm-10.182,0A1.542,1.542,0,1,1,3.1,23.123,1.547,1.547,0,0,1,1.549,24.664ZM52.9,13.874a1.541,1.541,0,1,1,1.55-1.541A1.547,1.547,0,0,1,52.9,13.874Zm-10.181,0a1.541,1.541,0,1,1,1.549-1.541A1.547,1.547,0,0,1,42.719,13.874Zm-10.182,0a1.541,1.541,0,1,1,1.55-1.541A1.547,1.547,0,0,1,32.537,13.874Zm-10.624,0a1.541,1.541,0,1,1,1.55-1.541A1.547,1.547,0,0,1,21.912,13.874Zm-10.181,0a1.541,1.541,0,1,1,1.549-1.541A1.547,1.547,0,0,1,11.731,13.874Zm-10.182,0A1.541,1.541,0,1,1,3.1,12.332,1.547,1.547,0,0,1,1.549,13.874ZM52.9,3.083a1.541,1.541,0,1,1,1.55-1.541A1.547,1.547,0,0,1,52.9,3.083Zm-10.181,0a1.541,1.541,0,1,1,1.549-1.541A1.547,1.547,0,0,1,42.719,3.083Zm-10.182,0a1.541,1.541,0,1,1,1.55-1.541A1.547,1.547,0,0,1,32.537,3.083Zm-10.624,0a1.541,1.541,0,1,1,1.55-1.541A1.547,1.547,0,0,1,21.912,3.083Zm-10.181,0A1.541,1.541,0,1,1,13.28,1.541,1.547,1.547,0,0,1,11.731,3.083Zm-10.182,0A1.541,1.541,0,1,1,3.1,1.541,1.547,1.547,0,0,1,1.549,3.083Z" transform="translate(115.083 36.029)" fill="#dc2249"/>
          <circle id="Shape-55" data-name="Shape" cx="24.295" cy="24.295" r="24.295" transform="translate(39.207 71.769)" fill="#3d2b42"/>
          <circle id="Shape-56" data-name="Shape" cx="24.295" cy="24.295" r="24.295" transform="translate(126.219 109.334)" fill="#218e3e"/>
          <path id="Shape-57" data-name="Shape" d="M8.96,0A8.96,8.96,0,1,1,0,8.96,8.96,8.96,0,0,1,8.96,0Z" transform="translate(9.57 53.849)" fill="#ba304f"/>
          <circle id="Shape-58" data-name="Shape" cx="11.889" cy="11.889" r="11.889" transform="translate(15.773 133.8)" fill="#f2f2f2"/>
        </g>
      </g>
    </g>
  </g>
</svg>
