<svg xmlns="http://www.w3.org/2000/svg" width="57.27" height="57.27" viewBox="0 0 57.27 57.27"><defs><style>.a{fill:#a4ccff;}.b{fill:#ffe07d;}.c{fill:#ffd064;}.d{fill:#fff0af;}.e{fill:#95d6a4;}.f{fill:#8bb3ea;}.g{fill:#ff9a9f;}.h{fill:#78c2a4;}.i{fill:#b3e59f;}.j{fill:#ff8086;}.k{fill:#e5646e;}</style></defs><path class="a" d="M257.194.774A1.847,1.847,0,0,1,260,.541l2.141,2.141a1.847,1.847,0,0,1-.233,2.81l-5.7,4.07-3.087-3.1Z" transform="translate(-224.815 0)"/><path class="b" d="M157.667,166.5v32.941h23.007V167.274l-1.382-.774Z" transform="translate(-140.031 -147.876)"/><path class="c" d="M153.264,144.082h19.4v-3.695H148.645v35.162a.924.924,0,0,0,.924.924h.924v-29.62A2.771,2.771,0,0,1,153.264,144.082Z" transform="translate(-132.018 -124.684)"/><path class="d" d="M172.661,97.3H149.569a.924.924,0,0,1-.924-.924V91.763a.924.924,0,0,1,.924-.924h23.093a.924.924,0,0,1,.924.924v4.618A.924.924,0,0,1,172.661,97.3Z" transform="translate(-132.018 -80.678)"/><path class="a" d="M178.912.774A1.847,1.847,0,0,0,176.1.541l-2.141,2.141a1.847,1.847,0,0,0,.233,2.81l5.7,4.07,3.087-3.1Z" transform="translate(-154.022 0)"/><path class="b" d="M145.006,96.381a2.771,2.771,0,0,1-2.771-2.771V90.839h-.924a.924.924,0,0,0-.924.924V97.3a.924.924,0,0,0,.924.924h24.016a.924.924,0,0,0,.924-.924v-.924Z" transform="translate(-124.684 -80.678)"/><path class="e" d="M231.226,156.9h5.542v39.719h-5.542Z" transform="translate(-205.362 -139.353)"/><path class="f" d="M234.921,57.807h-1.847a1.847,1.847,0,0,0-1.847,1.847V61.5l1.205,3.6-1.205,3.792v34.35h5.542V68.891l-1.093-4.053,1.093-3.336V59.654A1.847,1.847,0,0,0,234.921,57.807Z" transform="translate(-205.362 -51.341)"/><path class="a" d="M231.226,90.839h5.542v7.39h-5.542Z" transform="translate(-205.362 -80.678)"/><path class="g" d="M364.549,306.322a1.847,1.847,0,0,1,2.81-.233l2.141,2.141a1.847,1.847,0,0,1-.233,2.81l-5.7,4.07-3.087-3.1Z" transform="translate(-320.161 -271.371)"/><path class="e" d="M231.226,429.419v8.313a.924.924,0,0,0,.924.924h11.084l2.62-1.566,2.923,1.566h12.008a.924.924,0,0,0,.924-.924v-4.618Z" transform="translate(-205.362 -381.387)"/><path class="h" d="M209.852,433.115h26.787V429.42H203l2.234,8.313a.924.924,0,0,0,.924.924h.924v-2.771A2.771,2.771,0,0,1,209.852,433.115Z" transform="translate(-180.294 -381.387)"/><path class="i" d="M254.374,401.005H223.892a.924.924,0,0,1-.924-.924v-2.771a.924.924,0,0,1,.924-.924h30.482a.924.924,0,0,1,.924.924v2.771A.924.924,0,0,1,254.374,401.005Z" transform="translate(-198.028 -352.049)"/><path class="g" d="M286.267,306.322a1.847,1.847,0,0,0-2.81-.233l-2.141,2.141a1.847,1.847,0,0,0,.233,2.81l5.7,4.07,3.087-3.1Z" transform="translate(-249.369 -271.371)"/><path class="e" d="M219.329,400.082a2.771,2.771,0,0,1-2.771-2.771v-.924h-.924a.924.924,0,0,0-.924.924v3.695a.924.924,0,0,0,.924.924H247.04a.924.924,0,0,0,.924-.924v-.924Z" transform="translate(-190.694 -352.049)"/><path class="e" d="M338.581,445.936h5.542v7.39h-5.542Z" transform="translate(-300.709 -396.056)"/><path class="j" d="M342.276,363.355h-1.847a1.847,1.847,0,0,0-1.847,1.847v1.847l1.641,3.117-1.641,2.426v7.39h5.542v-7.39l-1.077-2.426,1.077-3.117V365.2A1.847,1.847,0,0,0,342.276,363.355Z" transform="translate(-300.709 -322.712)"/><path class="g" d="M344.123,401.929h-5.542v-5.542h5.542Z" transform="translate(-300.709 -352.049)"/><path class="i" d="M116.807,215.484a1.847,1.847,0,0,1,2.81-.233l2.141,2.141a1.847,1.847,0,0,1-.233,2.81l-5.7,4.07-3.087-3.1Z" transform="translate(-100.13 -190.694)"/><path class="j" d="M16.516,355.1v16.627a.924.924,0,0,0,.924.924h7.39l2.852-1.641,2.691,1.641h8.313a.924.924,0,0,0,.924-.924V358.792Z" transform="translate(-14.669 -315.378)"/><path class="k" d="M12.876,358.792h19.4V355.1H8.258v16.627a.924.924,0,0,0,.924.924h.924V361.563a2.771,2.771,0,0,1,2.771-2.771Z" transform="translate(-7.334 -315.378)"/><path class="g" d="M32.274,312.015H9.182a.924.924,0,0,1-.924-.924v-4.618a.924.924,0,0,1,.924-.924H32.274a.924.924,0,0,1,.924.924v4.618A.924.924,0,0,1,32.274,312.015Z" transform="translate(-7.334 -271.372)"/><path class="i" d="M38.525,215.484a1.847,1.847,0,0,0-2.81-.233l-2.141,2.141a1.847,1.847,0,0,0,.233,2.81l5.7,4.07,3.087-3.1Z" transform="translate(-29.338 -190.694)"/><path class="j" d="M4.618,311.091a2.771,2.771,0,0,1-2.771-2.771v-2.771H.924a.924.924,0,0,0-.924.924v5.542a.924.924,0,0,0,.924.924H24.94a.924.924,0,0,0,.924-.924v-.924Z" transform="translate(0 -271.372)"/><path class="e" d="M90.839,371.613h5.542v15.7H90.839Z" transform="translate(-80.678 -330.046)"/><path class="e" d="M94.534,272.516H92.686a1.847,1.847,0,0,0-1.847,1.847v1.847l.876,3.555-.876,3.834v15.7h5.542V283.6l-1.087-3.722,1.087-3.667v-1.847A1.847,1.847,0,0,0,94.534,272.516Z" transform="translate(-80.678 -242.034)"/><path class="i" d="M90.839,305.548h5.542v7.39H90.839Z" transform="translate(-80.678 -271.371)"/></svg>