<svg xmlns="http://www.w3.org/2000/svg" width="36.272" height="36.262" viewBox="0 0 36.272 36.262"><defs><style>.a{fill:#ddd;}</style></defs><g transform="translate(0 -0.069)"><g transform="translate(0 3.997)"><g transform="translate(0)"><path class="a" d="M28.419,59.475a12.975,12.975,0,0,0-10.278,0,12.864,12.864,0,0,0-2.866-.86l2.947-2.456a.6.6,0,0,0,.174-.689l-1.209-3.022a.6.6,0,0,0-.561-.38H8.77a.6.6,0,0,0-.561.38L7,55.471a.6.6,0,0,0,.174.689l3.067,2.556a12.989,12.989,0,1,0,7.892,24.623A12.993,12.993,0,1,0,28.419,59.475Zm-11.9-5.447.423,1.062h-1.06Zm-.958-.751-.746,1.243-.746-1.243Zm-2.629.452.816,1.361H11.841Zm-1.187-.452-1.088,1.361-.818-1.361Zm-2.864.751.637,1.062H8.454Zm.352,2.27h6.935L13.99,58.112H11.406ZM13,83.191a11.784,11.784,0,1,1,3.7-22.975,13.108,13.108,0,0,0-1.319.89,10.6,10.6,0,1,0,3.928,1.824,9.287,9.287,0,0,1,1.313-.5A11.78,11.78,0,0,1,13,83.191Zm1.2-21.07a12.966,12.966,0,0,0-.248,18.335q.115.118.233.233A9.363,9.363,0,1,1,13,62.04,9.523,9.523,0,0,1,14.2,62.121ZM18.137,79.23a9.349,9.349,0,0,1,0-15.647,9.35,9.35,0,0,1,0,15.647Zm3.947-17.106h0A9.363,9.363,0,1,1,22.065,80.7a12.966,12.966,0,0,0,.255-18.335Q22.2,62.241,22.085,62.124ZM32.251,79.041A11.8,11.8,0,0,1,19.57,82.6a13.051,13.051,0,0,0,1.32-.892,10.6,10.6,0,1,0-3.928-1.824,9.241,9.241,0,0,1-1.315.505,11.779,11.779,0,1,1,16.6-1.345Z" transform="translate(0 -52.069)"/></g></g><g transform="translate(19.523 2.059)"><g transform="translate(0 0)"><rect class="a" width="1.709" height="1.209" transform="translate(0 1.208) rotate(-45)"/></g></g><g transform="translate(3.811 2.059)"><g transform="translate(0 0)"><rect class="a" width="1.209" height="1.709" transform="translate(0 0.855) rotate(-45)"/></g></g><g transform="translate(12.094 0.069)"><g transform="translate(0 0)"><rect class="a" width="1.209" height="1.813"/></g></g></g></svg>