<svg xmlns="http://www.w3.org/2000/svg" width="65" height="65" viewBox="0 0 65 65">
  <g id="Group_3370" data-name="Group 3370" transform="translate(7085 -10815)">
    <rect id="Rectangle_1050" data-name="Rectangle 1050" width="65" height="65" rx="32.5" transform="translate(-7085 10815)" fill="#f7eceb"/>
    <g id="wedding-rings" transform="translate(-7069.537 10832.464)">
      <path id="Path_3623" data-name="Path 3623" d="M318.452,9.948a.932.932,0,0,0,.7,0c.222-.091,5.441-2.261,5.441-6.083A3.662,3.662,0,0,0,320.912.232,3.711,3.711,0,0,0,318.8.886a3.711,3.711,0,0,0-2.109-.654,3.662,3.662,0,0,0-3.683,3.632C313.011,7.687,318.229,9.857,318.452,9.948ZM316.694,2.1a1.837,1.837,0,0,1,1.4.64.932.932,0,0,0,1.417,0,1.837,1.837,0,0,1,1.4-.64,1.8,1.8,0,0,1,1.819,1.768c0,1.945-2.567,3.558-3.922,4.2-1.018-.493-3.935-2.089-3.935-4.2A1.8,1.8,0,0,1,316.694,2.1Z" transform="translate(-294.781)" fill="#f8a49c"/>
      <path id="Path_3624" data-name="Path 3624" d="M20.288,100.759A11.2,11.2,0,0,0,7.953,96.568a11.375,11.375,0,0,0-7.689,8.3,10.947,10.947,0,0,0,.407,6.157,11.224,11.224,0,0,0,8.4,7.23l.009,0a10.772,10.772,0,0,0,1.662.193.932.932,0,1,0,0-1.864,9.31,9.31,0,0,1-8.31-6.187l0-.007a9.093,9.093,0,0,1,1.942-9.426,9.289,9.289,0,0,1,13.687,0,9.788,9.788,0,1,0,2.236-.205Zm-.227,17.7a7.871,7.871,0,0,1-4.018-1.1,11.206,11.206,0,0,0,6.307-11.033,11.063,11.063,0,0,0-.344-1.964l0-.016a.932.932,0,0,0-1.819.4c0,.012.01.046.025.1a9.165,9.165,0,0,1,.285,1.631v.007a9.333,9.333,0,0,1-6.122,9.553,7.917,7.917,0,1,1,5.689,2.415ZM22,104.357c0,.015.006.026.007.032Z" transform="translate(0 -90.274)" fill="#f8a49c"/>
    </g>
    <path id="Path_3628" data-name="Path 3628" d="M326.789,4.417a4.9,4.9,0,0,1-.665,2.425c-1.522,2.7-5.142,4.206-5.335,4.285a1.031,1.031,0,0,1-.776,0c-.245-.1-6-2.493-6-6.709A4.069,4.069,0,0,1,320.4,1.133,4.071,4.071,0,0,1,326.789,4.417Z" transform="translate(-7364.846 10831.807)" fill="#f79caf"/>
    <path id="Path_3629" data-name="Path 3629" d="M326.06,14.712c-1.557,2.631-5.081,4.1-5.271,4.175a1.03,1.03,0,0,1-.776,0c-.245-.1-6-2.493-6-6.709A3.956,3.956,0,0,1,316.072,8.7a3.96,3.96,0,0,0-.26,1.424c0,4.216,5.755,6.609,6,6.709a1.03,1.03,0,0,0,.776,0A14.412,14.412,0,0,0,326.06,14.712Z" transform="translate(-7364.846 10824.047)" fill="#e3889b"/>
  </g>
</svg>
