<svg xmlns="http://www.w3.org/2000/svg" width="73.833" height="73.833" viewBox="0 0 73.833 73.833"><defs><style>.a{fill:#4f7693;}.b{fill:#fecbaa;}.c{fill:#ffae85;}.d{fill:#ff84a7;}.e{fill:#ef6085;}.f{fill:#2f5066;}.g{fill:#c97f4c;}.h{fill:#83d9ff;}.i{fill:#5fc9ed;}.j{fill:#fff;}.k{fill:#dae2e8;}</style></defs><g transform="translate(-0.001 -0.001)"><path class="a" d="M39.523,358.045l-7.5,7.5L17.535,351.056l7.445-7.447q.6,1.29,1.331,2.526c1.118,1.885,8.974,9.615,10.8,10.665C37.9,357.254,38.7,357.669,39.523,358.045Zm0,0" transform="translate(-15.006 -294.058)"/><path class="b" d="M109.074,79.285A29.762,29.762,0,1,1,79.312,49.523,29.762,29.762,0,0,1,109.074,79.285Zm0,0" transform="translate(-42.405 -42.381)"/><path class="c" d="M128.127,81.6a29.779,29.779,0,0,0-6.242-4.781A29.768,29.768,0,0,1,82,118.673,29.763,29.763,0,1,0,128.127,81.6Zm0,0" transform="translate(-70.174 -65.742)"/><path class="d" d="M4.873,322.684l5.282-5.281a59.218,59.218,0,0,0,2.8,6.3l-2.821,2.821a3.109,3.109,0,0,0,0,4.4l6.333,6.333a3.109,3.109,0,0,0,4.4,0l7.7-7.7a3.217,3.217,0,1,1,4.55,4.55l-8.4,8.406a10.071,10.071,0,0,1-13.663.535c-.2-.171-.389-.348-.576-.535l-5.592-5.593c-.206-.206-.4-.42-.586-.64A10.066,10.066,0,0,1,4.873,322.684Zm0,0" transform="translate(-1.646 -271.631)"/><path class="a" d="M364.016,30.778l-7.445,7.445q-.6-1.289-1.331-2.526a29.738,29.738,0,0,0-4.031-5.326q-.27-.288-.554-.572c-.074-.076-.15-.152-.228-.225-.266-.261-.538-.517-.812-.766a29.776,29.776,0,0,0-5.171-3.776q-1.187-.68-2.417-1.243l7.5-7.5Zm0,0" transform="translate(-292.705 -13.939)"/><path class="d" d="M316.5,22.781l-5.281,5.282a29.527,29.527,0,0,0-1.465-3.78q-.6-1.289-1.331-2.525l2.821-2.821a3.11,3.11,0,0,0,0-4.4l-6.333-6.333a3.109,3.109,0,0,0-4.4,0l-7.7,7.7a3.218,3.218,0,1,1-4.55-4.55l8.406-8.4a10.069,10.069,0,0,1,13.662-.535q.3.255.576.535L316.5,8.543c.206.206.4.421.586.64A10.066,10.066,0,0,1,316.5,22.781Zm0,0" transform="translate(-245.888 0)"/><path class="e" d="M288.275,15.053l8.406-8.406a10.07,10.07,0,0,1,13.662-.535c.2.171.39.348.576.535l5.592,5.593c.206.206.4.42.586.639a10.008,10.008,0,0,1,2.192,4.629A10.053,10.053,0,0,0,317.1,9.183c-.184-.219-.38-.434-.586-.64L310.919,2.95q-.28-.28-.576-.535a10.069,10.069,0,0,0-13.662.535l-8.406,8.4a3.216,3.216,0,0,0-.354,4.124A3.193,3.193,0,0,1,288.275,15.053Zm0,0" transform="translate(-245.899 0)"/><path class="e" d="M436.77,128.891a3.1,3.1,0,0,1-.3.35l-2.821,2.821q.7,1.185,1.28,2.418l1.541-1.541A3.107,3.107,0,0,0,436.77,128.891Zm0,0" transform="translate(-371.117 -110.303)"/><path class="f" d="M397.6,93.191l-1.35,1.351-.011.009q-.27-.288-.554-.572c-.074-.076-.15-.152-.228-.225-.266-.261-.538-.517-.812-.766a.336.336,0,0,1,.024-.026l1.351-1.35a1.117,1.117,0,0,1,1.58,1.579Zm0,0" transform="translate(-337.737 -78.12)"/><path class="b" d="M420.584,16.274l-2.066-2.066a3.321,3.321,0,0,1,0-4.7l4.053-4.053a3.32,3.32,0,0,1,4.7,0l2.066,2.066a3.321,3.321,0,0,1,0,4.7l-4.053,4.053A3.32,3.32,0,0,1,420.584,16.274Zm0,0" transform="translate(-357.332 -3.839)"/><path class="g" d="M436.24,14.016l-2.066-2.066a3.321,3.321,0,0,1,0-4.7l1.8-1.8a3.32,3.32,0,0,1,4.7,0l2.066,2.066a3.32,3.32,0,0,1,0,4.7l-1.8,1.8A3.32,3.32,0,0,1,436.24,14.016Zm0,0" transform="translate(-370.731 -3.839)"/><path class="e" d="M47.445,396.584l-.28.281a3.11,3.11,0,0,0,0,4.4L53.5,407.6a3.11,3.11,0,0,0,4.4,0l7.7-7.7a3.213,3.213,0,0,1,5.226,1l.227-.227a3.218,3.218,0,1,0-4.55-4.55l-7.7,7.7a3.109,3.109,0,0,1-4.4,0l-6.333-6.333A3.1,3.1,0,0,1,47.445,396.584Zm0,0" transform="translate(-39.583 -338.187)"/><path class="e" d="M4.019,326.464l2.332-2.332a2.724,2.724,0,0,1,4.4.793l.017.037q.155.331.318.66L13,323.707q-.731-1.237-1.332-2.525A29.522,29.522,0,0,1,10.2,317.4l-5.282,5.281A10.031,10.031,0,0,0,1.98,329.4,10.039,10.039,0,0,1,4.019,326.464Zm0,0" transform="translate(-1.694 -271.631)"/><path class="f" d="M97.91,399.622a.258.258,0,0,1-.024.027L96.536,401a1.117,1.117,0,0,1-1.581-1.579l1.35-1.352.01-.009q.27.289.554.572c.076.076.152.152.228.225C97.365,399.117,97.636,399.373,97.91,399.622Zm0,0" transform="translate(-80.981 -340.656)"/><path class="b" d="M15.731,420l2.066,2.066a3.32,3.32,0,0,1,0,4.7l-4.054,4.053a3.32,3.32,0,0,1-4.7,0l-2.066-2.066a3.32,3.32,0,0,1,0-4.7L11.035,420A3.321,3.321,0,0,1,15.731,420Zm0,0" transform="translate(-5.142 -358.602)"/><path class="g" d="M13.5,435.471l2.066,2.066a3.321,3.321,0,0,1,0,4.7l-1.822,1.823a3.321,3.321,0,0,1-4.7,0l-2.066-2.066a3.32,3.32,0,0,1,0-4.7L8.8,435.471A3.321,3.321,0,0,1,13.5,435.471Zm0,0" transform="translate(-5.142 -371.841)"/><path class="a" d="M365.55,349.489l-14.488,14.489-7.445-7.445q1.288-.6,2.525-1.332a29.625,29.625,0,0,0,5.327-4.03c.192-.18.383-.366.571-.554.076-.075.152-.15.226-.228.261-.267.517-.538.764-.812a29.709,29.709,0,0,0,3.776-5.171q.679-1.186,1.244-2.417Zm0,0" transform="translate(-294.065 -292.671)"/><path class="h" d="M322.68,316.459l-5.282-5.282a29.493,29.493,0,0,0,3.78-1.464q1.289-.6,2.525-1.331l2.821,2.82a3.109,3.109,0,0,0,4.4,0l6.333-6.333a3.111,3.111,0,0,0,0-4.4l-7.7-7.7a3.218,3.218,0,1,1,4.55-4.55l8.4,8.4a10.07,10.07,0,0,1,.535,13.663c-.17.2-.348.389-.535.576l-5.592,5.593c-.206.206-.421.4-.64.586A10.066,10.066,0,0,1,322.68,316.459Zm0,0" transform="translate(-271.627 -245.852)"/><path class="i" d="M396.126,292.089a3.217,3.217,0,0,1,4.55,0l8.4,8.4a10.016,10.016,0,0,1,2.761,5.192,10.058,10.058,0,0,0-2.761-9.059l-8.4-8.4a3.216,3.216,0,0,0-4.843,4.208A3.209,3.209,0,0,1,396.126,292.089Zm0,0" transform="translate(-338.197 -245.852)"/><path class="i" d="M320.334,416.767a5.5,5.5,0,0,1,6.19,1.112,3.109,3.109,0,0,0,4.4,0l6.333-6.333a3.109,3.109,0,0,0,.235-4.132,3.238,3.238,0,0,1-.235.266l-6.333,6.333a3.109,3.109,0,0,1-4.4,0l-2.821-2.82q-1.237.73-2.525,1.331a29.493,29.493,0,0,1-3.78,1.464l2.828,2.828Zm0,0" transform="translate(-271.627 -348.662)"/><path class="f" d="M401.007,397.564a1.117,1.117,0,0,1-1.581,0l-1.35-1.35-.009-.011c.192-.18.383-.366.571-.554.076-.076.152-.15.227-.228.26-.267.517-.538.764-.812l.026.024,1.352,1.35A1.121,1.121,0,0,1,401.007,397.564Zm0,0" transform="translate(-340.663 -337.704)"/><path class="b" d="M420,420.545l2.066-2.066a3.321,3.321,0,0,1,4.7,0l4.053,4.053a3.32,3.32,0,0,1,0,4.7l-2.066,2.066a3.321,3.321,0,0,1-4.7,0L420,425.24A3.32,3.32,0,0,1,420,420.545Zm0,0" transform="translate(-358.602 -357.299)"/><path class="g" d="M435.654,436.2l2.066-2.066a3.321,3.321,0,0,1,4.7,0l1.8,1.8a3.321,3.321,0,0,1,0,4.7l-2.066,2.066a3.321,3.321,0,0,1-4.7,0l-1.8-1.8A3.321,3.321,0,0,1,435.654,436.2Zm0,0" transform="translate(-371.998 -370.694)"/><path class="a" d="M38.219,24.93q-1.289.6-2.524,1.332a29.6,29.6,0,0,0-5.327,4.029c-.194.18-.383.365-.572.554-.076.076-.15.15-.225.228-.261.268-.517.54-.764.813a29.752,29.752,0,0,0-3.777,5.169q-.68,1.187-1.243,2.417l-7.5-7.5L30.774,17.484Zm0,0" transform="translate(-13.936 -14.962)"/><path class="h" d="M22.781,4.832l5.282,5.282a29.493,29.493,0,0,0-3.78,1.464q-1.289.6-2.525,1.331l-2.821-2.82a3.109,3.109,0,0,0-4.4,0L8.206,16.422a3.111,3.111,0,0,0,0,4.4l7.7,7.7a3.218,3.218,0,1,1-4.55,4.55l-8.4-8.4A10.07,10.07,0,0,1,2.416,11c.17-.2.348-.389.535-.576L8.543,4.832c.206-.206.421-.4.64-.586A10.066,10.066,0,0,1,22.781,4.832Zm0,0" transform="translate(0 -1.611)"/><path class="i" d="M51.509,130.793a3.188,3.188,0,0,1-.339-.406,3.108,3.108,0,0,0,.339,3.991l7.7,7.7a3.226,3.226,0,0,1,.4.483,3.218,3.218,0,0,0-.4-4.068Zm0,0" transform="translate(-43.303 -111.584)"/><path class="i" d="M2.421,14.587c.17-.2.348-.39.535-.576L8.548,8.418c.206-.206.421-.4.64-.586a10.065,10.065,0,0,1,13.6.586l2.653,2.652q1.3-.542,2.629-.955L22.786,4.832a10.066,10.066,0,0,0-13.6-.586c-.219.184-.434.381-.64.586L2.955,10.425c-.187.186-.364.379-.535.576A10.06,10.06,0,0,0,.167,19.34,10.011,10.011,0,0,1,2.421,14.587Zm0,0" transform="translate(-0.005 -1.611)"/><path class="f" d="M94.548,96.274c-.194.18-.383.365-.572.554-.076.076-.15.15-.225.228-.261.268-.517.54-.764.813a.174.174,0,0,1-.028-.025l-1.35-1.35a1.118,1.118,0,0,1,1.581-1.581l1.35,1.35Zm0,0" transform="translate(-78.116 -80.945)"/><path class="b" d="M16.274,15.692l-2.066,2.066a3.32,3.32,0,0,1-4.7,0L5.459,13.705a3.321,3.321,0,0,1,0-4.7L7.524,6.943a3.321,3.321,0,0,1,4.7,0L16.274,11A3.32,3.32,0,0,1,16.274,15.692Zm0,0" transform="translate(-3.839 -5.109)"/><path class="g" d="M13.678,13.1l-2.066,2.066a3.32,3.32,0,0,1-4.7,0L5.459,13.705a3.321,3.321,0,0,1,0-4.7L7.524,6.943a3.321,3.321,0,0,1,4.7,0L13.678,8.4A3.32,3.32,0,0,1,13.678,13.1Zm0,0" transform="translate(-3.839 -5.109)"/><path class="j" d="M129.837,295.691l-5.467,4.848a.978.978,0,0,1-1.38-.084l-2.161-2.437-1.483-1.672-2.277-2.569a.976.976,0,0,1,.083-1.378l5.469-4.847a.976.976,0,0,1,1.378.083l2.232,2.517,1.483,1.674,2.205,2.487A.978.978,0,0,1,129.837,295.691Zm0,0" transform="translate(-99.976 -245.873)"/><path class="j" d="M304.165,142.055l-7.844,6.953a1.148,1.148,0,0,1-1.62-.1l-5.693-6.423a1.147,1.147,0,0,1,.1-1.62l7.844-6.953a1.147,1.147,0,0,1,1.619.1l5.694,6.423A1.147,1.147,0,0,1,304.165,142.055Zm0,0" transform="translate(-247.083 -114.356)"/><path class="k" d="M142.685,308.713l-6.88,6.189-.006,0-1.483-1.672,6.879-6.188.007-.006Zm0,0" transform="translate(-114.947 -262.762)"/></g></svg>