<svg id="Group_3337" data-name="Group 3337" xmlns="http://www.w3.org/2000/svg" width="61.499" height="61.501" viewBox="0 0 61.499 61.501">
  <g id="Group_3336" data-name="Group 3336" transform="translate(0)">
    <path id="Path_2311" data-name="Path 2311" d="M61.154.352A1.2,1.2,0,0,0,60.3,0L30.756,0a1.2,1.2,0,0,0-1.2,1.2V4.638L18.169,7.689A1.2,1.2,0,0,0,17.32,9.16l5.9,22.023-5.1,5.1a3.6,3.6,0,0,0-2.975-1.573H3.61a3.608,3.608,0,0,0-3.6,3.6V57.9a3.608,3.608,0,0,0,3.6,3.6H15.142a3.609,3.609,0,0,0,3.5-2.736l1.428,1.246A6.052,6.052,0,0,0,24.045,61.5h36.26a1.2,1.2,0,0,0,1.2-1.2V1.2A1.2,1.2,0,0,0,61.154.352ZM16.343,57.9a1.2,1.2,0,0,1-1.2,1.2H3.61a1.2,1.2,0,0,1-1.2-1.2V38.318a1.2,1.2,0,0,1,1.2-1.2H8.175V50.954a1.2,1.2,0,1,0,2.4,0V37.117h4.564a1.2,1.2,0,0,1,1.2,1.2V57.9ZM19.951,9.7l9.6-2.573v4.451l-.805.216a1.2,1.2,0,0,0-.849,1.471,3.238,3.238,0,0,1-2.287,3.961,1.2,1.2,0,0,0-.849,1.473l4.682,17.338H27.036l-1.242-4.86a1.2,1.2,0,0,0-.2-.421Zm9.6,7.386V27.22l-2.191-8.112A5.627,5.627,0,0,0,29.555,17.084ZM46.812,59.1H24.045a3.65,3.65,0,0,1-2.4-.9l-2.9-2.53V39.056l5.244-5.244.951,3.721a1.2,1.2,0,0,0,1.164.9H49.72a1.682,1.682,0,0,1,0,3.363h-12.1a1.2,1.2,0,0,0,0,2.4h15.86a1.682,1.682,0,0,1,0,3.363H37.619a1.2,1.2,0,0,0,0,2.4h13.29a1.682,1.682,0,1,1,0,3.363H37.619a1.2,1.2,0,1,0,0,2.4h9.193a1.681,1.681,0,1,1,0,3.363Zm12.292,0H50.532a4.069,4.069,0,0,0,0-3.363h.377a4.081,4.081,0,0,0,3.65-5.912,4.08,4.08,0,0,0,2.2-6.371V28.229a1.2,1.2,0,1,0-2.4,0V41.9a4.085,4.085,0,0,0-.876-.1H53.44a4.081,4.081,0,0,0-3.72-5.766H47.789a5.749,5.749,0,1,0-4.516,0H36.706V13.2A5.654,5.654,0,0,0,41.013,8.89h9.035A5.654,5.654,0,0,0,54.355,13.2v3.734a1.2,1.2,0,1,0,2.4,0V12.124a1.2,1.2,0,0,0-1.2-1.2,3.238,3.238,0,0,1-3.234-3.234,1.2,1.2,0,0,0-1.2-1.2H39.94a1.2,1.2,0,0,0-1.2,1.2,3.238,3.238,0,0,1-3.234,3.234,1.2,1.2,0,0,0-1.2,1.2V36.036H31.958V2.4H59.1Zm-13.573-25a3.346,3.346,0,1,1,3.346-3.346A3.35,3.35,0,0,1,45.531,34.1Z" transform="translate(-0.007)" fill="#e6e6e6"/>
  </g>
</svg>
