<svg xmlns="http://www.w3.org/2000/svg" width="118" height="118" viewBox="0 0 118 118"><defs><style>.a{opacity:0.47;}.b,.e,.f{fill:#fff;}.c{fill:#e9eef9;}.d{fill:#90ae97;}.e{opacity:0.64;}.f{opacity:0.6;}.g{fill:#757575;}.h{fill:#c67d81;}.i{fill:#d8bc74;}.j{fill:#505a79;}.k{fill:#be834a;}.l{fill:#f1d27a;}.m{fill:#ebb9bf;}.n{fill:#000105;}.o{fill:#342a1d;}.p{fill:#6a593a;}.q{fill:#cfe8ec;}.r{fill:#201600;}.s{fill:#a75a5d;}</style></defs><g transform="translate(0.262 0.262)"><g class="a"><rect class="b" width="118" height="118" transform="translate(-0.262 -0.262)"/><path class="c" d="M367.958,351.954c-.337-5.11,2.3-8.919,4.25-12.91a18.028,18.028,0,0,0,1.962-6.829,39.565,39.565,0,0,0-.509-7.806,69.168,69.168,0,0,1-.826-7.9,29.5,29.5,0,0,1,.726-7.129,30.46,30.46,0,0,1,5.875-12.138c6.455-8.15,16.192-11.87,26.054-13.755,1.957-.374,3.933-.681,5.918-.948.562-.094,1.133-.17,1.7-.218l.425-.052a.46.46,0,0,1,.171.011,16.752,16.752,0,0,1,6.634.947,17.218,17.218,0,0,1,6.212,3.948,17.827,17.827,0,0,1,4.192,7.036,31.129,31.129,0,0,0,1.815,4.6,12.319,12.319,0,0,0,2.374,3.073,23.776,23.776,0,0,0,6.421,4.036,53.65,53.65,0,0,1,7.01,3.586,15.622,15.622,0,0,1,5.58,5.919c2.418,4.948-.683,9.088-.972,14.056-.3,5.123.838,10.205,1.7,15.221,1.205,6.976,1.743,14.748-2.312,20.551a19.942,19.942,0,0,1-9.208,6.8,32.212,32.212,0,0,1-12.388,2.5c-4.456-.154-8.683-1.44-13.05-2.189-10.359-1.778-20.173,1.51-30.562-.672a25.082,25.082,0,0,1-12.874-6.729C370.887,361.537,368.277,356.785,367.958,351.954Z" transform="translate(-350.566 -268.935)"/><path class="d" d="M1986.871,1065.431c-.483-2.473,2.007-4.188,4.051-5.416a11.537,11.537,0,0,0,3.276-2.518,5.5,5.5,0,0,0,1.085-3.616c-.073-2.563-1.3-4.924-1.763-7.425-.407-2.206-.222-4.773,1.906-6.295a7.271,7.271,0,0,1,6.482-.633,7.035,7.035,0,0,1,4.372,5.026,9.008,9.008,0,0,1,.146,3.476,26.678,26.678,0,0,1-1.164,3.943,6.41,6.41,0,0,0-.209,4.011,10.454,10.454,0,0,0,1.7,2.857c1.248,1.638,2.871,3.451,2.457,5.572-.321,1.645-1.738,2.844-2.988,4.046a7.6,7.6,0,0,0,0,2.859c.466,2.621,2.127,5.137,1.549,7.866-.519,2.447-2.955,4.13-5.578,4.69a15.185,15.185,0,0,1-4.87.144,17.282,17.282,0,0,1-4.389-1.007,7.812,7.812,0,0,1-3.265-2.265,4.635,4.635,0,0,1-1.108-3.348,10.657,10.657,0,0,1,1.47-3.382,4.143,4.143,0,0,0,.5-1.812,3.493,3.493,0,0,0-.356-1.471C1989.31,1068.865,1987.272,1067.483,1986.871,1065.431Z" transform="translate(-1893.054 -990.025)"/><g transform="translate(2.386 39.45)"><path class="d" d="M79.63,870.217c.755-3.858-2.487-4.105-4.721-5.622-2.359-1.6-3.367-4.618-3.546-7.362-.211-3.239.538-6.457.755-9.7.25-3.753-.348-7.793-3.586-10.111h0a9.433,9.433,0,0,0-8.413-.821,9.133,9.133,0,0,0-5.674,6.523,11.687,11.687,0,0,0-.189,4.51,34.39,34.39,0,0,0,1.51,5.117,8.315,8.315,0,0,1,.271,5.2,13.515,13.515,0,0,1-2.207,3.709c-1.62,2.126-3.728,4.479-3.189,7.231.417,2.134,2.256,3.691,3.878,5.251a9.858,9.858,0,0,1,0,3.71c-.6,3.4-2.76,6.666-2.01,10.208.672,3.176,3.835,5.359,7.239,6.087a19.737,19.737,0,0,0,6.32.189,22.446,22.446,0,0,0,5.7-1.307A10.117,10.117,0,0,0,76,890.1a6.015,6.015,0,0,0,1.437-4.344c-.172-1.593-1.2-2.954-1.908-4.389a5.358,5.358,0,0,1-.652-2.352,4.528,4.528,0,0,1,.462-1.91C76.464,874.672,79.11,872.88,79.63,870.217Z" transform="translate(-50.556 -835.991)"/><path class="e" d="M163.852,964.311l7.445-9.989,2.089-2.8c.086-.116-.108-.227-.193-.113l-7.446,9.989-2.022,2.712q-.15-2.812-.308-5.625-.193-3.419-.4-6.836a.09.09,0,0,0,.041-.113l4.927-9.42c.067-.128-.126-.241-.193-.113l-4.8,9.183q-.362-5.977-.766-11.952a.1.1,0,0,0-.006-.082v-.03l.011-.016q2.564-4.566,4.75-9.329c.06-.13-.134-.244-.193-.113q-2.117,4.615-4.6,9.051-.363-5.359-.76-10.716c-.01-.142-.236-.144-.224,0q.4,5.371.762,10.745l-4.6-7.4c-.076-.122-.27-.01-.193.113L162,939.222q.28,4.15.541,8.3.114,1.809.223,3.618a77.186,77.186,0,0,1-5.623-8.527.112.112,0,0,0-.193.113,77.194,77.194,0,0,0,5.841,8.81q.38,6.288.714,12.577-3.525-3.675-6.8-7.578-.962-1.148-1.9-2.312c-.091-.112-.248.047-.159.159q3.276,4.064,6.823,7.9,1.017,1.1,2.056,2.178.069,1.3.136,2.6.279,5.417.524,10.836a65.9,65.9,0,0,0-5.551-5.9q-.892-.838-1.816-1.643c-.108-.094-.268.063-.159.159a65.922,65.922,0,0,1,6.035,5.989q.755.855,1.482,1.736l-.092,3.415a.112.112,0,0,0,.224,0l.088-3.259a.122.122,0,0,0,.044-.189l-.038-.047v-.065a.12.12,0,0,0,.031-.03,34.676,34.676,0,0,1,5.946-6.5q.979-.829,2.017-1.582c.116-.084,0-.278-.113-.193a34.891,34.891,0,0,0-6.53,6.168q-.7.859-1.344,1.762a.1.1,0,0,0-.011-.026q-.3-6.666-.655-13.33A.116.116,0,0,0,163.852,964.311Z" transform="translate(-149.704 -923.555)"/></g><path class="f" d="M2198.17,1130.579a.636.636,0,0,0-.631.279.4.4,0,0,0-.094.316.126.126,0,0,0,0,.04.377.377,0,0,0,.253.283,2.776,2.776,0,0,1-2.149,1.333v-1.84a1.454,1.454,0,0,0,.236-.018,2.058,2.058,0,0,0,1.45-1.2,4.636,4.636,0,0,0,.292-2.171.125.125,0,0,0,.094-.116.522.522,0,0,0,.1-.8.505.505,0,0,0-.611.006c-.179.126-.321.39-.138.566a.609.609,0,0,0,.127.094.411.411,0,0,0,.106.111.613.613,0,0,0,.083.061,5.051,5.051,0,0,1-.186,1.956,1.919,1.919,0,0,1-1.251,1.238,1.194,1.194,0,0,1-.3.037v-3.368h0a.47.47,0,0,0,.064-.067.538.538,0,0,0-.043-.729.477.477,0,0,0-.494-.047.1.1,0,0,0-.073.02.463.463,0,0,0-.142.158.434.434,0,0,0-.056.121.39.39,0,0,0-.007.178.6.6,0,0,0,.173.447.116.116,0,0,0,.083.033.114.114,0,0,0,.082-.037.427.427,0,0,0,.176.022v3.245a1.724,1.724,0,0,1-1.051-.757,4.381,4.381,0,0,1-.544-2h0a.718.718,0,0,0,.323-.268c.083-.128-.122-.246-.2-.119a.437.437,0,0,1-.1.109c0-.01.009-.018.012-.028a.5.5,0,0,0,.08-.485.456.456,0,0,0-.6-.22.5.5,0,0,0-.308.632.546.546,0,0,0,.186.249.417.417,0,0,0,.146.122.508.508,0,0,0,.236.055,4.3,4.3,0,0,0,.653,2.191,1.9,1.9,0,0,0,1.173.762v1.867c-.047,0-.094,0-.142-.008a2.738,2.738,0,0,1-2.253-1.746.5.5,0,0,0,.108-.086.507.507,0,0,0-.094-.738.538.538,0,0,0-.755.124.469.469,0,0,0,.145.7.531.531,0,0,0,.252.069.471.471,0,0,0,.116,0,2.984,2.984,0,0,0,2.48,1.911c.047,0,.094.006.141.007v1.73a1.926,1.926,0,0,1-.33,0,2.047,2.047,0,0,1-1.376-.773.508.508,0,0,0,.2-.414.6.6,0,0,0-.738-.562.552.552,0,0,0-.389.792.506.506,0,0,0,.606.283.437.437,0,0,0,.094,0,2.279,2.279,0,0,0,1.53.907,2.141,2.141,0,0,0,.4.012v2.837a.118.118,0,0,0,.236,0v-2.865a2.335,2.335,0,0,0,1.168-.575.6.6,0,0,0,.783.076.529.529,0,0,0,.2-.538.537.537,0,0,0-.68-.5.417.417,0,0,0-.155.1.115.115,0,0,0-.084.031.614.614,0,0,0-.177.616,2.1,2.1,0,0,1-1.05.547v-1.7a3.007,3.007,0,0,0,2.389-1.519.5.5,0,1,0,.233-.976Zm-.879-3.4a.32.32,0,0,1-.029-.068.174.174,0,0,1,.189-.178c.132.012.094.169.01.225A.189.189,0,0,1,2197.291,1127.181Zm-3.748.359a.116.116,0,0,1-.181,0,.21.21,0,0,1-.044-.1.128.128,0,0,1,.013-.016c.115-.13.236-.017.21.12Zm-.92,2.973a.122.122,0,0,0-.066.132.031.031,0,0,0,0,.016.536.536,0,0,0-.016.182.1.1,0,0,1-.042-.007.218.218,0,0,1,.064-.29.115.115,0,0,0,.044-.047l.02,0Zm2.756-3.492c-.043.088-.233.1-.267,0a.149.149,0,0,1,.078-.169c.1,0,.241.062.191.168Zm2.1,7.021a.207.207,0,0,1-.035.1c.033-.069-.038-.151-.119-.154a.225.225,0,0,0-.02-.214.229.229,0,0,1,.047.023.312.312,0,0,1,.127.245Zm.773-2.741a.465.465,0,0,0-.047-.437.023.023,0,0,1,0-.013.3.3,0,0,1,.158.242.243.243,0,0,1-.114.208Z" transform="translate(-2088.64 -1073.338)"/><path class="f" d="M2183.17,1499.579a.636.636,0,0,0-.631.279.4.4,0,0,0-.094.316.131.131,0,0,0,0,.04.378.378,0,0,0,.253.283,2.776,2.776,0,0,1-2.148,1.333v-1.84a1.445,1.445,0,0,0,.236-.018,2.057,2.057,0,0,0,1.449-1.2,4.636,4.636,0,0,0,.293-2.171.126.126,0,0,0,.094-.116.522.522,0,0,0,.1-.8.5.5,0,0,0-.611.006c-.179.126-.322.39-.139.566a.6.6,0,0,0,.127.094.407.407,0,0,0,.106.111.647.647,0,0,0,.083.061,5.055,5.055,0,0,1-.186,1.956,1.921,1.921,0,0,1-1.251,1.238,1.212,1.212,0,0,1-.3.037v-3.368h0a.474.474,0,0,0,.065-.067.538.538,0,0,0-.043-.729.477.477,0,0,0-.494-.047.1.1,0,0,0-.073.02.46.46,0,0,0-.141.158.421.421,0,0,0-.056.121.4.4,0,0,0-.007.178.6.6,0,0,0,.173.447.115.115,0,0,0,.165,0,.42.42,0,0,0,.176.022v3.245a1.726,1.726,0,0,1-1.052-.757,4.383,4.383,0,0,1-.544-2h0a.719.719,0,0,0,.323-.268c.083-.128-.122-.246-.2-.119a.446.446,0,0,1-.1.109c0-.009.008-.018.011-.028a.5.5,0,0,0,.081-.485.457.457,0,0,0-.6-.22.5.5,0,0,0-.308.632.547.547,0,0,0,.186.249.418.418,0,0,0,.146.122.506.506,0,0,0,.236.055,4.3,4.3,0,0,0,.653,2.191,1.9,1.9,0,0,0,1.173.763v1.867c-.047,0-.094,0-.142-.008a2.738,2.738,0,0,1-2.253-1.746.513.513,0,0,0,.108-.086.507.507,0,0,0-.094-.738.538.538,0,0,0-.755.124.469.469,0,0,0,.145.7.529.529,0,0,0,.252.069.471.471,0,0,0,.116,0,2.984,2.984,0,0,0,2.48,1.911c.047,0,.094.006.141.007v1.73a1.926,1.926,0,0,1-.33,0,2.047,2.047,0,0,1-1.376-.773.508.508,0,0,0,.2-.414.6.6,0,0,0-.739-.562.552.552,0,0,0-.389.792.507.507,0,0,0,.606.283.434.434,0,0,0,.094,0,2.279,2.279,0,0,0,1.53.907,2.131,2.131,0,0,0,.4.012v2.837a.118.118,0,0,0,.236,0v-2.871a2.335,2.335,0,0,0,1.167-.575.6.6,0,0,0,.783.076.53.53,0,0,0,.2-.537.537.537,0,0,0-.68-.5.419.419,0,0,0-.155.1.113.113,0,0,0-.084.031.612.612,0,0,0-.177.616,2.1,2.1,0,0,1-1.05.547v-1.7a3.007,3.007,0,0,0,2.389-1.519.528.528,0,0,0,.566-.171A.521.521,0,0,0,2183.17,1499.579Zm-.879-3.4a.318.318,0,0,1-.029-.068.174.174,0,0,1,.188-.178c.133.012.094.169.01.226a.189.189,0,0,1-.17.018Zm-3.748.359a.115.115,0,0,1-.181,0,.208.208,0,0,1-.045-.1.157.157,0,0,1,.014-.016c.116-.132.236-.019.21.118Zm-.92,2.973a.122.122,0,0,0-.067.132.028.028,0,0,0,0,.016.536.536,0,0,0-.016.182.1.1,0,0,1-.042-.007.218.218,0,0,1,.064-.29.113.113,0,0,0,.044-.047l.02,0Zm2.756-3.492c-.043.088-.233.1-.267,0a.149.149,0,0,1,.078-.169c.1,0,.241.06.191.167Zm2.1,7.021a.205.205,0,0,1-.034.1c.033-.069-.038-.151-.119-.154a.225.225,0,0,0-.02-.214.211.211,0,0,1,.047.023.31.31,0,0,1,.127.243Zm.773-2.741a.464.464,0,0,0-.047-.437.023.023,0,0,1,0-.013.3.3,0,0,1,.158.242.244.244,0,0,1-.114.206Z" transform="translate(-2074.347 -1424.925)"/></g><g transform="translate(21.009 35.575)"><g transform="translate(70.466 39.104)"><path class="g" d="M1981.925,1593.941a26.894,26.894,0,0,1,4.885-10.416.1.1,0,0,0-.011-.114l-.619-.731a.083.083,0,0,0-.053-.031.094.094,0,0,0-.176-.06,27.791,27.791,0,0,0-3.92,9.6q-.173.855-.291,1.72-.077.338-.144.677a.1.1,0,0,0,.047.105.127.127,0,0,1,0,.038c.043.01.087.02.13.033l.058-.014Q1981.871,1594.341,1981.925,1593.941Z" transform="translate(-1979.558 -1582.541)"/><path class="h" d="M1942.083,1812.188a1.755,1.755,0,0,0-.991-.515h-.008a.6.6,0,0,0,0-.092,2.02,2.02,0,0,0,.932.2,1.008,1.008,0,0,0,.8-.452.722.722,0,0,0-.034-.788.74.74,0,0,0-.819-.175,3.084,3.084,0,0,0-1.136.8.018.018,0,0,0,0,.006.587.587,0,0,0-.418-.063,1.942,1.942,0,0,0-.541-.884,1.675,1.675,0,0,0-.944-.472.407.407,0,0,0-.44.532,1.57,1.57,0,0,0,.552.85,1.825,1.825,0,0,0,.546.312,1.447,1.447,0,0,0-.566.067c-.3.1-.611.365-.533.719.067.306.406.378.675.336a2.242,2.242,0,0,0,.8-.32,1.477,1.477,0,0,0-.278.483,1.033,1.033,0,0,0,.02.849.487.487,0,0,0,.63.157.983.983,0,0,0,.519-.591,1.057,1.057,0,0,0,.047-.5,1.027,1.027,0,0,0,.385.356.85.85,0,0,0,.923-.02C1942.471,1812.749,1942.283,1812.4,1942.083,1812.188Zm-1.373-.085h-.043a.021.021,0,0,0-.021.017.5.5,0,0,1-.264-.013.514.514,0,0,1-.121-.058.023.023,0,0,0-.01-.023.024.024,0,0,0-.025,0,.5.5,0,0,1-.178-.475l.044,0c.03,0,.028-.047,0-.047l-.031,0a.549.549,0,0,1,.033-.092.46.46,0,0,1,.283-.244c.009.022.044.011.044-.012a.546.546,0,0,1,.258,0,.349.349,0,0,0-.151.025c-.028.012-.013.056.015.047a.362.362,0,0,1,.472.268h0c-.028-.012-.047.03-.021.042l.04.017a.435.435,0,0,1,0,.161.5.5,0,0,1-.32.382Zm-.015.059a.052.052,0,0,0,.018,0l.01,0a.557.557,0,0,0,.007.063C1940.721,1812.2,1940.709,1812.179,1940.7,1812.162Z" transform="translate(-1938.468 -1799.029)"/></g><g transform="translate(41.375)"><path class="i" d="M1525.066,1993.409a2.485,2.485,0,0,0-1.315-1.253.063.063,0,0,0-.051-.006.066.066,0,0,0-.024,0l-1.9.223h-.008a.074.074,0,0,0-.108.057c-.062.669-.818.908-1.386.914a5.292,5.292,0,0,0-1.774.067,1.151,1.151,0,0,0-.813.849,1.326,1.326,0,0,0,.61,1.22,3.51,3.51,0,0,0,1.536.547,6.286,6.286,0,0,0,1.672.038,5.555,5.555,0,0,0,3.1-1.257A1.346,1.346,0,0,0,1525.066,1993.409Z" transform="translate(-1508.44 -1933.714)"/><path class="i" d="M1844.552,1949.3a2.48,2.48,0,0,0-1.71-.614,1.129,1.129,0,0,0-.07.023l-1.648.973-.007,0a.074.074,0,0,0-.062.028.075.075,0,0,0-.013.067c.213.638-.381,1.162-.9,1.4a5.291,5.291,0,0,0-1.6.778,1.153,1.153,0,0,0-.4,1.1,1.326,1.326,0,0,0,1.051.869,3.51,3.51,0,0,0,1.626-.121,6.279,6.279,0,0,0,1.545-.641,5.568,5.568,0,0,0,2.324-2.4A1.35,1.35,0,0,0,1844.552,1949.3Z" transform="translate(-1813.764 -1892.302)"/><path class="j" d="M1559.731,1511.057a21.2,21.2,0,0,1-4.4-14.115,20.556,20.556,0,0,1,.686-4.36.106.106,0,0,0-.006-.074q.243-.83.559-1.63a.082.082,0,0,0-.057-.112.082.082,0,0,0-.011-.142,19.049,19.049,0,0,0-5.26-.886,31.746,31.746,0,0,0-5.485-.114,15.216,15.216,0,0,0-2.955.54.074.074,0,0,0-.037.111l-.018.035a.09.09,0,0,0-.06.064,34.411,34.411,0,0,0-1.487,9.388,35.214,35.214,0,0,0,1.094,9.453,33.33,33.33,0,0,0,1.485,4.449h.026a.066.066,0,0,0,.03.01,6.992,6.992,0,0,0,2.709-.42.072.072,0,0,0,.043-.1,73.476,73.476,0,0,0,2.032-14.826q.042-1.22.041-2.44a25.939,25.939,0,0,0,3.457,11.077,14.183,14.183,0,0,0,2.72,3.317,10.634,10.634,0,0,0,1.691,1.227c.236.137,1.572.963,1.785.755a.055.055,0,0,0,.041-.013l1.406-1.055a.081.081,0,0,0-.024-.142Z" transform="translate(-1530.844 -1454.831)"/><path class="k" d="M1703.914,763.352c-.865-.624-1.967-.751-2.879-1.283a2.261,2.261,0,0,1-1.05-1.11,3.308,3.308,0,0,1,.2-1.9,2.93,2.93,0,0,0-.944-2.818,4.067,4.067,0,0,0-3.259-.913,6.863,6.863,0,0,0-1.789.483c-.586.239-1.157.519-1.764.708a3.139,3.139,0,0,1-1.884.05,5.524,5.524,0,0,1-1.527-.857,14.148,14.148,0,0,0-1.455-.981,7.179,7.179,0,0,0-1.593-.629,6.554,6.554,0,0,0-3.4,0,5.5,5.5,0,0,0-3.958,4.5,4.574,4.574,0,0,0,2.953,4.766,3.825,3.825,0,0,0,1.4.226.089.089,0,0,0,.053.034,22.446,22.446,0,0,0,4.2.61,2.841,2.841,0,0,0,2.52.913c1.115-.043,2.379-.425,3.412.177a4.058,4.058,0,0,1,1.431,2.084,4.213,4.213,0,0,0,1.246,1.937c1.024.716,2.187.029,3.2-.33,1.176-.417,2.436-.554,3.586-1.053a3.747,3.747,0,0,0,2.106-2.146A2.121,2.121,0,0,0,1703.914,763.352Z" transform="translate(-1661.745 -753.88)"/><path class="i" d="M1741.323,990.673a.015.015,0,0,0,0-.017,5.3,5.3,0,0,1,.041-3.471,5.134,5.134,0,0,1,.428-.9h0l.023-.035-.023,0a.02.02,0,0,0-.015,0,16.952,16.952,0,0,1-2.214-.6.018.018,0,0,0-.022.009l0,.024h0c0,.023.007.047.01.068s.009.044.013.067a.1.1,0,0,1,0,.031,4,4,0,0,1-1.126,3.085c-.233.277-.483.538-.736.8,0,0,0,.009.007.014l.013.032,3.566.923a.019.019,0,0,0,.017,0A.02.02,0,0,0,1741.323,990.673Z" transform="translate(-1718.094 -974.701)"/><path class="l" d="M1766.1,832.631a3.565,3.565,0,0,0-1-1.975,2.788,2.788,0,0,0-1.881-.784q-.112,0-.224,0c-2.274.119-3.206,2.681-3.176,4.637a4.878,4.878,0,0,0,.539,2.245,2.181,2.181,0,0,0,1.717,1.252,3.275,3.275,0,0,0,2.274-1.056,5.882,5.882,0,0,0,1.448-2A4.18,4.18,0,0,0,1766.1,832.631Z" transform="translate(-1739.156 -826.285)"/><path class="m" d="M1360.549,996.808a13.583,13.583,0,0,0-3.644-4.18c-3.054-2.348-7.264-3.664-11.056-2.539a8.9,8.9,0,0,0-.865.306l-.021.008-.007,0-.018.008c-.019.009-.038.018-.057.028l-.015,0c-.047-.014-.094-.021-.142-.032a.1.1,0,0,0-.04,0l-2.842-.632h0l-.078-.016h-.008a.04.04,0,0,1-.042-.036l-.011-.058s0-.005,0-.008a4.8,4.8,0,0,0-3.056-3.512,10.668,10.668,0,0,0-5.554-.327,13.625,13.625,0,0,0-4.712,1.5,13.014,13.014,0,0,0-5.911,8.472,24.7,24.7,0,0,0-.351,7.233,7.9,7.9,0,0,0,.629,2.909A3.032,3.032,0,0,0,1325,1007.7a1.9,1.9,0,0,0,2.116-1.629l-.047-.672a12.4,12.4,0,0,0,2.67,5.7,12.234,12.234,0,0,0,10.554,4.256.036.036,0,0,1,.029-.02,13.076,13.076,0,0,0,7.252-3.492,1.171,1.171,0,0,0,.269-.169,9.85,9.85,0,0,0,7.451.09,10.5,10.5,0,0,0,6.6-9.214A10.821,10.821,0,0,0,1360.549,996.808Z" transform="translate(-1322.01 -974.674)"/><path class="k" d="M1826.109,815.194a2.84,2.84,0,0,0-1.356-.827,2.4,2.4,0,0,0-1.6.135,2.076,2.076,0,0,0-.349.209c-.02.015,0,.044.024.03l.031-.021a.018.018,0,0,0,.013.007c.724.09.857.967.806,1.553a5.956,5.956,0,0,0,.33,2.7c.255.665.664,1.48,1.413,1.685l.043.011a1.3,1.3,0,0,0,1.246-.493,2.612,2.612,0,0,0,.467-1.586A4.685,4.685,0,0,0,1826.109,815.194Z" transform="translate(-1799.169 -811.44)"/><path class="n" d="M1796.183,886.722l-.523.981c-.012.022.022.042.033.02l.523-.982C1796.228,886.719,1796.193,886.7,1796.183,886.722Z" transform="translate(-1773.307 -880.444)"/><path class="n" d="M1790.571,903.5a.271.271,0,0,1-.4-.262.019.019,0,0,0-.039,0,.31.31,0,0,0,.46.3A.019.019,0,1,0,1790.571,903.5Z" transform="translate(-1768.039 -896.175)"/><path class="n" d="M1813.734,931.3a.227.227,0,0,0-.431-.017.157.157,0,0,0,.029.142.2.2,0,0,0,.036.076A.214.214,0,0,0,1813.734,931.3Zm-.31.2-.018-.018a.147.147,0,0,0,.171-.01l.036.006a.019.019,0,0,0,.019-.014.177.177,0,0,0,0-.032c.022,0,.022-.036,0-.039h0a.154.154,0,0,0-.135-.115.019.019,0,0,0-.015.008.018.018,0,0,0,0,.017.084.084,0,0,0-.018.018c-.047.067.007.112.068.136a.126.126,0,0,1-.155-.045.153.153,0,0,1,.214-.174c.023.01.042-.023.02-.034a.194.194,0,0,0-.269.118.17.17,0,0,1,.133-.149.189.189,0,0,1,.2.079c.106.156-.092.384-.248.248Zm.091-.125a.153.153,0,0,0,.033.028v.026a.155.155,0,0,1-.043-.023.318.318,0,0,1,.01-.032Z" transform="translate(-1790.113 -922.772)"/><path class="n" d="M1796.624,945.054a.468.468,0,0,1-.028.058,1.934,1.934,0,0,1-1.325-.69c-.013-.016-.037,0-.033.019a1.276,1.276,0,0,0,.655.908.6.6,0,0,0,.721-.2h.017a.019.019,0,0,0,.005-.037.51.51,0,0,0,.025-.052C1796.67,945.041,1796.633,945.031,1796.624,945.054Zm-.816.21a1.25,1.25,0,0,1-.506-.748,1.974,1.974,0,0,0,1.27.635A.584.584,0,0,1,1795.808,945.264Z" transform="translate(-1772.906 -935.424)"/></g><g transform="translate(0 1.627)"><path class="i" d="M791.056,990.673a.015.015,0,0,1,0-.017,5.305,5.305,0,0,0-.041-3.471,5.143,5.143,0,0,0-.428-.9h0l-.023-.035.023,0a.019.019,0,0,1,.015,0,16.975,16.975,0,0,0,2.214-.6.017.017,0,0,1,.022.009l0,.024h0c0,.023-.007.047-.01.068s-.008.044-.013.067a.092.092,0,0,0,0,.031,4,4,0,0,0,1.126,3.085c.233.277.483.538.736.8,0,0,0,.01-.007.014l-.013.032-3.566.923a.02.02,0,0,1-.017,0A.02.02,0,0,1,791.056,990.673Z" transform="translate(-774.263 -976.329)"/><path class="o" d="M696.221,793.221a.432.432,0,0,0-.325-.169.941.941,0,0,0-.438-1.724,1.026,1.026,0,0,0-1.452-1.451c-.082-.49-.244-1.119-.766-1.3a.733.733,0,0,0-.916.3.713.713,0,0,0-.838-.5.68.68,0,0,1-1.3.357.715.715,0,0,0-.439.873.733.733,0,0,0-.937.233,1.527,1.527,0,0,0,.05,1.51,1.027,1.027,0,0,0-.45,2,.94.94,0,0,0,.552,1.69.431.431,0,0,0-.184.318.568.568,0,0,0,.3.531,3.6,3.6,0,0,0,.82.283.815.815,0,0,1,.532.469.153.153,0,0,1,.035.041,1.3,1.3,0,0,1,.1.214.1.1,0,0,1,.026.035l.024.055a8.845,8.845,0,0,0,3.987-.92,8.683,8.683,0,0,0,.94-.544,1.488,1.488,0,0,1-.042-.283.138.138,0,0,1,.013-.071.829.829,0,0,1,.2-.664,3.556,3.556,0,0,0,.541-.679A.565.565,0,0,0,696.221,793.221Z" transform="translate(-676.182 -788.356)"/><path class="l" d="M721.389,832.631a3.564,3.564,0,0,1,1-1.975,2.787,2.787,0,0,1,1.881-.784q.112,0,.224,0c2.274.119,3.206,2.681,3.176,4.637a4.877,4.877,0,0,1-.539,2.245,2.181,2.181,0,0,1-1.717,1.252,3.275,3.275,0,0,1-2.274-1.056,5.881,5.881,0,0,1-1.448-2A4.18,4.18,0,0,1,721.389,832.631Z" transform="translate(-708.307 -827.912)"/><path class="n" d="M815.283,903.5a.271.271,0,0,0,.4-.262.019.019,0,0,1,.039,0,.31.31,0,0,1-.46.3C815.241,903.525,815.26,903.491,815.283,903.5Z" transform="translate(-797.792 -897.802)"/><path class="n" d="M761.1,919.123a.271.271,0,0,0,.4-.262.019.019,0,0,1,.039,0,.31.31,0,0,1-.46.3C761.057,919.145,761.076,919.111,761.1,919.123Z" transform="translate(-746.164 -912.685)"/><path class="n" d="M792.958,931.511a.2.2,0,0,0,.036-.076.158.158,0,0,0,.029-.142.228.228,0,0,0-.431.017A.214.214,0,0,0,792.958,931.511Zm-.3-.245a.189.189,0,0,1,.2-.079.17.17,0,0,1,.133.149.194.194,0,0,0-.269-.118c-.023.01,0,.044.02.034a.153.153,0,0,1,.214.174.123.123,0,0,1-.155.045c.061-.024.115-.068.068-.136a.08.08,0,0,0-.018-.018.019.019,0,0,0-.019-.025.154.154,0,0,0-.135.115h0a.019.019,0,0,0,0,.039.172.172,0,0,0,0,.032.019.019,0,0,0,.019.014l.036-.006a.147.147,0,0,0,.171.01l-.017.018C792.744,931.649,792.549,931.422,792.657,931.266Zm.166.154a.152.152,0,0,1-.043.023v-.026a.159.159,0,0,0,.033-.028c0,.01.006.02.01.034Z" transform="translate(-776.191 -924.408)"/><path class="n" d="M789.912,945.1a.51.51,0,0,0,.025.052c-.019.006-.018.039.005.037h.017a.6.6,0,0,0,.722.2,1.271,1.271,0,0,0,.654-.908c.005-.018-.02-.034-.033-.019a1.935,1.935,0,0,1-1.325.69.5.5,0,0,1-.028-.058C789.94,945.062,789.9,945.073,789.912,945.1Zm.089.085a1.975,1.975,0,0,0,1.27-.633,1.249,1.249,0,0,1-.506.748.584.584,0,0,1-.763-.113Z" transform="translate(-773.645 -937.083)"/><path class="p" d="M755.928,932.7a.026.026,0,0,0,0-.008c.016-.016-.008-.047-.031-.033a.542.542,0,0,1-.383.059.022.022,0,0,0-.023.034.023.023,0,0,0-.01.026,2.118,2.118,0,0,1-.094,1.338,2.053,2.053,0,0,1-1.218,1.14v0l-.054.022c-.018.007-.037.012-.055.018v0a2.053,2.053,0,0,1-1.666-.084,2.118,2.118,0,0,1-.938-.96.023.023,0,0,0-.025-.013.022.022,0,0,0-.039-.011.541.541,0,0,1-.33.2.468.468,0,0,0,0,.057,2.632,2.632,0,0,0,2.511,1.6,2.6,2.6,0,0,0,.775-.163h.008a2.591,2.591,0,0,0,.7-.378A2.643,2.643,0,0,0,755.928,932.7Z" transform="translate(-736.606 -925.845)"/><path class="i" d="M937.242,1993.409a2.487,2.487,0,0,1,1.316-1.253.063.063,0,0,1,.051-.006.066.066,0,0,1,.024,0l1.9.223h.008a.074.074,0,0,1,.108.057c.062.669.818.908,1.386.914a5.292,5.292,0,0,1,1.774.067,1.151,1.151,0,0,1,.813.849,1.326,1.326,0,0,1-.61,1.22,3.509,3.509,0,0,1-1.536.547,6.286,6.286,0,0,1-1.672.038,5.556,5.556,0,0,1-3.1-1.257A1.346,1.346,0,0,1,937.242,1993.409Z" transform="translate(-913.97 -1935.341)"/><path class="i" d="M632.428,1949.3a2.48,2.48,0,0,1,1.71-.614,1.16,1.16,0,0,1,.07.023l1.652.972.007,0a.074.074,0,0,1,.062.028.075.075,0,0,1,.013.067c-.213.637.381,1.162.9,1.4a5.293,5.293,0,0,1,1.6.778,1.153,1.153,0,0,1,.4,1.1,1.326,1.326,0,0,1-1.051.869,3.514,3.514,0,0,1-1.626-.121,6.269,6.269,0,0,1-1.544-.641,5.567,5.567,0,0,1-2.325-2.4A1.34,1.34,0,0,1,632.428,1949.3Z" transform="translate(-623.317 -1893.929)"/><path class="j" d="M677.438,1511.057a21.205,21.205,0,0,0,4.4-14.115,20.555,20.555,0,0,0-.686-4.36.106.106,0,0,1,.006-.074q-.243-.83-.559-1.63a.083.083,0,0,1,.058-.112.082.082,0,0,1,.011-.142,19.049,19.049,0,0,1,5.26-.886,31.747,31.747,0,0,1,5.485-.114,15.21,15.21,0,0,1,2.954.54.074.074,0,0,1,.037.111l.018.035a.09.09,0,0,1,.06.064,34.416,34.416,0,0,1,1.487,9.388,35.219,35.219,0,0,1-1.094,9.453,33.322,33.322,0,0,1-1.486,4.449h-.025a.066.066,0,0,1-.03.01,6.993,6.993,0,0,1-2.71-.42.072.072,0,0,1-.043-.039.071.071,0,0,1,0-.058,73.48,73.48,0,0,1-2.032-14.826q-.042-1.22-.041-2.44a25.941,25.941,0,0,1-3.457,11.077,14.181,14.181,0,0,1-2.72,3.317,10.64,10.64,0,0,1-1.691,1.227c-.236.137-1.572.963-1.785.755a.056.056,0,0,1-.041-.013l-1.406-1.055a.081.081,0,0,1,.024-.142Z" transform="translate(-666.427 -1456.458)"/><path class="q" d="M446.574,996.808a13.585,13.585,0,0,1,3.644-4.18c3.054-2.348,7.264-3.664,11.056-2.539a8.876,8.876,0,0,1,.865.306l.021.008.007,0,.018.008c.019.009.038.018.057.028l.015,0c.047-.014.094-.021.142-.032a.1.1,0,0,1,.04,0l2.842-.632h0l.078-.016h.008a.04.04,0,0,0,.042-.036l.011-.058a.045.045,0,0,0,0-.008,4.8,4.8,0,0,1,3.056-3.512,10.668,10.668,0,0,1,5.554-.327,13.625,13.625,0,0,1,4.712,1.5q.266.151.523.318a12.611,12.611,0,0,1,5.068,6.964,9.332,9.332,0,0,1,.23,4.055,7.343,7.343,0,0,1-.7,2.04,12.609,12.609,0,0,1-1.216,1.673,4.924,4.924,0,0,1,1.133,3.176c0,1.21-.344,2.016-1.661,2.158a1.906,1.906,0,0,1-2.116-1.629l.047-.672a12.4,12.4,0,0,1-2.67,5.7,12.234,12.234,0,0,1-10.554,4.256.037.037,0,0,0-.029-.02,13.076,13.076,0,0,1-7.252-3.492,1.17,1.17,0,0,1-.269-.169,9.847,9.847,0,0,1-7.451.09,10.5,10.5,0,0,1-6.6-9.214A10.807,10.807,0,0,1,446.574,996.808Z" transform="translate(-445.215 -976.301)"/></g><g transform="translate(8.139 29.874)"><path class="q" d="M625.069,1390.987a.456.456,0,0,0,.173.232l.018.011a15.1,15.1,0,0,0-1.441,2.656c-.444,1.035-.806,2.1-1.164,3.169v.011l-.428,1.66c.118.036.142.231,0,.247l-2.065.231a.131.131,0,0,1-.131-.066.085.085,0,0,1-.115-.049,24.008,24.008,0,0,1-1.011-10.557q.085-.667.21-1.326l-.026-.009a.132.132,0,0,1-.042-.221.943.943,0,0,0,.274-.025c0,.018-.008.036-.011.054A14.331,14.331,0,0,1,625.069,1390.987Z" transform="translate(-618.661 -1386.95)"/><path class="l" d="M620.891,1647.427a.449.449,0,0,1,.058.125l.412,1.2c.092.266.372.61.226.907a.327.327,0,0,1-.386.2c-.2-.073-.23-.317-.266-.5a.513.513,0,0,0-.181-.325.175.175,0,0,0-.207-.029c-.084.054-.089.173-.1.261-.033.26-.06.521-.094.781a5.838,5.838,0,0,1-.357,1.5,2.221,2.221,0,0,1-.978,1.166.9.9,0,0,1-1.218-.3,2.2,2.2,0,0,1,.142-1.649c.216-.613.507-1.2.777-1.793q.236-.519.472-1.041c.1-.226.192-.519.455-.6a1.4,1.4,0,0,1,.446-.01l.485.011a.4.4,0,0,1,.3.092Z" transform="translate(-617.684 -1635.014)"/><path class="r" d="M643.261,1626.618q.021.6-.006,1.191a.015.015,0,0,1,0,0,.585.585,0,0,0-.077,0l-2.035.058a.025.025,0,0,1-.019-.008.025.025,0,0,1-.006-.02.022.022,0,0,1-.016-.015l-.319-.972a.025.025,0,0,1,.015-.031,9.923,9.923,0,0,1,2.438-.231.025.025,0,0,1,.026.023Z" transform="translate(-639.691 -1615.282)"/></g><g transform="translate(29.177 25.206)"><path class="q" d="M1063.632,1288.865c.494-1.016,2.392-.892,3.326-.739a8.784,8.784,0,0,1,3.146,1.18,9.389,9.389,0,0,1,4.085,5.223c.323,1.073.669,2.9-.747,3.345a.139.139,0,0,1-.067.006c-1.338.687-3.583-.537-4.656-1.317a15.3,15.3,0,0,1-2.94-2.991,17.2,17.2,0,0,1-1.882-2.85,2.8,2.8,0,0,1-.382-1.4A1.222,1.222,0,0,1,1063.632,1288.865Z" transform="translate(-1063.512 -1288.024)"/><path class="l" d="M1256.773,1493.136a.4.4,0,0,0-.034.118,2.685,2.685,0,0,0,.189,2.162c.088.126.246.255.38.178s.111-.246.1-.387a1.63,1.63,0,0,1,.029-.437c.018-.087.077-.2.164-.173s.088.135.075.22l-.126.816a1.394,1.394,0,0,0-.039.661,1,1,0,0,0,.939.578,2.325,2.325,0,0,0,1.19-.1,1.1,1.1,0,0,0,.705-.9,1.36,1.36,0,0,0-.6-1.061,5.381,5.381,0,0,1-.915-.673c-.185-.229-.322-.541-.488-.793-.122-.185-.241-.432-.485-.469a1.241,1.241,0,0,0-.4.053l-.425.077a.36.36,0,0,0-.253.123Z" transform="translate(-1247.494 -1483.198)"/><path class="r" d="M1244.146,1475.237q.223.483.485.944v0a.5.5,0,0,1,.063-.029l1.644-.774a.022.022,0,0,0,.009-.032.019.019,0,0,0,.007-.019l-.138-.9a.022.022,0,0,0-.025-.019,8.849,8.849,0,0,0-2.034.8.022.022,0,0,0-.012.013A.022.022,0,0,0,1244.146,1475.237Z" transform="translate(-1235.619 -1465.612)"/></g><g transform="translate(68.758 30.818)"><path class="m" d="M1902.465,1411.345a.455.455,0,0,1-.157.242l-.017.012a14.955,14.955,0,0,1,1.6,2.559c.508,1,.938,2.046,1.362,3.089l0,.011.532,1.629c-.116.043-.127.239.018.246l2.076.1a.13.13,0,0,0,.126-.074.085.085,0,0,0,.068,0,.084.084,0,0,0,.043-.053,24.007,24.007,0,0,0,.339-10.6q-.128-.661-.294-1.31l.025-.011a.132.132,0,0,0,.028-.224.942.942,0,0,1-.275-.007c0,.017.01.035.014.053A14.332,14.332,0,0,0,1902.465,1411.345Z" transform="translate(-1902.29 -1406.95)"/><path class="l" d="M1972.725,1668.891a.443.443,0,0,0-.05.128l-.336,1.22c-.074.271-.333.632-.168.92a.326.326,0,0,0,.4.176c.192-.085.209-.33.234-.511a.514.514,0,0,1,.16-.336.181.181,0,0,1,.2-.042c.087.047.1.167.116.255l.142.774a5.828,5.828,0,0,0,.452,1.472,2.22,2.22,0,0,0,1.049,1.1.9.9,0,0,0,1.2-.381,2.21,2.21,0,0,0-.244-1.637c-.255-.6-.582-1.168-.889-1.743l-.538-1.008c-.117-.219-.224-.507-.492-.573a1.388,1.388,0,0,0-.446.019l-.484.042a.4.4,0,0,0-.3.111Z" transform="translate(-1968.822 -1656.341)"/><path class="r" d="M1975.86,1649.313q.016.6.081,1.188v0a.546.546,0,0,1,.077,0l2.034-.072a.025.025,0,0,0,.019-.009.025.025,0,0,0,.005-.02.021.021,0,0,0,.015-.016l.256-.991a.025.025,0,0,0-.017-.03,9.918,9.918,0,0,0-2.447-.076A.024.024,0,0,0,1975.86,1649.313Z" transform="translate(-1972.388 -1637.813)"/></g><g transform="translate(39.442 24.098)"><path class="m" d="M1315.341,1265.116c-.645-.927-2.5-.511-3.4-.215a8.782,8.782,0,0,0-2.926,1.652,9.4,9.4,0,0,0-3.228,5.792c-.153,1.11-.212,2.967,1.256,3.189a.139.139,0,0,0,.067,0c1.428.472,3.457-1.085,4.4-2.022a15.341,15.341,0,0,0,2.442-3.41,17.023,17.023,0,0,0,1.419-3.106,2.791,2.791,0,0,0,.161-1.438A1.222,1.222,0,0,0,1315.341,1265.116Z" transform="translate(-1304.548 -1264.547)"/><path class="l" d="M1283.832,1496.23a.394.394,0,0,1,.047.113,2.617,2.617,0,0,1,.017,2.265.43.43,0,0,1-.15.167.172.172,0,0,1-.208-.023c-.073-.085-.009-.213.042-.313a1.172,1.172,0,0,0,.119-.383.3.3,0,0,0-.075-.283.236.236,0,0,0-.315.073c-.148.2-.072.485-.04.708a2.718,2.718,0,0,1,.054,1.019,1.12,1.12,0,0,1-1.163.8,1.271,1.271,0,0,1-1.077-.959,1.774,1.774,0,0,1,.189-1.2,4.092,4.092,0,0,1,.59-.834,3.121,3.121,0,0,0,.445-.751c.094-.2.182-.459.419-.528a1.274,1.274,0,0,1,.4,0l.433.02a.364.364,0,0,1,.267.089Z" transform="translate(-1281.045 -1485.161)"/><path class="r" d="M1312.892,1478.457q-.219.485-.477.95v0a.473.473,0,0,0-.063-.028l-1.652-.761a.022.022,0,0,1-.012-.014.023.023,0,0,1,0-.018.019.019,0,0,1-.007-.019l.131-.9a.022.022,0,0,1,.025-.019,8.851,8.851,0,0,1,2.041.782A.022.022,0,0,1,1312.892,1478.457Z" transform="translate(-1309.284 -1467.591)"/></g><g transform="translate(2.585 12.407)"><path class="b" d="M1079.756,1350.059a.539.539,0,0,1,.359-.525.094.094,0,0,0,.012-.163.106.106,0,0,0-.135-.1,1.17,1.17,0,0,1-.908-.079.094.094,0,0,0-.128.1.708.708,0,0,1-.185.661,1.115,1.115,0,0,0-.181.119.106.106,0,0,0,.1.177,1.015,1.015,0,0,0,.183-.135.811.811,0,0,1,.755.019.095.095,0,0,0,.127-.081Zm-.685-.2a.888.888,0,0,0,.094-.425,1.323,1.323,0,0,0,.635.071.7.7,0,0,0-.219.4.981.981,0,0,0-.508-.05Z" transform="translate(-1051.254 -1333.503)"/><path class="b" d="M1006,1227.589l.212-.7.067-.027a.1.1,0,0,0-.078-.174l-.025.01a.084.084,0,0,0-.069,0,.083.083,0,0,0-.048.051,1.63,1.63,0,0,1-.869.055c-.1-.021-.131.115-.063.17h0a.882.882,0,0,1-.172.635.086.086,0,0,0-.017.071l-.068.017c-.118.029-.09.218.03.189l.972-.24a.085.085,0,0,0,.129-.05Zm-.826.024a1.078,1.078,0,0,0,.146-.6,1.792,1.792,0,0,0,.671-.047l-.147.486Z" transform="translate(-980.975 -1216.773)"/><path class="b" d="M861.636,1375.57a1.073,1.073,0,0,0-1.576-.613c-.07.041-.018.157.052.116a.963.963,0,0,1,1.426,1.038.751.751,0,0,1-.9.637.5.5,0,0,1-.359-.407.435.435,0,0,1,.135-.382.17.17,0,0,1,.16-.081q.255-.094.133.326c-.08.016-.061.142.02.125.5-.1.125-.847-.358-.513s-.134,1.021.363,1.079C861.441,1376.977,861.823,1376.166,861.636,1375.57Z" transform="translate(-843.037 -1357.911)"/><path class="b" d="M739.8,1150.434a.329.329,0,0,0-.487.4c.031.075.147.023.116-.052-.105-.256.23-.347.362-.177a.3.3,0,0,1,.011.342.479.479,0,0,1-.631.146.523.523,0,0,1,.086-.967l.047.084c.041.07.157.018.116-.052l-.078-.133a.066.066,0,0,0-.068-.036.682.682,0,0,0-.511.812.671.671,0,0,0,.914.419A.459.459,0,0,0,739.8,1150.434Z" transform="translate(-727.475 -1143.701)"/><path class="b" d="M1131.654,1221.488a.5.5,0,0,0-.666-.264.064.064,0,0,0,.052.116.351.351,0,0,1,.436.525.3.3,0,0,1-.437.069.164.164,0,0,1-.047-.225.159.159,0,0,1,.2-.075c.078.042.145-.065.073-.1a.3.3,0,0,0-.43.233c-.034.267.292.413.512.346A.5.5,0,0,0,1131.654,1221.488Z" transform="translate(-1101.068 -1211.537)"/><path class="b" d="M774.409,1256.287l-.173-.28.408-.277a.064.064,0,0,0-.034-.112l-.608.011-.438-.708c-.042-.068-.15-.025-.116.052a1.749,1.749,0,0,1,.15.664l-.607.011c-.081,0-.094.128-.013.126l.618-.012q0,.068-.012.135a2.179,2.179,0,0,0-.789-.028.064.064,0,0,0,.02.126,2.049,2.049,0,0,1,.748.027,1.82,1.82,0,0,1-.129.392c-.029.063.053.1.1.071l.459-.312a2.116,2.116,0,0,1,.322.193C774.362,1256.4,774.444,1256.343,774.409,1256.287Zm-.017-.54-.223.152-.09-.146Zm-.691-.365.154.249-.131,0A1.84,1.84,0,0,0,773.7,1255.382Zm.022.378.209,0,.133.214-.084.057a2.106,2.106,0,0,0-.273-.1Q773.72,1255.844,773.724,1255.76Zm-.094.507a1.881,1.881,0,0,0,.058-.214c.057.017.114.037.17.059Z" transform="translate(-759.875 -1243.651)"/><path class="b" d="M939.326,1116.755l.189-.557.4-.083a.064.064,0,0,0,.039-.1,1.762,1.762,0,0,0-.268-.309l.085-.25c.016-.047-.035-.109-.086-.08l-.248.142a1.761,1.761,0,0,0-.651-.239.064.064,0,0,0-.065.089l.164.465-.708.407c-.07.04-.019.157.052.116l.7-.4.079.225-.387.081c-.08.017-.06.142.02.126l.41-.087.163.462a.064.064,0,0,0,.114,0Zm.466-.745-.231.047.076-.224A1.69,1.69,0,0,1,939.792,1116.01Zm-.921-.588a1.6,1.6,0,0,1,.434.165l-.313.179Zm.164.465.392-.225c.036.025.072.052.107.08l-.117.346-.289.061Zm.335.341-.1.308-.094-.268Z" transform="translate(-917.464 -1110.628)"/><path class="b" d="M989.46,1423.306l-.151-.327.378-.193a.064.064,0,0,0-.019-.121l-.54-.081-.172-.373c-.025-.054-.119-.047-.121.019a1.633,1.633,0,0,1-.036.3l-.266-.04a.064.064,0,0,0-.088-.013l-.224-.033c-.081-.012-.094.114-.013.126l.247.037a1.749,1.749,0,0,0,.208.3,1.529,1.529,0,0,1-.335.433c-.051.047,0,.142.067.107l.551-.283a1.716,1.716,0,0,0,.437.226.064.064,0,0,0,.08-.083Zm0-.545-.2.1-.066-.142Zm-.563-.084.148.022.1.222-.185.094a1.509,1.509,0,0,1-.142-.128,1.588,1.588,0,0,0,.076-.21Zm.047-.2.039.084-.053-.008q.005-.037.012-.075Zm-.324.158.15.023c-.013.042-.028.083-.044.124a1.558,1.558,0,0,1-.108-.144Zm.031.541a1.616,1.616,0,0,0,.109-.169c.026.025.052.049.08.073Zm.551-.141.082.177a1.571,1.571,0,0,1-.2-.114Z" transform="translate(-965.116 -1403.044)"/><path class="b" d="M703.312,1405.907l-.425-.7a.247.247,0,0,0,.06-.091c.041-.105-.113-.155-.17-.072a.1.1,0,0,0-.12.02l-.011-.011-.006-.057c-.01-.1-.161-.137-.185-.025a.236.236,0,0,0,.008.139l.128,1.21a.094.094,0,0,0,.189,0l.007-.2a.472.472,0,0,0,.511-.091A.094.094,0,0,0,703.312,1405.907Zm-.519-.01.016-.456.295.489a.275.275,0,0,1-.31-.033Z" transform="translate(-692.894 -1386.584)"/><path class="b" d="M1073.027,1105.778a.425.425,0,0,0-.472.151.22.22,0,0,1,.018-.051c.055-.108-.108-.2-.163-.094a.44.44,0,0,0,.1.523.4.4,0,0,0,.559-.036.434.434,0,0,0,.121-.286A.2.2,0,0,0,1073.027,1105.778Zm-.032.244a.255.255,0,0,1-.1.153.206.206,0,0,1-.293-.053.079.079,0,0,0,.089-.047.229.229,0,0,1,.236-.128C1072.977,1105.953,1073,1105.963,1072.994,1106.021Z" transform="translate(-1045.354 -1101.538)"/><path class="b" d="M667.038,1263.069a.26.26,0,0,0-.262-.107.46.46,0,0,1,.039-.047c.085-.087-.047-.22-.133-.133a.616.616,0,0,0-.142.648.1.1,0,0,0,.091.069l.385,0a.1.1,0,0,0,.091-.069A.377.377,0,0,0,667.038,1263.069Zm-.111.183a.174.174,0,0,1,.009.057H666.7a.466.466,0,0,1-.009-.073.159.159,0,0,0,.041.032A.176.176,0,0,0,666.927,1263.252Z" transform="translate(-658.644 -1251.146)"/><path class="b" d="M641.093,1130.708l-.529.4-.223-.223a.1.1,0,0,0-.134.134l.2.2-.452.339c-.094.072,0,.236.094.163l.49-.368.37.369a.094.094,0,0,0,.133-.134l-.351-.351.489-.367C641.285,1130.8,641.191,1130.635,641.093,1130.708Z" transform="translate(-633.319 -1125.316)"/><path class="b" d="M865.285,1536.828a.371.371,0,0,0-.006-.31.257.257,0,0,0-.357-.135.205.205,0,0,0-.023.02h-.009a.3.3,0,0,0-.324.349.037.037,0,0,0,0,.017.31.31,0,0,0,.092.36c.073.057.185,0,.263-.021a1.017,1.017,0,0,0,.1-.039.081.081,0,0,0,.082-.043.514.514,0,0,0,.058-.041h.053C865.311,1536.992,865.333,1536.883,865.285,1536.828Z" transform="translate(-847.345 -1511.831)"/><path class="b" d="M1024.429,1533.233l-.149-.062.209-.251c.077-.094-.056-.227-.134-.134l-.258.309-.374-.155c-.112-.047-.161.136-.05.182l.3.124-.325.389c-.077.094.056.227.134.134l.373-.448.224.094C1024.491,1533.461,1024.541,1533.279,1024.429,1533.233Z" transform="translate(-998.903 -1508.407)"/><path class="b" d="M894.675,1253.669a.219.219,0,0,0-.094-.2c-.176-.12-.324.125-.336.278a.356.356,0,0,0,0,.068.094.094,0,0,0,.026.135l.026.015a.181.181,0,0,0,.037.04.207.207,0,0,0,.231-.029A.3.3,0,0,0,894.675,1253.669Zm-.21,0a.1.1,0,0,0,.017.016h0a.168.168,0,0,1-.047.094.179.179,0,0,1,.03-.112Z" transform="translate(-875.623 -1242.271)"/><path class="b" d="M1011.935,1016.884a.352.352,0,0,0-.4-.039.094.094,0,0,0-.034.129l.272.408a.094.094,0,0,0,.136.025h.009a.611.611,0,0,1,.115-.031A.28.28,0,0,0,1011.935,1016.884Z" transform="translate(-987.349 -1016.8)"/><path class="b" d="M520.285,1394.34l-.4-.258-.008-.462a.071.071,0,0,0-.142,0l.007.371-.085-.054c-.077-.047-.148.073-.071.122l.16.1.007.394a.071.071,0,0,0,.09.068l.43-.153a.072.072,0,0,0,.016-.13Zm-.4-.088.205.131-.2.072Z" transform="translate(-518.626 -1375.774)"/><path class="b" d="M500.918,1249.23l-.229-.443.13-.065c.054-.027.007-.109-.047-.082l-.126.063-.212-.41c-.028-.054-.109-.006-.082.047l.21.4-.546.273c-.054.027-.007.109.047.082l.541-.27.232.449C500.865,1249.331,500.946,1249.284,500.918,1249.23Z" transform="translate(-499.993 -1237.346)"/><path class="b" d="M611.971,1366.705a.679.679,0,0,1-.729-.623c0-.06-.1-.061-.094,0a.353.353,0,0,0,.006.05.04.04,0,0,0-.032.014.04.04,0,0,0-.009.033,1.124,1.124,0,0,1-.33.9.047.047,0,0,0-.012.046.047.047,0,0,0,.033.033,1.183,1.183,0,0,1,.88.711.047.047,0,1,0,.091-.025,1.353,1.353,0,0,1,.239-1.059.047.047,0,0,0-.042-.075Zm-.316.91a1.268,1.268,0,0,0-.751-.538,1.208,1.208,0,0,0,.3-.746.771.771,0,0,0,.673.472A1.43,1.43,0,0,0,611.655,1367.615Z" transform="translate(-605.54 -1349.556)"/><path class="b" d="M625.565,1491.645l-.205-.472.006,0a.047.047,0,0,0-.036-.086h-.009l-.145-.336c-.015-.035-.064-.026-.082,0l-.29.432-.3.056c-.05.01-.039.076,0,.091l.162.062-.117.175a.044.044,0,0,0,.03.068l-.014.01c-.047.036,0,.117.047.082l.316-.232.584.225C625.555,1491.73,625.579,1491.678,625.565,1491.645Zm-.439-.777.1.232-.293.054Zm.023.342-.236.173-.105-.041.053-.079Zm-.5.365.1-.153.069.027Zm.631-.347.155.358-.419-.161Z" transform="translate(-618.594 -1468.359)"/><path class="b" d="M1169.157,1110.455l-.363.118-.245-.573c-.024-.056-.105-.008-.082.047l.236.554-.484.157c-.058.019-.033.11.025.091l.5-.161.291.68c.024.056.105.007.082-.047l-.283-.661.351-.114C1169.239,1110.527,1169.215,1110.436,1169.157,1110.455Z" transform="translate(-1136.654 -1105.578)"/><path class="b" d="M1227.259,1244.6c-.451-.193-.891.365-.708.778.024.055.106.008.082-.047-.175-.393.369-.908.708-.559a.535.535,0,0,1,.131.447.449.449,0,0,1-.094.221c-.087.106-.159.033-.2-.066.039.02.087-.037.053-.078l-.1-.116c-.028-.033-.079,0-.081.033a.418.418,0,0,0,.22.4.047.047,0,0,0,.047,0A.593.593,0,0,0,1227.259,1244.6Z" transform="translate(-1192.225 -1233.812)"/><path class="b" d="M1158.879,1376.535l-.33-.247a1.615,1.615,0,0,1,.244-.245c.047-.038-.02-.1-.067-.067a1.671,1.671,0,0,0-.253.255l-.35-.262c-.047-.036-.094.047-.047.082l.342.256a1.631,1.631,0,0,0-.269.634c-.011.06.079.085.091.025a1.56,1.56,0,0,1,.254-.6l.337.253C1158.88,1376.653,1158.927,1376.571,1158.879,1376.535Z" transform="translate(-1127.002 -1359.011)"/></g><g transform="translate(43.351 12.407)"><path class="b" d="M1500.741,1350.109a.811.811,0,0,1,.755-.019,1.019,1.019,0,0,0,.183.135.086.086,0,0,0,.128-.075.084.084,0,0,0-.027-.1,1.084,1.084,0,0,0-.181-.119.707.707,0,0,1-.184-.661.094.094,0,0,0-.128-.1,1.169,1.169,0,0,1-.908.079.106.106,0,0,0-.135.1.095.095,0,0,0,.012.163.539.539,0,0,1,.359.525.094.094,0,0,0,.128.079Zm.047-.23a.694.694,0,0,0-.219-.4,1.319,1.319,0,0,0,.635-.071.887.887,0,0,0,.094.425.978.978,0,0,0-.508.049Z" transform="translate(-1493.768 -1333.474)"/><path class="b" d="M1576.012,1227.579l.972.24c.119.029.148-.159.03-.189l-.068-.017a.087.087,0,0,0-.017-.071.881.881,0,0,1-.172-.635h0c.069-.055.041-.189-.063-.17a1.626,1.626,0,0,1-.869-.055.083.083,0,0,0-.117-.047l-.025-.01a.1.1,0,0,0-.078.174l.067.027.212.7a.085.085,0,0,0,.129.05Zm.026-.189-.147-.486a1.787,1.787,0,0,0,.671.047,1.078,1.078,0,0,0,.146.6Z" transform="translate(-1565.562 -1216.716)"/><path class="b" d="M1717.865,1375.57a1.073,1.073,0,0,1,1.576-.614c.07.041.018.157-.052.116a.963.963,0,0,0-1.426,1.038.751.751,0,0,0,.9.637.5.5,0,0,0,.359-.407.435.435,0,0,0-.135-.382.169.169,0,0,0-.16-.081q-.255-.094-.133.326c.08.016.061.141-.02.126-.5-.1-.125-.847.358-.513s.134,1.021-.363,1.079C1718.062,1376.978,1717.678,1376.166,1717.865,1375.57Z" transform="translate(-1701.116 -1357.912)"/><path class="b" d="M1848.281,1150.408a.329.329,0,0,1,.488.4c-.031.076-.147.023-.116-.052.105-.256-.23-.347-.362-.177a.3.3,0,0,0-.011.342.479.479,0,0,0,.631.146.523.523,0,0,0-.086-.967l-.047.084c-.041.07-.157.019-.116-.052l.078-.133a.066.066,0,0,1,.068-.037.682.682,0,0,1,.511.812.671.671,0,0,1-.914.42A.458.458,0,0,1,1848.281,1150.408Z" transform="translate(-1825.256 -1143.674)"/><path class="b" d="M1464.295,1221.488a.5.5,0,0,1,.666-.264.064.064,0,0,1-.052.116.351.351,0,0,0-.436.525.3.3,0,0,0,.437.069.164.164,0,0,0,.047-.225.159.159,0,0,0-.2-.075c-.078.042-.145-.065-.074-.1a.3.3,0,0,1,.43.233c.034.267-.292.413-.511.346A.5.5,0,0,1,1464.295,1221.488Z" transform="translate(-1459.533 -1211.537)"/><path class="b" d="M1799.9,1256.365a2.137,2.137,0,0,1,.322-.193l.458.312c.047.032.129-.008.1-.071a1.816,1.816,0,0,1-.129-.392,2.044,2.044,0,0,1,.748-.027.064.064,0,0,0,.02-.125,2.18,2.18,0,0,0-.789.028q-.009-.067-.012-.135l.618.012c.082,0,.068-.125-.013-.126l-.607-.011a1.746,1.746,0,0,1,.15-.664c.034-.077-.074-.12-.116-.052l-.438.708-.608-.011a.064.064,0,0,0-.034.112l.408.277-.173.28C1799.768,1256.343,1799.85,1256.4,1799.9,1256.365Zm.236-.613-.09.146-.223-.152Zm.354-.12-.131,0,.154-.249a1.8,1.8,0,0,0-.026.253Zm.016.295a2.115,2.115,0,0,0-.273.1l-.084-.057.133-.214.209,0a1.315,1.315,0,0,0,.012.172Zm-.148.184q.083-.033.17-.059a1.857,1.857,0,0,0,.058.214Z" transform="translate(-1778.989 -1243.651)"/><path class="b" d="M1636.973,1116.777l.163-.462.41.087c.08.017.1-.109.02-.126l-.387-.081.079-.225.7.4c.071.041.123-.075.052-.116l-.708-.407.164-.465a.064.064,0,0,0-.065-.089,1.764,1.764,0,0,0-.651.239l-.248-.141c-.05-.029-.1.032-.086.08l.085.25a1.773,1.773,0,0,0-.269.309.065.065,0,0,0,.039.1l.4.084.189.557a.064.064,0,0,0,.114,0Zm-.428-.924.076.224-.231-.047a1.7,1.7,0,0,1,.155-.176Zm.644-.069-.313-.179a1.6,1.6,0,0,1,.434-.165Zm-.135.384-.289-.061-.117-.346q.051-.042.107-.08l.392.225Zm-.042.121-.094.268-.1-.31Z" transform="translate(-1623.369 -1110.647)"/><path class="b" d="M1591.848,1423.456a1.722,1.722,0,0,0,.437-.226l.551.283c.067.034.118-.061.067-.107a1.534,1.534,0,0,1-.335-.433,1.739,1.739,0,0,0,.208-.3l.247-.037c.081-.012.068-.139-.013-.127l-.224.033a.064.064,0,0,0-.088.013l-.266.04a1.641,1.641,0,0,1-.036-.3c0-.066-.094-.074-.121-.019l-.172.373-.54.081a.065.065,0,0,0-.055.054.064.064,0,0,0,.035.068l.377.193-.151.328a.064.064,0,0,0,.08.084Zm.189-.67-.066.141-.2-.1Zm.378.167a1.5,1.5,0,0,1-.142.128l-.185-.094.1-.222.148-.022a1.591,1.591,0,0,0,.076.21Zm-.109-.335-.053.008.039-.084c0,.025.009.05.014.075Zm.2.228a1.3,1.3,0,0,1-.044-.124l.15-.023a1.576,1.576,0,0,1-.106.146Zm-.114.3q.041-.036.08-.073a1.617,1.617,0,0,0,.109.169Zm-.24.02a1.555,1.555,0,0,1-.2.114l.082-.177Z" transform="translate(-1580.764 -1403.107)"/><path class="b" d="M1891.924,1406.031a.472.472,0,0,0,.511.091l.007.2a.094.094,0,0,0,.189,0l.128-1.21a.239.239,0,0,0,.008-.139c-.025-.112-.175-.073-.185.025l-.006.058-.011.011a.1.1,0,0,0-.12-.02c-.057-.083-.211-.033-.17.072a.246.246,0,0,0,.06.091l-.425.705A.1.1,0,0,0,1891.924,1406.031Zm.192-.092.295-.489.016.456a.275.275,0,0,1-.311.033Z" transform="translate(-1866.98 -1386.593)"/><path class="b" d="M1523.11,1105.976a.435.435,0,0,0,.121.286.4.4,0,0,0,.559.036.44.44,0,0,0,.1-.523c-.055-.109-.217-.013-.163.094a.22.22,0,0,1,.018.052.425.425,0,0,0-.472-.151A.2.2,0,0,0,1523.11,1105.976Zm.267-.036a.23.23,0,0,1,.236.128.079.079,0,0,0,.089.047.206.206,0,0,1-.293.053.255.255,0,0,1-.1-.153c-.012-.06.016-.07.072-.076Z" transform="translate(-1515.596 -1101.531)"/><path class="b" d="M1933.259,1263.458a.1.1,0,0,0,.091.069l.385,0a.1.1,0,0,0,.091-.069.616.616,0,0,0-.142-.648c-.085-.087-.219.047-.134.134a.453.453,0,0,1,.039.047.26.26,0,0,0-.262.107A.378.378,0,0,0,1933.259,1263.458Zm.374-.159a.157.157,0,0,0,.041-.031.44.44,0,0,1-.009.073h-.236a.178.178,0,0,1,.009-.057A.176.176,0,0,0,1933.633,1263.3Z" transform="translate(-1906.373 -1251.176)"/><path class="b" d="M1945.464,1130.708l.528.4.223-.223a.1.1,0,0,1,.134.134l-.2.2.452.339c.094.072,0,.236-.094.163l-.49-.368-.37.369a.094.094,0,0,1-.134-.134l.351-.351-.489-.367C1945.272,1130.8,1945.366,1130.635,1945.464,1130.708Z" transform="translate(-1917.89 -1125.316)"/><path class="b" d="M1732.143,1536.828a.371.371,0,0,1,.006-.31.257.257,0,0,1,.357-.135.206.206,0,0,1,.023.02h.009a.3.3,0,0,1,.324.349.037.037,0,0,1,0,.017.31.31,0,0,1-.092.36c-.073.057-.185,0-.263-.021a1.011,1.011,0,0,1-.1-.039.081.081,0,0,1-.082-.043.551.551,0,0,1-.058-.041h-.053A.092.092,0,0,1,1732.143,1536.828Z" transform="translate(-1714.735 -1511.831)"/><path class="b" d="M1570.309,1533.233l.149-.062-.209-.251c-.077-.094.056-.227.134-.134l.257.31.374-.155c.112-.047.161.136.05.182l-.3.123.324.39c.078.094-.055.227-.134.133l-.373-.448-.224.094C1570.247,1533.461,1570.2,1533.279,1570.309,1533.233Z" transform="translate(-1560.487 -1508.407)"/><path class="b" d="M1709.144,1253.978a.2.2,0,0,0,.231.029.177.177,0,0,0,.037-.04l.026-.015a.094.094,0,0,0,.026-.135.39.39,0,0,0,0-.068c-.012-.153-.16-.4-.336-.278a.219.219,0,0,0-.094.2A.3.3,0,0,0,1709.144,1253.978Zm.131-.2a.172.172,0,0,1-.047-.094h0a.1.1,0,0,0,.018-.016A.179.179,0,0,1,1709.274,1253.779Z" transform="translate(-1692.738 -1242.271)"/><path class="b" d="M1587.715,1016.884a.352.352,0,0,1,.4-.039.095.095,0,0,1,.034.129l-.272.408a.094.094,0,0,1-.136.025h-.01a.609.609,0,0,0-.115-.031A.28.28,0,0,1,1587.715,1016.884Z" transform="translate(-1576.954 -1016.8)"/><path class="b" d="M2077.131,1394.47l.43.153a.072.072,0,0,0,.062-.012.071.071,0,0,0,.028-.056l.007-.393.16-.1c.076-.047.006-.171-.071-.122l-.086.054.007-.371a.071.071,0,0,0-.142,0l-.008.462-.4.258a.072.072,0,0,0,.016.13Zm.38-.014-.2-.072.205-.131Z" transform="translate(-2043.425 -1375.774)"/><path class="b" d="M2093.215,1249.23l.229-.443-.13-.065c-.054-.027-.006-.109.047-.082l.125.063.212-.41c.028-.054.109-.006.082.047l-.209.4.545.273c.054.027.007.109-.047.082l-.541-.27-.232.449C2093.269,1249.331,2093.187,1249.284,2093.215,1249.23Z" transform="translate(-2058.792 -1237.346)"/><path class="b" d="M1975.648,1366.69a1.353,1.353,0,0,1,.239,1.059.047.047,0,1,0,.091.025,1.183,1.183,0,0,1,.88-.711.047.047,0,0,0,.021-.079,1.124,1.124,0,0,1-.33-.9.041.041,0,0,0-.009-.033.04.04,0,0,0-.032-.014c0-.016,0-.033.006-.05,0-.061-.09-.06-.094,0a.679.679,0,0,1-.729.625.047.047,0,0,0-.042.074Zm.13.024a.771.771,0,0,0,.673-.472,1.209,1.209,0,0,0,.3.746,1.267,1.267,0,0,0-.751.538A1.43,1.43,0,0,0,1975.778,1366.714Z" transform="translate(-1946.771 -1349.47)"/><path class="b" d="M1965.192,1491.7l.584-.225.316.232c.047.036.094-.047.047-.082l-.014-.01a.044.044,0,0,0,.034-.025.043.043,0,0,0,0-.042l-.117-.175.162-.062c.039-.015.051-.082,0-.091l-.3-.056-.29-.432c-.017-.026-.066-.035-.082,0l-.146.336h-.008a.047.047,0,0,0-.036.086l.006,0-.205.472C1965.125,1491.668,1965.149,1491.721,1965.192,1491.7Zm.578-.56-.292-.054.1-.232Zm.073.109.053.079-.105.041-.236-.173Zm.038.186.069-.026.1.153Zm-.194-.026-.419.161.154-.356Z" transform="translate(-1936.761 -1468.35)"/><path class="b" d="M1423.01,1110.455l.363.118.245-.573c.024-.056.105-.008.082.047l-.236.554.484.157c.057.019.033.11-.025.091l-.5-.161-.291.68c-.024.056-.105.007-.082-.047l.283-.661-.351-.114C1422.928,1110.527,1422.953,1110.436,1423.01,1110.455Z" transform="translate(-1420.165 -1105.578)"/><path class="b" d="M1364.193,1244.6c.451-.193.891.365.708.778-.024.055-.106.008-.082-.047.175-.393-.369-.908-.708-.559a.535.535,0,0,0-.131.447.444.444,0,0,0,.094.221c.087.106.159.033.2-.066-.039.02-.087-.037-.053-.078l.1-.116c.028-.033.079,0,.081.033a.418.418,0,0,1-.22.4.047.047,0,0,1-.047,0A.593.593,0,0,1,1364.193,1244.6Z" transform="translate(-1363.879 -1233.812)"/><path class="b" d="M1437.034,1376.535l.33-.247a1.6,1.6,0,0,0-.244-.245c-.047-.038.02-.1.067-.067a1.661,1.661,0,0,1,.254.255l.35-.262c.047-.036.094.047.047.082l-.342.256a1.633,1.633,0,0,1,.269.634c.011.06-.079.085-.091.025a1.558,1.558,0,0,0-.254-.6l-.337.253C1437.033,1376.653,1436.986,1376.571,1437.034,1376.535Z" transform="translate(-1433.563 -1359.011)"/></g></g><g transform="translate(56.252 17.328)"><path class="s" d="M1204.391,743.995a1.879,1.879,0,0,0-.849-1.635,1.137,1.137,0,0,0-1.455.4,2.224,2.224,0,0,0-.251,1.776,2.6,2.6,0,0,0-1.18-.947,1.4,1.4,0,0,0-1.422.289,1.3,1.3,0,0,0,.1,1.663,8.571,8.571,0,0,0,1.68,1.6c.732.587,1.506,1.119,2.288,1.637a.12.12,0,0,0,.181-.047A13.012,13.012,0,0,0,1204.391,743.995Z" transform="translate(-1198.646 -724.539)"/><path class="s" d="M1360.794,561.894a1.88,1.88,0,0,1,.131-1.837,1.137,1.137,0,0,1,1.5-.207,2.227,2.227,0,0,1,.934,1.531,2.606,2.606,0,0,1,.708-1.337,1.39,1.39,0,0,1,1.42-.3,1.306,1.306,0,0,1,.566,1.567,8.636,8.636,0,0,1-.907,2.139c-.439.829-.939,1.625-1.452,2.41a.119.119,0,0,1-.185.029A12.928,12.928,0,0,1,1360.794,561.894Z" transform="translate(-1352.665 -550.577)"/><path class="s" d="M1192.5,511.643a1.322,1.322,0,0,1-.413-1.227.8.8,0,0,1,.912-.539,1.562,1.562,0,0,1,1.02.739,1.823,1.823,0,0,1,.1-1.058.978.978,0,0,1,.839-.578c.472.006.714.453.79.862a6.082,6.082,0,0,1-.008,1.63c-.06.656-.167,1.306-.286,1.954a.084.084,0,0,1-.112.069A9.023,9.023,0,0,1,1192.5,511.643Z" transform="translate(-1192.048 -502.289)"/><path class="s" d="M1343.887,368.274a1.076,1.076,0,0,1,.411-.969.653.653,0,0,1,.849.165,1.271,1.271,0,0,1,.221,1,1.483,1.483,0,0,1,.632-.592.8.8,0,0,1,.823.1.747.747,0,0,1,.015.952,4.933,4.933,0,0,1-.887.989c-.392.367-.809.7-1.232,1.034a.068.068,0,0,1-.105-.018A7.348,7.348,0,0,1,1343.887,368.274Z" transform="translate(-1336.722 -367.211)"/></g></g></svg>