<svg xmlns="http://www.w3.org/2000/svg" width="72.304" height="86.919" viewBox="0 0 72.304 86.919"><defs><style>.a{fill:#6668a3;}.b{fill:#ebb9bf;}</style></defs><g transform="translate(-5.38)"><path class="a" d="M34.8,28.16a1.047,1.047,0,0,0-.907-.522H10.242a1.047,1.047,0,0,0-.907.522c-.272.459-6.443,11.437-2.815,22.133,2.075,6.141,6.964,10.874,14.5,14.085V84.834H13.348v2.085H30.79V84.834H23.106V64.378c7.548-3.211,12.438-7.945,14.513-14.085C41.247,39.6,35.075,28.618,34.8,28.16Zm.834,21.476c-1.877,5.546-6.37,9.852-13.334,12.823h-.469C14.872,59.488,10.378,55.182,8.5,49.636a18.386,18.386,0,0,1-.9-4.274H36.535A18.386,18.386,0,0,1,35.638,49.636ZM7.478,43.277a31.751,31.751,0,0,1,3.388-13.554h22.4A31.772,31.772,0,0,1,36.66,43.277ZM72,50.991H53.091a1.033,1.033,0,0,0-1.043,1.043V72.009a1.04,1.04,0,0,0,1.043,1.043H72a1.046,1.046,0,0,0,1.043-1.043V52.034A1.04,1.04,0,0,0,72,50.991ZM70.96,70.968H54.133V53.077H70.96ZM72,50.991H53.091a1.033,1.033,0,0,0-1.043,1.043V72.009a1.04,1.04,0,0,0,1.043,1.043H72a1.046,1.046,0,0,0,1.043-1.043V52.034A1.04,1.04,0,0,0,72,50.991ZM70.96,70.968H54.133V53.077H70.96Zm4.421-32.5c-7.423-8.955-7.6-24.052-7.58-26.5V2.586A2.585,2.585,0,0,0,65.217,0h-5.35a2.592,2.592,0,0,0-2.586,2.586v9.008c.011.011,0,.011,0,.02v.354h.011c.02,2.45-.145,17.536-7.58,26.5A10.107,10.107,0,0,0,47.4,44.925v37.2a3.536,3.536,0,0,0,3.534,3.534H74.15a3.536,3.536,0,0,0,3.534-3.534v-37.2A10.089,10.089,0,0,0,75.381,38.471ZM59.367,2.586a.5.5,0,0,1,.5-.5h5.348a.493.493,0,0,1,.5.5V10.54H59.366V2.586ZM75.6,82.123a1.446,1.446,0,0,1-1.449,1.449H50.933a1.446,1.446,0,0,1-1.449-1.449v-37.2a8.029,8.029,0,0,1,1.835-5.13c7.444-8.977,8.048-23.134,8.059-27.169h6.329c.02,4.035.615,18.193,8.07,27.169a8.08,8.08,0,0,1,1.824,5.13ZM72,50.991H53.091a1.033,1.033,0,0,0-1.043,1.043V72.009a1.04,1.04,0,0,0,1.043,1.043H72a1.046,1.046,0,0,0,1.043-1.043V52.034A1.04,1.04,0,0,0,72,50.991ZM70.96,70.968H54.133V53.077H70.96ZM72,50.991H53.091a1.033,1.033,0,0,0-1.043,1.043V72.009a1.04,1.04,0,0,0,1.043,1.043H72a1.046,1.046,0,0,0,1.043-1.043V52.034A1.04,1.04,0,0,0,72,50.991ZM70.96,70.968H54.133V53.077H70.96ZM72,50.991H53.091a1.033,1.033,0,0,0-1.043,1.043V72.009a1.04,1.04,0,0,0,1.043,1.043H72a1.046,1.046,0,0,0,1.043-1.043V52.034A1.04,1.04,0,0,0,72,50.991ZM70.96,70.968H54.133V53.077H70.96Z" transform="translate(0)"/><path class="b" d="M35.948,33.4a18.386,18.386,0,0,1-.9,4.274c-1.877,5.546-6.37,9.852-13.334,12.823h-.469C14.285,47.527,9.791,43.221,7.915,37.675a18.386,18.386,0,0,1-.9-4.274Z" transform="translate(0.587 11.961)"/><path class="b" d="M62.146,36.466C54.692,27.489,54.1,13.332,54.077,9.3H47.748c-.011,4.035-.615,18.193-8.059,27.169a8.029,8.029,0,0,0-1.835,5.13v37.2A1.446,1.446,0,0,0,39.3,80.243H62.521a1.446,1.446,0,0,0,1.449-1.449V41.6A8.062,8.062,0,0,0,62.146,36.466ZM61.417,68.68a1.046,1.046,0,0,1-1.043,1.043H41.462a1.039,1.039,0,0,1-1.043-1.043V48.705a1.033,1.033,0,0,1,1.043-1.043H60.374a1.04,1.04,0,0,1,1.043,1.043V68.68Z" transform="translate(11.629 3.329)"/></g></svg>