<svg xmlns="http://www.w3.org/2000/svg" xmlns:xlink="http://www.w3.org/1999/xlink" width="221.421" height="91.187" viewBox="0 0 221.421 91.187"><defs><style>.a{fill:#ede8e8;}.b{clip-path:url(#a);}.c{fill:#a4ccff;}.d{fill:#ffe07d;}.e{fill:#ffd064;}.f{fill:#fff0af;}.g{fill:#95d6a4;}.h{fill:#8bb3ea;}.i{fill:#ff9a9f;}.j{fill:#78c2a4;}.k{fill:#b3e59f;}.l{fill:#ff8086;}.m{fill:#e5646e;}</style><clipPath id="a"><rect class="a" width="221.421" height="91.187" rx="19" transform="translate(423.94 2080.372)"/></clipPath></defs><g class="b" transform="translate(-423.94 -2080.372)"><g transform="translate(489.057 2080.372)"><path class="c" d="M51.557,1.232A2.941,2.941,0,0,1,56.03.862l3.409,3.409a2.941,2.941,0,0,1-.37,4.474L50,15.224,45.082,10.3Z"/><path class="d" d="M28.08,29.654V82.1H64.713V30.886l-2.2-1.232Z"/><path class="e" d="M33.827,30.886H64.713V25H26.474V80.989a1.471,1.471,0,0,0,1.471,1.471h1.471V35.3a4.412,4.412,0,0,1,4.412-4.412Z"/><path class="f" d="M64.713,26.474H27.944A1.471,1.471,0,0,1,26.474,25V17.649a1.471,1.471,0,0,1,1.471-1.471H64.713a1.471,1.471,0,0,1,1.471,1.471V25A1.471,1.471,0,0,1,64.713,26.474Z"/><path class="c" d="M39.63,1.232a2.941,2.941,0,0,0-4.474-.37L31.748,4.271a2.941,2.941,0,0,0,.37,4.474l9.071,6.48L46.1,10.3Z"/><path class="d" d="M32.357,25a4.412,4.412,0,0,1-4.412-4.412V16.178H26.474A1.471,1.471,0,0,0,25,17.649v8.824a1.471,1.471,0,0,0,1.471,1.471h38.24a1.471,1.471,0,0,0,1.471-1.471V25Z"/><path class="g" d="M41.181,27.944h8.824V91.187H41.181Z"/><path class="h" d="M47.064,10.3H44.123a2.941,2.941,0,0,0-2.941,2.941v2.941L43.1,21.906l-1.919,6.038V82.638h8.824V27.944l-1.741-6.454,1.741-5.312V13.237A2.941,2.941,0,0,0,47.064,10.3Z"/><path class="c" d="M41.181,16.178h8.824V27.944H41.181Z"/><path class="i" d="M70.676,55.65a2.941,2.941,0,0,1,4.474-.37l3.409,3.409a2.941,2.941,0,0,1-.37,4.474l-9.071,6.48L64.2,64.714Z"/><path class="g" d="M41.181,76.479V89.716a1.471,1.471,0,0,0,1.471,1.471H60.3l4.171-2.493,4.654,2.493h19.12a1.471,1.471,0,0,0,1.471-1.471V82.362Z"/><path class="j" d="M47.064,82.362H89.716V76.479H36.154L39.71,89.716a1.471,1.471,0,0,0,1.471,1.471h1.471V86.775A4.412,4.412,0,0,1,47.064,82.362Z"/><path class="k" d="M89.716,77.95H41.181a1.471,1.471,0,0,1-1.471-1.471V72.067A1.471,1.471,0,0,1,41.181,70.6H89.716a1.471,1.471,0,0,1,1.471,1.471v4.412A1.471,1.471,0,0,1,89.716,77.95Z"/><path class="i" d="M58.75,55.65a2.941,2.941,0,0,0-4.474-.37l-3.409,3.409a2.941,2.941,0,0,0,.37,4.474l9.071,6.48,4.916-4.928Z"/><path class="g" d="M45.593,76.479a4.412,4.412,0,0,1-4.412-4.412V70.6H39.71a1.471,1.471,0,0,0-1.471,1.471V77.95a1.471,1.471,0,0,0,1.471,1.471H89.716a1.471,1.471,0,0,0,1.471-1.471V76.479Z"/><path class="g" d="M60.3,79.421h8.824V91.187H60.3Z"/><path class="l" d="M66.184,64.713H63.243A2.941,2.941,0,0,0,60.3,67.655V70.6l2.613,4.962L60.3,79.421V91.187h8.824V79.421l-1.715-3.862L69.126,70.6V67.655a2.941,2.941,0,0,0-2.941-2.941Z"/><path class="i" d="M69.126,79.421H60.3V70.6h8.824Z"/><path class="k" d="M26.554,39.472a2.941,2.941,0,0,1,4.474-.37l3.409,3.409a2.941,2.941,0,0,1-.37,4.474l-9.071,6.48-4.916-4.928Z"/><path class="l" d="M2.941,63.243V89.716a1.471,1.471,0,0,0,1.471,1.471H16.178l4.54-2.612L25,91.187H38.24a1.471,1.471,0,0,0,1.471-1.471V69.126Z"/><path class="m" d="M8.824,69.126H39.71V63.243H1.471V89.716a1.471,1.471,0,0,0,1.471,1.471H4.412V73.538a4.412,4.412,0,0,1,4.412-4.412Z"/><path class="i" d="M39.71,64.713H2.941a1.471,1.471,0,0,1-1.471-1.471V55.889a1.471,1.471,0,0,1,1.471-1.471H39.71a1.471,1.471,0,0,1,1.471,1.471v7.354A1.471,1.471,0,0,1,39.71,64.713Z"/><path class="k" d="M14.627,39.472a2.941,2.941,0,0,0-4.474-.37L6.745,42.511a2.941,2.941,0,0,0,.37,4.474l9.071,6.48L21.1,48.536Z"/><path class="l" d="M7.354,63.243A4.412,4.412,0,0,1,2.941,58.83V54.418H1.471A1.471,1.471,0,0,0,0,55.889v8.824a1.471,1.471,0,0,0,1.471,1.471H39.71a1.471,1.471,0,0,0,1.471-1.471V63.243Z"/><path class="g" d="M16.178,66.184H25v25H16.178Z"/><path class="g" d="M22.061,48.535H19.12a2.941,2.941,0,0,0-2.941,2.941v2.941l1.394,5.661-1.394,6.105v25H25v-25l-1.731-5.927L25,54.418V51.477a2.942,2.942,0,0,0-2.941-2.942Z"/><path class="k" d="M16.178,54.418H25V66.184H16.178Z"/></g></g></svg>