<svg xmlns="http://www.w3.org/2000/svg" width="88.719" height="88.719" viewBox="0 0 88.719 88.719"><defs><style>.a{fill:#40596b;}.b{fill:#fff;}.c{fill:#cdd6e0;}.d{fill:#f2f2f2;}.e{fill:#acb3ba;}.f{fill:#ffd15c;}.g{fill:#f8b64c;}.h{fill:#ff7058;}.i{fill:#e4eaef;}.j{fill:#f1543f;}</style></defs><path class="a" d="M85.022,78.367H3.7a3.707,3.707,0,0,0-3.7,3.7v55.079a3.707,3.707,0,0,0,3.7,3.7H85.022a3.707,3.707,0,0,0,3.7-3.7V82.064A3.707,3.707,0,0,0,85.022,78.367Z" transform="translate(0 -64.505)"/><rect class="b" width="77.629" height="51.198" transform="translate(5.545 19.407)"/><rect class="c" width="33.824" height="9.981" transform="translate(27.355 76.335)"/><rect class="d" width="54.34" height="2.403" transform="translate(17.189 86.316)"/><rect class="e" width="33.824" height="2.772" transform="translate(27.355 76.335)"/><path class="d" d="M132.425,117.029v46.947a2.919,2.919,0,0,1-2.957,2.957H70.876a2.919,2.919,0,0,1-2.957-2.957V117.029Z" transform="translate(-55.905 -96.328)"/><g transform="translate(27.54 33.824)"><path class="b" d="M249.424,191.216v7.024h-.739v-7.024Z" transform="translate(-232.235 -191.216)"/><path class="b" d="M249.424,343.771v7.024h-.739v-7.024h.739Z" transform="translate(-232.235 -316.786)"/><path class="b" d="M293.937,217.893l-4.99,4.99-.555-.555,4.99-4.99Z" transform="translate(-264.919 -212.717)"/><path class="b" d="M186.312,326.563l-4.99,4.99-.555-.555,4.99-4.99Z" transform="translate(-176.331 -302.165)"/><path class="b" d="M315.084,285.257V286h-6.839v-.739Z" transform="translate(-281.26 -268.622)"/><path class="b" d="M162.529,285.627V286H155.69v-.739h6.839Z" transform="translate(-155.69 -268.622)"/><path class="b" d="M294.8,330.815l-.555.555-4.806-4.806.555-.555Z" transform="translate(-265.779 -302.166)"/><path class="b" d="M186.312,222.329l-.555.555-4.99-4.99.555-.555Z" transform="translate(-176.331 -212.718)"/><path class="b" d="M219.741,216c-.185,0-.37.185-.739.37l-1.663-3.881.739-.37Z" transform="translate(-206.433 -208.417)"/><path class="b" d="M271.986,343.473l-.739.37-1.663-3.881c.185,0,.37-.185.739-.37Z" transform="translate(-249.437 -313.346)"/><path class="b" d="M179.794,255.573c-.185.185-.185.37-.37.739l-3.881-1.663.37-.739Z" transform="translate(-172.031 -242.82)"/><path class="b" d="M306.226,308.863l-.37.739-3.881-1.663c.185-.185.185-.37.37-.739Z" transform="translate(-276.099 -286.684)"/><path class="b" d="M179.794,306.894l-3.881,1.663-.37-.739,3.881-1.663C179.609,306.525,179.609,306.71,179.794,306.894Z" transform="translate(-172.031 -285.824)"/><path class="b" d="M306.226,254.649l-3.881,1.663c0-.185-.185-.37-.37-.739l3.881-1.663Z" transform="translate(-276.099 -242.82)"/><path class="b" d="M219.741,338.917l-1.663,3.881-.739-.37L219,338.547C219.371,338.732,219.556,338.732,219.741,338.917Z" transform="translate(-206.433 -312.486)"/><path class="b" d="M272.846,211.439l-1.479,3.881c-.185-.185-.37-.185-.739-.37l1.663-3.881Z" transform="translate(-250.297 -207.557)"/></g><path class="f" d="M129.587,0H72.66a3.707,3.707,0,0,0-3.7,3.7v9.611h64.506V3.7A4,4,0,0,0,129.587,0Z" transform="translate(-56.764)"/><path class="a" d="M324.963,273.763l3.512,12.568,3.142-3.142,2.957,3.142,2.772-2.772-2.957-3.142,2.957-3.142Z" transform="translate(-267.481 -225.338)"/><circle class="g" cx="2.218" cy="2.218" r="2.218" transform="translate(34.194 4.436)"/><circle class="h" cx="2.218" cy="2.218" r="2.218" transform="translate(25.691 4.436)"/><circle class="g" cx="2.218" cy="2.218" r="2.218" transform="translate(17.189 4.436)"/><path class="i" d="M133.285,125.388v8.687a6.3,6.3,0,0,1-4.066,1.294,7.02,7.02,0,0,1-7.024-7.024,7.024,7.024,0,1,1-14.047,0,7.024,7.024,0,1,1-14.047,0,7.024,7.024,0,1,1-14.047,0,7.02,7.02,0,0,1-7.024,7.024,7.584,7.584,0,0,1-4.066-1.294v-8.687Z" transform="translate(-56.765 -103.208)"/><path class="h" d="M66.292,82.626H52.245L55.2,75.233H67.956Z" transform="translate(-43.003 -61.925)"/><path class="c" d="M145.7,82.626H131.657l1.663-7.393h12.938Z" transform="translate(-108.368 -61.925)"/><path class="h" d="M225.116,82.626H211.069l.555-7.393h12.938Z" transform="translate(-173.733 -61.925)"/><path class="c" d="M301.949,82.626H287.9l-.555-7.393h12.938Z" transform="translate(-236.519 -61.925)"/><path class="h" d="M376.2,82.626H362.153l-1.663-7.393h12.753Z" transform="translate(-296.724 -61.925)"/><g transform="translate(23.289 20.701)"><path class="e" d="M131.657,120.171a7.024,7.024,0,0,0,14.047,0v-3.142H131.657v3.142Z" transform="translate(-131.657 -117.029)"/><path class="e" d="M290.482,117.029v3.142a7.024,7.024,0,0,0,14.047,0v-3.142Z" transform="translate(-262.388 -117.029)"/></g><g transform="translate(9.242 20.701)"><path class="j" d="M52.245,120.171a7.024,7.024,0,0,0,14.047,0v-3.142H52.245Z" transform="translate(-52.245 -117.029)"/><path class="j" d="M211.069,120.171a7.024,7.024,0,0,0,14.047,0v-3.142H211.069v3.142Z" transform="translate(-182.975 -117.029)"/><path class="j" d="M369.894,117.029v3.142a7.024,7.024,0,0,0,14.047,0v-3.142Z" transform="translate(-313.706 -117.029)"/></g><ellipse class="h" cx="10.905" cy="11.09" rx="10.905" ry="11.09" transform="translate(33.454 39.738)"/><g transform="translate(36.966 43.99)"><path class="b" d="M214.525,258.852l-.37-1.294h8.5v-6.469H212.492l-.555-2.4H208.98v1.109H211.2l2.588,10.166h9.242v-1.109Zm7.024-6.839v4.251H213.97l-1.109-4.251Z" transform="translate(-208.98 -248.686)"/><circle class="b" cx="1.294" cy="1.294" r="1.294" transform="translate(5.915 12.014)"/><circle class="b" cx="1.294" cy="1.294" r="1.294" transform="translate(10.72 12.014)"/></g></svg>