<svg xmlns="http://www.w3.org/2000/svg" width="14.032" height="11.835" viewBox="0 0 14.032 11.835"><defs><style>.a{fill:#707070;}</style></defs><g transform="translate(0 -40.081)"><path class="a" d="M13.141,40.081H.892A.893.893,0,0,0,0,40.973V51.025a.893.893,0,0,0,.892.892H13.141a.893.893,0,0,0,.892-.892V40.973A.893.893,0,0,0,13.141,40.081ZM.892,40.492H13.141a.481.481,0,0,1,.48.48v1.745H.411V40.973A.481.481,0,0,1,.892,40.492ZM13.141,51.5H.892a.481.481,0,0,1-.48-.48v-7.9h13.21v7.9A.481.481,0,0,1,13.141,51.5Z"/><path class="a" d="M32.709,73.435a.645.645,0,1,0-.645-.645A.646.646,0,0,0,32.709,73.435Zm0-.879a.234.234,0,1,1-.234.234A.234.234,0,0,1,32.709,72.556Z" transform="translate(-31.185 -31.185)"/><path class="a" d="M96.839,73.435a.645.645,0,1,0-.645-.645A.646.646,0,0,0,96.839,73.435Zm0-.879a.234.234,0,1,1-.234.234A.234.234,0,0,1,96.839,72.556Z" transform="translate(-93.558 -31.185)"/><path class="a" d="M160.968,73.435h7.47a.645.645,0,1,0,0-1.29h-6.371a.206.206,0,1,0,0,.411h6.371a.234.234,0,0,1,0,.468h-7.47a.234.234,0,0,1,0-.468h.22a.206.206,0,0,0,0-.411h-.22a.645.645,0,0,0,0,1.29Z" transform="translate(-155.929 -31.185)"/><path class="a" d="M97.875,216.436a5.8,5.8,0,0,0-4.287,1.964.654.654,0,0,0,0,.878,5.66,5.66,0,0,0,8.573,0,.654.654,0,0,0,0-.878A5.8,5.8,0,0,0,97.875,216.436ZM101.858,219a5.25,5.25,0,0,1-7.967,0,.24.24,0,0,1,0-.322,5.25,5.25,0,0,1,7.967,0A.24.24,0,0,1,101.858,219Z" transform="translate(-90.859 -171.522)"/><path class="a" d="M202.911,249.124a.206.206,0,0,0-.057.285,1.11,1.11,0,1,1-.556-.434.206.206,0,1,0,.137-.388,1.524,1.524,0,1,0,.761.594A.206.206,0,0,0,202.911,249.124Z" transform="translate(-194.911 -202.707)"/><path class="a" d="M248.706,169.189a.206.206,0,0,0,.206-.206v-.439a.206.206,0,1,0-.411,0v.439A.206.206,0,0,0,248.706,169.189Z" transform="translate(-241.69 -124.743)"/><path class="a" d="M184.611,177.09a.206.206,0,0,0,.368-.184l-.22-.439a.206.206,0,0,0-.368.184Z" transform="translate(-179.316 -132.537)"/><path class="a" d="M304.725,177.182a.205.205,0,0,0,.276-.092l.22-.439a.206.206,0,1,0-.368-.184l-.22.439A.206.206,0,0,0,304.725,177.182Z" transform="translate(-296.263 -132.538)"/><path class="a" d="M248.706,408.823a.206.206,0,0,0-.206.206v.439a.206.206,0,0,0,.411,0v-.439A.206.206,0,0,0,248.706,408.823Z" transform="translate(-241.69 -358.636)"/><path class="a" d="M305,400.919a.206.206,0,0,0-.368.184l.22.439a.206.206,0,1,0,.368-.184Z" transform="translate(-296.263 -350.838)"/><path class="a" d="M184.886,400.827a.206.206,0,0,0-.276.092l-.22.439a.206.206,0,1,0,.368.184l.22-.439A.206.206,0,0,0,184.886,400.827Z" transform="translate(-179.316 -350.838)"/></g></svg>