<svg xmlns="http://www.w3.org/2000/svg" width="13.365" height="13.622" viewBox="0 0 13.365 13.622"><defs><style>.a{fill:#707070;}</style></defs><path class="a" d="M137.047,133.609a3.438,3.438,0,1,0,3.438,3.438A3.442,3.442,0,0,0,137.047,133.609Zm0,6.016a2.578,2.578,0,1,1,2.578-2.578A2.581,2.581,0,0,1,137.047,139.625Zm0,0" transform="translate(-130.364 -130.236)"/><path class="a" d="M13.051,5.26l-1.027-.228a5.76,5.76,0,0,0-.331-.813l.569-.9a.413.413,0,0,0-.054-.508l-1.6-1.631a.394.394,0,0,0-.5-.055l-.885.58a5.532,5.532,0,0,0-.8-.337L8.2.321A.4.4,0,0,0,7.814,0H5.551a.4.4,0,0,0-.39.321L4.938,1.367a5.532,5.532,0,0,0-.8.337l-.885-.58a.394.394,0,0,0-.5.055L1.157,2.81a.413.413,0,0,0-.054.508l.569.9a5.759,5.759,0,0,0-.331.813L.314,5.26a.405.405,0,0,0-.314.4V7.964a.405.405,0,0,0,.314.4l1.027.228a5.759,5.759,0,0,0,.331.813l-.569.9a.413.413,0,0,0,.054.508l1.6,1.631a.394.394,0,0,0,.5.055l.885-.58a5.532,5.532,0,0,0,.8.337L5.161,13.3a.4.4,0,0,0,.39.321H7.814A.4.4,0,0,0,8.2,13.3l.223-1.047a5.532,5.532,0,0,0,.8-.337l.885.58a.394.394,0,0,0,.5-.055l1.6-1.631a.413.413,0,0,0,.054-.508l-.569-.9a5.76,5.76,0,0,0,.331-.813l1.027-.228a.405.405,0,0,0,.314-.4V5.658A.405.405,0,0,0,13.051,5.26Zm-.484,2.376-.942.209a.4.4,0,0,0-.3.288,4.936,4.936,0,0,1-.442,1.088.414.414,0,0,0,.012.42l.522.827-1.145,1.167L9.459,11.1a.393.393,0,0,0-.412-.012,4.745,4.745,0,0,1-1.067.451.4.4,0,0,0-.283.306l-.2.96H5.873l-.2-.96a.4.4,0,0,0-.283-.306,4.742,4.742,0,0,1-1.067-.451.393.393,0,0,0-.412.012l-.811.532L1.95,10.468l.521-.827a.414.414,0,0,0,.012-.42,4.942,4.942,0,0,1-.443-1.088.4.4,0,0,0-.3-.288L.8,7.636V5.986l.942-.209a.4.4,0,0,0,.3-.288A4.936,4.936,0,0,1,2.483,4.4a.414.414,0,0,0-.012-.42L1.95,3.154,3.095,1.987l.811.532a.393.393,0,0,0,.412.012A4.745,4.745,0,0,1,5.385,2.08a.4.4,0,0,0,.283-.306l.2-.96H7.492l.2.96a.4.4,0,0,0,.283.306,4.742,4.742,0,0,1,1.067.451.393.393,0,0,0,.412-.012l.811-.532,1.145,1.167-.521.827a.414.414,0,0,0-.012.42,4.937,4.937,0,0,1,.443,1.088.4.4,0,0,0,.3.288l.942.209Zm0,0"/></svg>